{
.appVersion = "1268";
copyright = "Copyright (c) 2011-2013 by Balsamiq SRL. All rights reserved.";
customParameters = (
{
name = description;
value = "Copyright (c) 2011-2013 by Balsamiq SRL. All rights reserved.";
},
{
name = trademark;
value = "Balsamiq Sans Bold is a trademark of Balsamiq SRL.";
},
{
name = licenseURL;
value = "http://scripts.sil.org/OFL";
},
{
name = license;
value = "Balsamiq Sans Font\012(c) 2011-2015 Michael Angeles for Balsamiq, SRL\012\012This font is licensed under the SIL OFL license: http://scripts.sil.org/OFL\012\012Reserved Font Name: Balsamiq";
},
{
name = vendorID;
value = "2ttf";
},
{
name = panose;
value = (
2,
0,
8,
3,
0,
0,
0,
0,
0,
0
);
},
{
name = unicodeRanges;
value = (
0,
1,
2,
3,
31,
33,
35,
37,
38,
39,
45,
46,
47,
48,
60,
62
);
},
{
name = codePageRanges;
value = (
1252,
1250,
1254,
1257,
"bit 29",
"bit 30"
);
},
{
name = fsType;
value = (
);
},
{
name = glyphOrder;
value = (
.notdef,
NULL,
CR,
space,
exclam,
quotedbl,
numbersign,
dollar,
percent,
ampersand,
quotesingle,
parenleft,
parenright,
asterisk,
plus,
comma,
hyphen,
period,
slash,
zero,
one,
two,
three,
four,
five,
six,
seven,
eight,
nine,
colon,
semicolon,
less,
equal,
greater,
question,
at,
A,
B,
C,
D,
E,
F,
G,
H,
I,
J,
K,
L,
M,
N,
O,
P,
Q,
R,
S,
T,
U,
V,
W,
X,
Y,
Z,
bracketleft,
backslash,
bracketright,
asciicircum,
underscore,
grave,
a,
b,
c,
d,
e,
f,
g,
h,
i,
j,
k,
l,
m,
n,
o,
p,
q,
r,
s,
t,
u,
v,
w,
x,
y,
z,
braceleft,
bar,
braceright,
asciitilde,
exclamdown,
cent,
sterling,
currency,
yen,
brokenbar,
section,
dieresis,
copyright,
ordfeminine,
guillemotleft,
logicalnot,
registered,
macron,
degree,
plusminus,
uni00B2,
uni00B3,
acute,
uni00B5,
paragraph,
periodcentered,
cedilla,
uni00B9,
ordmasculine,
guillemotright,
onequarter,
onehalf,
threequarters,
questiondown,
Agrave,
Aacute,
Acircumflex,
Atilde,
Adieresis,
Aring,
AE,
Ccedilla,
Egrave,
Eacute,
Ecircumflex,
Edieresis,
Igrave,
Iacute,
Icircumflex,
Idieresis,
Eth,
Ntilde,
Ograve,
Oacute,
Ocircumflex,

glyphs = (
{
glyphname = .notdef;
layers = (
{
layerId = "6CA69755-92A4-402C-9A09-056914DDCECE";
paths = (
{
closed = 1;
nodes = (
"126 633 LINE",
"325 633 LINE",
"325 33 LINE",
"126 33 LINE",
"126 33 LINE"
);
},
{
closed = 1;
nodes = (
"358 0 LINE",
"358 666 LINE",
"93 666 LINE",
"93 0 LINE",
"93 0 LINE"
);
}
);
userData = {
assembly = "PUSHW[ ]\011/* 1 value pushed */
10 
CALL[ ]\011/* CallFunction */
PUSHW[ ]\011/* 1 value pushed */
8 
MDAP[1]\011/* MoveDirectAbsPt */
PUSHW[ ]\011/* 1 value pushed */
1 
MDAP[1]\011/* MoveDirectAbsPt */
PUSHW[ ]\011/* 1 value pushed */
8 
SRP0[ ]\011/* SetRefPoint0 */
PUSHW[ ]\011/* 1 value pushed */
4 
MDRP[10000]\011/* MoveDirectRelPt */
PUSHW[ ]\011/* 1 value pushed */
4 
MDAP[1]\011/* MoveDirectAbsPt */
PUSHW[ ]\011/* 1 value pushed */
0 
MDRP[11100]\011/* MoveDirectRelPt */
PUSHW[ ]\011/* 1 value pushed */
1 
SRP0[ ]\011/* SetRefPoint0 */
PUSHW[ ]\011/* 1 value pushed */
7 
MDRP[11100]\011/* MoveDirectRelPt */
PUSHW[ ]\011/* 1 value pushed */
9 
MDRP[11100]\011/* MoveDirectRelPt */
SVTCA[0]\011/* SetFreedomAndProjectionVectorToAxis */
PUSHW[ ]\011/* 1 value pushed */
1 
RCVT[ ]\011/* ReadCVT */
IF[ ]\011/* If */
PUSHW[ ]\011/* 1 value pushed */
4 
MDAP[1]\011/* MoveDirectAbsPt */
ELSE[ ]\011/* Else */
PUSHW[ ]\011/* 2 values pushed */
4 7 
MIAP[0]\011/* MoveIndirectAbsPt */
EIF[ ]\011/* EndIf */
PUSHW[ ]\011/* 4 values pushed */
6 3 2 14 
CALL[ ]\011/* CallFunction */
PUSHW[ ]\011/* 1 value pushed */
4 
SRP0[ ]\011/* SetRefPoint0 */
PUSHW[ ]\011/* 2 values pushed */
0 3 
MIRP[10100]\011/* MoveIndirectRelPt */
IUP[0]\011/* InterpolateUntPts */
IUP[1]\011/* InterpolateUntPts */";
};
width = 464;
}
);
note = .notdef;
},
{
glyphname = exclam;
layers = (
{
layerId = "6CA69755-92A4-402C-9A09-056914DDCECE";
paths = (
{
closed = 1;
nodes = (
"206 663 OFFCURVE",
"165 704 OFFCURVE",
"107 704 OFFCURVE",
"66 663 OFFCURVE",
"66 634 QCURVE SMOOTH",
"66 224 LINE SMOOTH",
"67 195 OFFCURVE",
"108 155 OFFCURVE",
"166 156 OFFCURVE",
"206 197 OFFCURVE",
"206 226 QCURVE SMOOTH",
"206 634 LINE",
"206 634 LINE"
);
},
{
closed = 1;
nodes = (
"165 117 OFFCURVE",
"107 117 OFFCURVE",
"66 76 OFFCURVE",
"66 18 OFFCURVE",
"107 -23 OFFCURVE",
"165 -23 OFFCURVE",
"206 18 OFFCURVE",
"206 76 OFFCURVE",
"185 96 QCURVE",
"185 96 LINE"
);
}
);
userData = {
assembly = "PUSHW[ ]\011/* 1 value pushed */
10 
CALL[ ]\011/* CallFunction */
PUSHW[ ]\011/* 4 values pushed */
1 5 6 14 
CALL[ ]\011/* CallFunction */
PUSHW[ ]\011/* 1 value pushed */
1 
SRP0[ ]\011/* SetRefPoint0 */
PUSHW[ ]\011/* 1 value pushed */
22 
MDRP[11100]\011/* MoveDirectRelPt */
IUP[0]\011/* InterpolateUntPts */
IUP[1]\011/* InterpolateUntPts */";
};
width = 273;
}
);
note = exclam;
unicode = 0021;
},
{
glyphname = quotedbl;
layers = (
{
layerId = "6CA69755-92A4-402C-9A09-056914DDCECE";
paths = (
{
closed = 1;
nodes = (
"355 673 OFFCURVE",
"314 713 OFFCURVE",
"256 712 OFFCURVE",
"216 671 OFFCURVE",
"216 642 QCURVE SMOOTH",
"217 566 OFFCURVE",
"215 476 QCURVE SMOOTH",
"215 447 OFFCURVE",
"255 405 OFFCURVE",
"312 404 OFFCURVE",
"354 444 OFFCURVE",
"355 472 QCURVE SMOOTH",
"357 566 OFFCURVE",
"356 644 QCURVE",
"356 644 LINE"
);
},
{
closed = 1;
nodes = (
"191 670 OFFCURVE",
"150 710 OFFCURVE",
"92 709 OFFCURVE",
"52 668 OFFCURVE",
"52 639 QCURVE SMOOTH",
"53 563 OFFCURVE",
"51 473 QCURVE SMOOTH",
"51 444 OFFCURVE",
"91 402 OFFCURVE",
"148 401 OFFCURVE",
"190 441 OFFCURVE",
"191 469 QCURVE SMOOTH",
"193 563 OFFCURVE",
"192 641 QCURVE",
"192 641 LINE"
);
}
);
userData = {
assembly = "PUSHW[ ]\011/* 1 value pushed */
10 
CALL[ ]\011/* CallFunction */
PUSHW[ ]\011/* 1 value pushed */
28 
MDAP[1]\011/* MoveDirectAbsPt */
PUSHW[ ]\011/* 1 value pushed */
9 
MDAP[1]\011/* MoveDirectAbsPt */
NPUSHW[ ]\011/* 7 values pushed */
25 9 41 9 57 9 3 
DELTAP1[ ]\011/* DeltaExceptionP1 */
PUSHW[ ]\011/* 2 values pushed */
0 5 
MIRP[10100]\011/* MoveIndirectRelPt */
PUSHW[ ]\011/* 1 value pushed */
2 
MDRP[10000]\011/* MoveDirectRelPt */
PUSHW[ ]\011/* 1 value pushed */
2 
MDAP[1]\011/* MoveDirectAbsPt */
PUSHW[ ]\011/* 1 value pushed */
9 
SRP0[ ]\011/* SetRefPoint0 */
PUSHW[ ]\011/* 1 value pushed */
7 
MDRP[10000]\011/* MoveDirectRelPt */
PUSHW[ ]\011/* 1 value pushed */
7 
MDAP[1]\011/* MoveDirectAbsPt */
PUSHW[ ]\011/* 1 value pushed */
28 
SRP0[ ]\011/* SetRefPoint0 */
PUSHW[ ]\011/* 1 value pushed */
23 
MDRP[10000]\011/* MoveDirectRelPt */
PUSHW[ ]\011/* 1 value pushed */
23 
MDAP[1]\011/* MoveDirectAbsPt */
PUSHW[ ]\011/* 2 values pushed */
14 5 
MIRP[10100]\011/* MoveIndirectRelPt */
NPUSHW[ ]\011/* 7 values pushed */
22 14 38 14 54 14 3 
DELTAP1[ ]\011/* DeltaExceptionP1 */
PUSHW[ ]\011/* 1 value pushed */
16 
MDRP[10000]\011/* MoveDirectRelPt */
PUSHW[ ]\011/* 1 value pushed */
16 
MDAP[1]\011/* MoveDirectAbsPt */
PUSHW[ ]\011/* 1 value pushed */
23 
SRP0[ ]\011/* SetRefPoint0 */
PUSHW[ ]\011/* 1 value pushed */
21 
MDRP[10000]\011/* MoveDirectRelPt */
PUSHW[ ]\011/* 1 value pushed */
21 
MDAP[1]\011/* MoveDirectAbsPt */
PUSHW[ ]\011/* 1 value pushed */
0 
SRP0[ ]\011/* SetRefPoint0 */
PUSHW[ ]\011/* 1 value pushed */
29 
MDRP[11100]\011/* MoveDirectRelPt */
IUP[0]\011/* InterpolateUntPts */
IUP[1]\011/* InterpolateUntPts */";
};
width = 373;
}
);
note = quotedbl;
unicode = 0022;
},
{
glyphname = numbersign;
layers = (
{
layerId = "6CA69755-92A4-402C-9A09-056914DDCECE";
paths = (
{
closed = 1;
nodes = (
"356 538 OFFCURVE",
"327 537 QCURVE",
"331 580 OFFCURVE",
"336 620 QCURVE SMOOTH",
"340 648 OFFCURVE",
"305 694 OFFCURVE",
"248 702 OFFCURVE",
"202 667 OFFCURVE",
"198 638 QCURVE SMOOTH",
"191 587 OFFCURVE",
"187 533 QCURVE",
"159 533 LINE SMOOTH",
"130 532 OFFCURVE",
"90 491 OFFCURVE",
"91 433 OFFCURVE",
"132 393 OFFCURVE",
"161 393 QCURVE SMOOTH",
"169 393 OFFCURVE",
"177 394 QCURVE",
"175 357 LINE",
"173 300 LINE",
"149 300 OFFCURVE",
"122 299 QCURVE SMOOTH",
"93 298 OFFCURVE",
"53 256 OFFCURVE",
"55 198 OFFCURVE",
"97 158 OFFCURVE",
"126 159 QCURVE SMOOTH",
"145 160 OFFCURVE",
"164 160 QCURVE",
"161 121 OFFCURVE",
"157 85 QCURVE SMOOTH",
"153 56 OFFCURVE",
"189 11 OFFCURVE",
"247 4 OFFCURVE",
"292 40 OFFCURVE",
"295 69 QCURVE SMOOTH",
"300 112 OFFCURVE",
"304 164 QCURVE",
"370 164 LINE",
"367 119 OFFCURVE",
"363 76 QCURVE SMOOTH",
"360 47 OFFCURVE",
"396 3 OFFCURVE",
"454 -3 OFFCURVE",
"498 33 OFFCURVE",
"501 62 QCURVE SMOOTH",
"506 111 OFFCURVE",
"510 164 QCURVE",
"536 164 OFFCURVE",
"562 163 QCURVE SMOOTH",
"590 163 OFFCURVE",
"632 203 OFFCURVE",
"633 261 OFFCURVE",
"593 302 OFFCURVE",
"564 303 QCURVE SMOOTH",
"540 303 OFFCURVE",
"515 304 QCURVE",
"516 325 OFFCURVE",
"516 349 QCURVE SMOOTH",
"516 370 OFFCURVE",
"517 399 QCURVE",
"539 399 OFFCURVE",
"561 398 QCURVE SMOOTH",
"590 397 OFFCURVE",
"632 437 OFFCURVE",
"634 495 OFFCURVE",
"594 537 OFFCURVE",
"565 538 QCURVE SMOOTH",
"543 538 OFFCURVE",
"519 539 QCURVE",
"520 588 OFFCURVE",
"522 629 QCURVE SMOOTH",
"523 658 OFFCURVE",
"484 700 OFFCURVE",
"426 703 OFFCURVE",
"384 664 OFFCURVE",
"382 635 QCURVE SMOOTH",
"380 592 OFFCURVE",
"379 538 QCURVE",
"379 538 LINE"
);
},
{
closed = 1;
nodes = (
"377 371 OFFCURVE",
"376 351 QCURVE SMOOTH",
"376 304 LINE",
"344 304 OFFCURVE",
"312 303 QCURVE",
"315 350 LINE",
"317 397 LINE",
"351 398 OFFCURVE",
"377 399 QCURVE",
"377 399 LINE"
);
}
);
userData = {
assembly = "PUSHW[ ]\011/* 1 value pushed */
10 
CALL[ ]\011/* CallFunction */
PUSHW[ ]\011/* 1 value pushed */
89 
MDAP[1]\011/* MoveDirectAbsPt */
PUSHW[ ]\011/* 1 value pushed */
87 
MDAP[1]\011/* MoveDirectAbsPt */
PUSHW[ ]\011/* 1 value pushed */
0 
MDRP[10000]\011/* MoveDirectRelPt */
PUSHW[ ]\011/* 1 value pushed */
0 
MDAP[1]\011/* MoveDirectAbsPt */
PUSHW[ ]\011/* 1 value pushed */
87 
SRP0[ ]\011/* SetRefPoint0 */
PUSHW[ ]\011/* 1 value pushed */
2 
MDRP[10000]\011/* MoveDirectRelPt */
PUSHW[ ]\011/* 1 value pushed */
2 
MDAP[1]\011/* MoveDirectAbsPt */
PUSHW[ ]\011/* 1 value pushed */
87 
SRP0[ ]\011/* SetRefPoint0 */
PUSHW[ ]\011/* 2 values pushed */
20 5 
MIRP[10100]\011/* MoveIndirectRelPt */
PUSHW[ ]\011/* 1 value pushed */
7 
MDRP[10000]\011/* MoveDirectRelPt */
PUSHW[ ]\011/* 1 value pushed */
7 
MDAP[1]\011/* MoveDirectAbsPt */
PUSHW[ ]\011/* 1 value pushed */
20 
SRP0[ ]\011/* SetRefPoint0 */
PUSHW[ ]\011/* 1 value pushed */
9 
MDRP[10000]\011/* MoveDirectRelPt */
PUSHW[ ]\011/* 1 value pushed */
9 
MDAP[1]\011/* MoveDirectAbsPt */
PUSHW[ ]\011/* 1 value pushed */
20 
SRP0[ ]\011/* SetRefPoint0 */
PUSHW[ ]\011/* 1 value pushed */
18 
MDRP[10000]\011/* MoveDirectRelPt */
PUSHW[ ]\011/* 1 value pushed */
18 
MDAP[1]\011/* MoveDirectAbsPt */
PUSHW[ ]\011/* 1 value pushed */
20 
SRP0[ ]\011/* SetRefPoint0 */
PUSHW[ ]\011/* 1 value pushed */
22 
MDRP[10000]\011/* MoveDirectRelPt */
PUSHW[ ]\011/* 1 value pushed */
22 
MDAP[1]\011/* MoveDirectAbsPt */
PUSHW[ ]\011/* 1 value pushed */
20 
SRP0[ ]\011/* SetRefPoint0 */
PUSHW[ ]\011/* 1 value pushed */
31 
MDRP[10000]\011/* MoveDirectRelPt */
PUSHW[ ]\011/* 1 value pushed */
31 
MDAP[1]\011/* MoveDirectAbsPt */
PUSHW[ ]\011/* 1 value pushed */
87 
SRP0[ ]\011/* SetRefPoint0 */
PUSHW[ ]\011/* 1 value pushed */
40 
MDRP[10000]\011/* MoveDirectRelPt */
PUSHW[ ]\011/* 1 value pushed */
40 
MDAP[1]\011/* MoveDirectAbsPt */
PUSHW[ ]\011/* 1 value pushed */
89 
SRP0[ ]\011/* SetRefPoint0 */
PUSHW[ ]\011/* 1 value pushed */
59 
MDRP[10000]\011/* MoveDirectRelPt */
PUSHW[ ]\011/* 1 value pushed */
59 
MDAP[1]\011/* MoveDirectAbsPt */
PUSHW[ ]\011/* 1 value pushed */
61 
MDRP[10000]\011/* MoveDirectRelPt */
PUSHW[ ]\011/* 1 value pushed */
61 
MDAP[1]\011/* MoveDirectAbsPt */
PUSHW[ ]\011/* 1 value pushed */
87 
SRP0[ ]\011/* SetRefPoint0 */
PUSHW[ ]\011/* 1 value pushed */
80 
MDRP[10000]\011/* MoveDirectRelPt */
PUSHW[ ]\011/* 1 value pushed */
80 
MDAP[1]\011/* MoveDirectAbsPt */
PUSHW[ ]\011/* 1 value pushed */
59 
SRP0[ ]\011/* SetRefPoint0 */
PUSHW[ ]\011/* 2 values pushed */
84 5 
MIRP[10100]\011/* MoveIndirectRelPt */
PUSHW[ ]\011/* 1 value pushed */
82 
MDRP[10000]\011/* MoveDirectRelPt */
PUSHW[ ]\011/* 1 value pushed */
82 
MDAP[1]\011/* MoveDirectAbsPt */
PUSHW[ ]\011/* 1 value pushed */
20 
SRP0[ ]\011/* SetRefPoint0 */
PUSHW[ ]\011/* 1 value pushed */
90 
MDRP[11100]\011/* MoveDirectRelPt */
SVTCA[0]\011/* SetFreedomAndProjectionVectorToAxis */
PUSHW[ ]\011/* 1 value pushed */
1 
RCVT[ ]\011/* ReadCVT */
IF[ ]\011/* If */
PUSHW[ ]\011/* 1 value pushed */
0 
MDAP[1]\011/* MoveDirectAbsPt */
ELSE[ ]\011/* Else */
PUSHW[ ]\011/* 2 values pushed */
0 11 
MIAP[0]\011/* MoveIndirectAbsPt */
EIF[ ]\011/* EndIf */
PUSHW[ ]\011/* 1 value pushed */
1 
RCVT[ ]\011/* ReadCVT */
IF[ ]\011/* If */
PUSHW[ ]\011/* 1 value pushed */
9 
MDAP[1]\011/* MoveDirectAbsPt */
ELSE[ ]\011/* Else */
PUSHW[ ]\011/* 2 values pushed */
9 11 
MIAP[0]\011/* MoveIndirectAbsPt */
EIF[ ]\011/* EndIf */
PUSHW[ ]\011/* 1 value pushed */
1 
RCVT[ ]\011/* ReadCVT */
IF[ ]\011/* If */
PUSHW[ ]\011/* 1 value pushed */
11 
MDAP[1]\011/* MoveDirectAbsPt */
ELSE[ ]\011/* Else */
PUSHW[ ]\011/* 2 values pushed */
11 11 
MIAP[0]\011/* MoveIndirectAbsPt */
EIF[ ]\011/* EndIf */
PUSHW[ ]\011/* 1 value pushed */
1 
RCVT[ ]\011/* ReadCVT */
IF[ ]\011/* If */
PUSHW[ ]\011/* 1 value pushed */
68 
MDAP[1]\011/* MoveDirectAbsPt */
ELSE[ ]\011/* Else */
PUSHW[ ]\011/* 2 values pushed */
68 11 
MIAP[0]\011/* MoveIndirectAbsPt */
EIF[ ]\011/* EndIf */
PUSHW[ ]\011/* 1 value pushed */
1 
RCVT[ ]\011/* ReadCVT */
IF[ ]\011/* If */
PUSHW[ ]\011/* 1 value pushed */
78 
MDAP[1]\011/* MoveDirectAbsPt */
ELSE[ ]\011/* Else */
PUSHW[ ]\011/* 2 values pushed */
78 11 
MIAP[0]\011/* MoveIndirectAbsPt */
EIF[ ]\011/* EndIf */
PUSHW[ ]\011/* 4 values pushed */
86 2 52 14 
CALL[ ]\011/* CallFunction */
PUSHW[ ]\011/* 1 value pushed */
11 
SRP0[ ]\011/* SetRefPoint0 */
PUSHW[ ]\011/* 2 values pushed */
16 2 
MIRP[10100]\011/* MoveIndirectRelPt */
NPUSHW[ ]\011/* 7 values pushed */
24 16 40 16 56 16 3 
DELTAP1[ ]\011/* DeltaExceptionP1 */
PUSHW[ ]\011/* 1 value pushed */
18 
MDRP[10000]\011/* MoveDirectRelPt */
PUSHW[ ]\011/* 1 value pushed */
18 
MDAP[1]\011/* MoveDirectAbsPt */
PUSHW[ ]\011/* 1 value pushed */
86 
SRP0[ ]\011/* SetRefPoint0 */
PUSHW[ ]\011/* 1 value pushed */
22 
MDRP[10000]\011/* MoveDirectRelPt */
PUSHW[ ]\011/* 1 value pushed */
86 
SRP0[ ]\011/* SetRefPoint0 */
PUSHW[ ]\011/* 1 value pushed */
24 
MDRP[10000]\011/* MoveDirectRelPt */
PUSHW[ ]\011/* 1 value pushed */
24 
MDAP[1]\011/* MoveDirectAbsPt */
PUSHW[ ]\011/* 1 value pushed */
52 
SRP0[ ]\011/* SetRefPoint0 */
PUSHW[ ]\011/* 1 value pushed */
29 
MDRP[10000]\011/* MoveDirectRelPt */
PUSHW[ ]\011/* 1 value pushed */
29 
MDAP[1]\011/* MoveDirectAbsPt */
PUSHW[ ]\011/* 1 value pushed */
52 
SRP0[ ]\011/* SetRefPoint0 */
PUSHW[ ]\011/* 1 value pushed */
31 
MDRP[10000]\011/* MoveDirectRelPt */
PUSHW[ ]\011/* 1 value pushed */
31 
MDAP[1]\011/* MoveDirectAbsPt */
PUSHW[ ]\011/* 1 value pushed */
52 
SRP0[ ]\011/* SetRefPoint0 */
PUSHW[ ]\011/* 1 value pushed */
40 
MDRP[10000]\011/* MoveDirectRelPt */
PUSHW[ ]\011/* 1 value pushed */
40 
MDAP[1]\011/* MoveDirectAbsPt */
PUSHW[ ]\011/* 1 value pushed */
52 
SRP0[ ]\011/* SetRefPoint0 */
PUSHW[ ]\011/* 1 value pushed */
50 
MDRP[10000]\011/* MoveDirectRelPt */
PUSHW[ ]\011/* 1 value pushed */
50 
MDAP[1]\011/* MoveDirectAbsPt */
PUSHW[ ]\011/* 1 value pushed */
86 
SRP0[ ]\011/* SetRefPoint0 */
PUSHW[ ]\011/* 1 value pushed */
57 
MDRP[10000]\011/* MoveDirectRelPt */
PUSHW[ ]\011/* 1 value pushed */
57 
MDAP[1]\011/* MoveDirectAbsPt */
PUSHW[ ]\011/* 1 value pushed */
86 
SRP0[ ]\011/* SetRefPoint0 */
PUSHW[ ]\011/* 1 value pushed */
59 
MDRP[10000]\011/* MoveDirectRelPt */
PUSHW[ ]\011/* 1 value pushed */
59 
MDAP[1]\011/* MoveDirectAbsPt */
PUSHW[ ]\011/* 1 value pushed */
18 
SRP0[ ]\011/* SetRefPoint0 */
PUSHW[ ]\011/* 1 value pushed */
63 
MDRP[10000]\011/* MoveDirectRelPt */
PUSHW[ ]\011/* 1 value pushed */
63 
MDAP[1]\011/* MoveDirectAbsPt */
PUSHW[ ]\011/* 1 value pushed */
80 
MDRP[10000]\011/* MoveDirectRelPt */
PUSHW[ ]\011/* 1 value pushed */
80 
MDAP[1]\011/* MoveDirectAbsPt */
PUSHW[ ]\011/* 1 value pushed */
82 
MDRP[10000]\011/* MoveDirectRelPt */
PUSHW[ ]\011/* 1 value pushed */
82 
MDAP[1]\011/* MoveDirectAbsPt */
PUSHW[ ]\011/* 1 value pushed */
86 
SRP0[ ]\011/* SetRefPoint0 */
PUSHW[ ]\011/* 1 value pushed */
84 
MDRP[10000]\011/* MoveDirectRelPt */
PUSHW[ ]\011/* 1 value pushed */
84 
MDAP[1]\011/* MoveDirectAbsPt */
IUP[0]\011/* InterpolateUntPts */
IUP[1]\011/* InterpolateUntPts */";
};
width = 643;
}
);
note = numbersign;
unicode = 0023;
},
{
glyphname = dollar;
layers = (
{
layerId = "6CA69755-92A4-402C-9A09-056914DDCECE";
paths = (
{
closed = 1;
nodes = (
"429 240 OFFCURVE",
"441 233 QCURVE SMOOTH",
"469 216 OFFCURVE",
"473 194 QCURVE SMOOTH",
"476 179 OFFCURVE",
"448 142 OFFCURVE",
"409 129 QCURVE",
"411 183 OFFCURVE",
"411 248 QCURVE",
"411 248 LINE"
);
},
{
closed = 1;
nodes = (
"272 437 LINE",
"263 440 OFFCURVE",
"255 443 QCURVE SMOOTH",
"210 460 OFFCURVE",
"199 478 QCURVE SMOOTH",
"183 502 OFFCURVE",
"198 524 QCURVE SMOOTH",
"218 555 OFFCURVE",
"260 565 QCURVE SMOOTH",
"272 567 LINE",
"272 567 LINE"
);
},
{
closed = 1;
nodes = (
"468 428 OFFCURVE",
"521 404 OFFCURVE",
"575 423 OFFCURVE",
"599 476 OFFCURVE",
"590 503 QCURVE SMOOTH",
"587 510 OFFCURVE",
"581 532 OFFCURVE",
"581 534 QCURVE",
"571 567 OFFCURVE",
"556 588 QCURVE SMOOTH",
"506 659 OFFCURVE",
"415 690 QCURVE",
"412 716 OFFCURVE",
"374 753 OFFCURVE",
"348 754 QCURVE SMOOTH",
"325 755 OFFCURVE",
"287 729 OFFCURVE",
"279 708 QCURVE",
"254 706 OFFCURVE",
"230 701 QCURVE SMOOTH",
"185 691 OFFCURVE",
"106 639 OFFCURVE",
"81 601 QCURVE SMOOTH",
"52 556 OFFCURVE",
"49 456 OFFCURVE",
"81 402 QCURVE SMOOTH",
"117 346 OFFCURVE",
"204 313 QCURVE SMOOTH",
"231 303 OFFCURVE",
"272 291 QCURVE",
"272 189 OFFCURVE",
"269 118 QCURVE",
"225 128 OFFCURVE",
"212 147 QCURVE SMOOTH",
"208 154 OFFCURVE",
"204 171 QCURVE SMOOTH",
"203 176 OFFCURVE",
"199 194 OFFCURVE",
"198 195 QCURVE",
"194 213 OFFCURVE",
"191 225 QCURVE SMOOTH",
"182 253 OFFCURVE",
"131 279 OFFCURVE",
"75 262 OFFCURVE",
"49 211 OFFCURVE",
"57 183 QCURVE",
"60 176 OFFCURVE",
"62 164 QCURVE SMOOTH",
"68 139 LINE SMOOTH",
"78 97 OFFCURVE",
"96 71 QCURVE SMOOTH",
"146 -5 OFFCURVE",
"262 -22 QCURVE",
"260 -37 LINE SMOOTH",
"258 -66 OFFCURVE",
"295 -110 OFFCURVE",
"353 -115 OFFCURVE",
"397 -78 OFFCURVE",
"400 -49 QCURVE SMOOTH",
"402 -17 LINE",
"403 -17 LINE SMOOTH",
"434 -11 OFFCURVE",
"494 12 OFFCURVE",
"555 53 OFFCURVE",
"598 104 OFFCURVE",
"618 178 OFFCURVE",
"611 220 QCURVE SMOOTH",
"595 302 OFFCURVE",
"514 352 QCURVE SMOOTH",
"474 376 OFFCURVE",
"411 396 QCURVE",
"411 488 OFFCURVE",
"412 537 QCURVE",
"431 524 OFFCURVE",
"442 508 QCURVE SMOOTH",
"444 505 OFFCURVE",
"447 495 QCURVE SMOOTH",
"458 457 OFFCURVE",
"458 455 QCURVE",
"458 455 LINE"
);
}
);
userData = {
assembly = "PUSHW[ ]\011/* 1 value pushed */
10 
CALL[ ]\011/* CallFunction */
PUSHW[ ]\011/* 4 values pushed */
27 5 18 14 
CALL[ ]\011/* CallFunction */
PUSHW[ ]\011/* 1 value pushed */
27 
SRP0[ ]\011/* SetRefPoint0 */
PUSHW[ ]\011/* 1 value pushed */
0 
MDRP[10000]\011/* MoveDirectRelPt */
PUSHW[ ]\011/* 1 value pushed */
27 
SRP0[ ]\011/* SetRefPoint0 */
PUSHW[ ]\011/* 1 value pushed */
2 
MDRP[10000]\011/* MoveDirectRelPt */
PUSHW[ ]\011/* 1 value pushed */
2 
MDAP[1]\011/* MoveDirectAbsPt */
PUSHW[ ]\011/* 1 value pushed */
27 
SRP0[ ]\011/* SetRefPoint0 */
PUSHW[ ]\011/* 1 value pushed */
25 
MDRP[10000]\011/* MoveDirectRelPt */
PUSHW[ ]\011/* 1 value pushed */
25 
MDAP[1]\011/* MoveDirectAbsPt */
PUSHW[ ]\011/* 1 value pushed */
18 
SRP0[ ]\011/* SetRefPoint0 */
PUSHW[ ]\011/* 1 value pushed */
66 
MDRP[10000]\011/* MoveDirectRelPt */
PUSHW[ ]\011/* 1 value pushed */
66 
MDAP[1]\011/* MoveDirectAbsPt */
PUSHW[ ]\011/* 1 value pushed */
18 
SRP0[ ]\011/* SetRefPoint0 */
PUSHW[ ]\011/* 1 value pushed */
68 
MDRP[10000]\011/* MoveDirectRelPt */
PUSHW[ ]\011/* 1 value pushed */
27 
SRP0[ ]\011/* SetRefPoint0 */
PUSHW[ ]\011/* 1 value pushed */
86 
MDRP[10000]\011/* MoveDirectRelPt */
PUSHW[ ]\011/* 1 value pushed */
86 
MDAP[1]\011/* MoveDirectAbsPt */
IUP[0]\011/* InterpolateUntPts */
IUP[1]\011/* InterpolateUntPts */";
};
width = 662;
}
);
note = dollar;
unicode = 0024;
},
{
glyphname = percent;
layers = (
{
layerId = "6CA69755-92A4-402C-9A09-056914DDCECE";
paths = (
{
closed = 1;
nodes = (
"250 577 OFFCURVE",
"254 578 QCURVE SMOOTH",
"262 580 LINE",
"274 577 OFFCURVE",
"277 572 QCURVE SMOOTH",
"281 563 OFFCURVE",
"279 545 QCURVE SMOOTH",
"275 522 OFFCURVE",
"249 487 OFFCURVE",
"237 483 QCURVE SMOOTH",
"219 477 OFFCURVE",
"204 498 QCURVE SMOOTH",
"186 523 OFFCURVE",
"198 544 QCURVE",
"208 551 LINE",
"226 563 LINE SMOOTH",
"237 570 OFFCURVE",
"244 575 QCURVE",
"244 575 LINE"
);
},
{
closed = 1;
nodes = (
"130 667 LINE SMOOTH",
"95 643 OFFCURVE",
"78 614 QCURVE SMOOTH",
"59 582 OFFCURVE",
"56 545 QCURVE SMOOTH",
"52 508 OFFCURVE",
"71 444 OFFCURVE",
"90 417 QCURVE SMOOTH",
"122 373 OFFCURVE",
"173 352 QCURVE SMOOTH",
"224 332 OFFCURVE",
"281 351 QCURVE SMOOTH",
"336 369 OFFCURVE",
"407 468 OFFCURVE",
"416 523 QCURVE SMOOTH",
"427 588 OFFCURVE",
"399 639 QCURVE SMOOTH",
"365 700 OFFCURVE",
"290 716 QCURVE SMOOTH",
"259 723 OFFCURVE",
"221 713 QCURVE SMOOTH",
"220 713 OFFCURVE",
"200 708 QCURVE SMOOTH",
"191 706 OFFCURVE",
"187 705 QCURVE SMOOTH",
"155 700 OFFCURVE",
"138 672 QCURVE",
"138 672 LINE"
);
},
{
closed = 1;
nodes = (
"740 202 LINE SMOOTH",
"752 198 OFFCURVE",
"755 195 QCURVE SMOOTH",
"765 184 OFFCURVE",
"753 166 QCURVE SMOOTH",
"743 152 OFFCURVE",
"717 136 OFFCURVE",
"709 136 QCURVE SMOOTH",
"691 136 OFFCURVE",
"663 165 OFFCURVE",
"665 206 OFFCURVE",
"685 220 QCURVE",
"685 220 LINE"
);
},
{
closed = 1;
nodes = (
"767 356 OFFCURVE",
"723 374 OFFCURVE",
"700 367 QCURVE SMOOTH",
"696 366 OFFCURVE",
"689 365 QCURVE SMOOTH",
"670 361 LINE SMOOTH",
"637 354 OFFCURVE",
"614 340 QCURVE SMOOTH",
"579 318 OFFCURVE",
"535 248 OFFCURVE",
"523 172 OFFCURVE",
"541 94 OFFCURVE",
"584 34 OFFCURVE",
"662 -4 OFFCURVE",
"711 -4 QCURVE SMOOTH",
"758 -3 OFFCURVE",
"800 24 QCURVE SMOOTH",
"843 50 OFFCURVE",
"869 89 QCURVE SMOOTH",
"888 117 OFFCURVE",
"896 149 QCURVE SMOOTH",
"903 181 OFFCURVE",
"887 257 OFFCURVE",
"859 289 QCURVE SMOOTH",
"832 319 OFFCURVE",
"783 334 QCURVE",
"779 336 LINE",
"779 336 LINE"
);
},
{
closed = 1;
nodes = (
"706 665 OFFCURVE",
"689 720 OFFCURVE",
"637 746 OFFCURVE",
"582 729 OFFCURVE",
"569 703 QCURVE SMOOTH",
"233 84 LINE SMOOTH",
"220 59 OFFCURVE",
"237 4 OFFCURVE",
"288 -23 OFFCURVE",
"343 -6 OFFCURVE",
"357 20 QCURVE SMOOTH",
"693 639 LINE",
"693 639 LINE"
);
}
);
userData = {
assembly = "PUSHW[ ]\011/* 1 value pushed */
10 
CALL[ ]\011/* CallFunction */
SVTCA[0]\011/* SetFreedomAndProjectionVectorToAxis */
PUSHW[ ]\011/* 1 value pushed */
1 
RCVT[ ]\011/* ReadCVT */
IF[ ]\011/* If */
PUSHW[ ]\011/* 1 value pushed */
69 
MDAP[1]\011/* MoveDirectAbsPt */
ELSE[ ]\011/* Else */
PUSHW[ ]\011/* 2 values pushed */
69 7 
MIAP[0]\011/* MoveIndirectAbsPt */
EIF[ ]\011/* EndIf */
PUSHW[ ]\011/* 2 values pushed */
49 2 
MIRP[10100]\011/* MoveIndirectRelPt */
NPUSHW[ ]\011/* 7 values pushed */
23 49 39 49 55 49 3 
DELTAP1[ ]\011/* DeltaExceptionP1 */
IUP[0]\011/* InterpolateUntPts */
IUP[1]\011/* InterpolateUntPts */";
};
width = 944;
}
);
note = percent;
unicode = 0025;
},
{
glyphname = ampersand;
layers = (
{
layerId = "6CA69755-92A4-402C-9A09-056914DDCECE";
paths = (
{
closed = 1;
nodes = (
"250 260 OFFCURVE",
"290 217 QCURVE SMOOTH",
"341 165 LINE",
"339 164 LINE",
"325 150 OFFCURVE",
"297 136 OFFCURVE",
"248 139 OFFCURVE",
"187 163 OFFCURVE",
"181 177 QCURVE",
"179 179 OFFCURVE",
"187 225 QCURVE SMOOTH",
"191 250 OFFCURVE",
"219 297 QCURVE",
"219 297 LINE"
);
},
{
closed = 1;
nodes = (
"537 213 OFFCURVE",
"560 263 QCURVE SMOOTH",
"571 290 OFFCURVE",
"551 346 OFFCURVE",
"497 370 OFFCURVE",
"442 349 OFFCURVE",
"430 321 QCURVE SMOOTH",
"416 292 LINE",
"393 317 LINE SMOOTH",
"346 367 OFFCURVE",
"320 401 QCURVE",
"345 420 OFFCURVE",
"361 435 QCURVE SMOOTH",
"405 473 OFFCURVE",
"429 504 QCURVE SMOOTH",
"470 561 OFFCURVE",
"461 615 QCURVE SMOOTH",
"454 655 OFFCURVE",
"402 704 OFFCURVE",
"370 715 QCURVE SMOOTH",
"313 735 OFFCURVE",
"249 717 QCURVE SMOOTH",
"178 698 OFFCURVE",
"140 640 QCURVE SMOOTH",
"95 573 OFFCURVE",
"115 481 QCURVE SMOOTH",
"120 454 OFFCURVE",
"134 424 QCURVE",
"60 327 OFFCURVE",
"47 248 QCURVE SMOOTH",
"45 237 LINE SMOOTH",
"43 225 OFFCURVE",
"40 210 OFFCURVE",
"38 180 OFFCURVE",
"40 156 OFFCURVE",
"47 126 OFFCURVE",
"53 113 QCURVE SMOOTH",
"84 50 OFFCURVE",
"164 17 QCURVE SMOOTH",
"326 -47 OFFCURVE",
"437 59 QCURVE SMOOTH",
"444 66 LINE",
"499 13 LINE SMOOTH",
"520 -8 OFFCURVE",
"578 -8 OFFCURVE",
"620 35 OFFCURVE",
"620 94 OFFCURVE",
"598 116 QCURVE SMOOTH",
"524 186 LINE",
"524 186 LINE"
);
},
{
closed = 1;
nodes = (
"293 566 OFFCURVE",
"269 544 QCURVE SMOOTH",
"251 529 LINE",
"250 548 OFFCURVE",
"257 560 QCURVE SMOOTH",
"266 573 OFFCURVE",
"287 578 QCURVE SMOOTH",
"298 581 OFFCURVE",
"308 581 QCURVE",
"308 581 LINE"
);
}
);
width = 663;
}
);
note = ampersand;
unicode = 0026;
},
{
glyphname = quotesingle;
layers = (
{
layerId = "6CA69755-92A4-402C-9A09-056914DDCECE";
paths = (
{
closed = 1;
nodes = (
"60 405 OFFCURVE",
"101 368 OFFCURVE",
"155 372 OFFCURVE",
"173 392 QCURVE SMOOTH",
"192 413 OFFCURVE",
"190 440 QCURVE SMOOTH",
"185 518 OFFCURVE",
"185 657 QCURVE SMOOTH",
"185 684 OFFCURVE",
"146 723 OFFCURVE",
"92 723 OFFCURVE",
"53 684 OFFCURVE",
"53 657 QCURVE SMOOTH",
"53 514 OFFCURVE",
"58 432 QCURVE",
"58 432 LINE"
);
}
);
userData = {
assembly = "PUSHW[ ]\011/* 1 value pushed */
10 
CALL[ ]\011/* CallFunction */
PUSHW[ ]\011/* 4 values pushed */
7 5 2 14 
CALL[ ]\011/* CallFunction */
PUSHW[ ]\011/* 1 value pushed */
2 
SRP0[ ]\011/* SetRefPoint0 */
PUSHW[ ]\011/* 1 value pushed */
0 
MDRP[10000]\011/* MoveDirectRelPt */
PUSHW[ ]\011/* 1 value pushed */
0 
MDAP[1]\011/* MoveDirectAbsPt */
NPUSHW[ ]\011/* 7 values pushed */
22 7 38 7 54 7 3 
DELTAP1[ ]\011/* DeltaExceptionP1 */
PUSHW[ ]\011/* 1 value pushed */
7 
SRP0[ ]\011/* SetRefPoint0 */
PUSHW[ ]\011/* 1 value pushed */
9 
MDRP[10000]\011/* MoveDirectRelPt */
PUSHW[ ]\011/* 1 value pushed */
9 
MDAP[1]\011/* MoveDirectAbsPt */
PUSHW[ ]\011/* 1 value pushed */
7 
SRP0[ ]\011/* SetRefPoint0 */
PUSHW[ ]\011/* 1 value pushed */
16 
MDRP[11100]\011/* MoveDirectRelPt */
IUP[0]\011/* InterpolateUntPts */
IUP[1]\011/* InterpolateUntPts */";
};
width = 224;
}
);
note = quotesingle;
unicode = 0027;
},
{
glyphname = parenleft;
layers = (
{
layerId = "6CA69755-92A4-402C-9A09-056914DDCECE";
paths = (
{
closed = 1;
nodes = (
"326 634 OFFCURVE",
"310 690 OFFCURVE",
"260 718 OFFCURVE",
"204 702 OFFCURVE",
"190 677 QCURVE SMOOTH",
"145 596 OFFCURVE",
"113 510 QCURVE SMOOTH",
"81 424 OFFCURVE",
"46 233 OFFCURVE",
"64 34 OFFCURVE",
"102 -55 QCURVE SMOOTH",
"113 -83 OFFCURVE",
"135 -119 QCURVE",
"138 -126 OFFCURVE",
"144 -136 QCURVE SMOOTH",
"156 -156 LINE",
"166 -173 LINE SMOOTH",
"180 -198 OFFCURVE",
"235 -214 OFFCURVE",
"286 -186 OFFCURVE",
"302 -131 OFFCURVE",
"288 -105 QCURVE SMOOTH",
"255 -49 LINE SMOOTH",
"238 -20 OFFCURVE",
"230 -1 QCURVE SMOOTH",
"201 68 OFFCURVE",
"187 227 OFFCURVE",
"215 385 OFFCURVE",
"243 461 QCURVE SMOOTH",
"270 533 OFFCURVE",
"312 609 QCURVE",
"312 609 LINE"
);
}
);
width = 359;
}
);
note = parenleft;
unicode = 0028;
},
{
glyphname = parenright;
layers = (
{
layerId = "6CA69755-92A4-402C-9A09-056914DDCECE";
paths = (
{
closed = 1;
nodes = (
"192 691 OFFCURVE",
"138 710 OFFCURVE",
"86 685 OFFCURVE",
"67 631 OFFCURVE",
"79 605 QCURVE SMOOTH",
"177 403 OFFCURVE",
"171 253 QCURVE SMOOTH",
"169 177 OFFCURVE",
"116 7 OFFCURVE",
"62 -104 QCURVE SMOOTH",
"50 -130 OFFCURVE",
"69 -184 OFFCURVE",
"121 -209 OFFCURVE",
"175 -190 OFFCURVE",
"188 -164 QCURVE SMOOTH",
"246 -44 OFFCURVE",
"307 153 OFFCURVE",
"311 248 QCURVE SMOOTH",
"314 346 OFFCURVE",
"262 547 OFFCURVE",
"205 665 QCURVE",
"205 665 LINE"
);
}
);
userData = {
assembly = "PUSHW[ ]\011/* 1 value pushed */
10 
CALL[ ]\011/* CallFunction */
PUSHW[ ]\011/* 4 values pushed */
3 5 14 14 
CALL[ ]\011/* CallFunction */
NPUSHW[ ]\011/* 7 values pushed */
25 14 41 14 57 14 3 
DELTAP1[ ]\011/* DeltaExceptionP1 */
PUSHW[ ]\011/* 1 value pushed */
3 
SRP0[ ]\011/* SetRefPoint0 */
PUSHW[ ]\011/* 1 value pushed */
22 
MDRP[11100]\011/* MoveDirectRelPt */
IUP[0]\011/* InterpolateUntPts */
IUP[1]\011/* InterpolateUntPts */";
};
width = 368;
}
);
note = parenright;
unicode = 0029;
},
{
glyphname = asterisk;
layers = (
{
layerId = "6CA69755-92A4-402C-9A09-056914DDCECE";
paths = (
{
closed = 1;
nodes = (
"308 376 LINE SMOOTH",
"330 357 OFFCURVE",
"387 360 OFFCURVE",
"426 403 OFFCURVE",
"423 460 OFFCURVE",
"402 480 QCURVE SMOOTH",
"367 510 LINE",
"395 519 OFFCURVE",
"421 570 OFFCURVE",
"404 626 OFFCURVE",
"353 652 OFFCURVE",
"325 644 QCURVE SMOOTH",
"311 639 LINE",
"311 655 LINE SMOOTH",
"310 684 OFFCURVE",
"269 724 OFFCURVE",
"211 723 OFFCURVE",
"171 682 OFFCURVE",
"171 653 QCURVE SMOOTH",
"172 622 LINE",
"145 631 LINE SMOOTH",
"118 641 OFFCURVE",
"65 617 OFFCURVE",
"46 563 OFFCURVE",
"70 510 OFFCURVE",
"97 501 QCURVE SMOOTH",
"135 487 LINE",
"114 461 LINE SMOOTH",
"96 439 OFFCURVE",
"98 410 QCURVE SMOOTH",
"101 381 OFFCURVE",
"146 345 OFFCURVE",
"204 350 OFFCURVE",
"222 373 QCURVE SMOOTH",
"260 419 LINE",
"260 419 LINE"
);
}
);
userData = {
assembly = "PUSHW[ ]\011/* 1 value pushed */
10 
CALL[ ]\011/* CallFunction */
PUSHW[ ]\011/* 4 values pushed */
21 5 16 14 
CALL[ ]\011/* CallFunction */
IUP[0]\011/* InterpolateUntPts */
IUP[1]\011/* InterpolateUntPts */";
};
width = 467;
}
);
note = asterisk;
unicode = 002A;
},
{
glyphname = plus;
layers = (
{
layerId = "6CA69755-92A4-402C-9A09-056914DDCECE";
paths = (
{
closed = 1;
nodes = (
"373 463 OFFCURVE",
"333 504 OFFCURVE",
"275 505 OFFCURVE",
"234 465 OFFCURVE",
"233 436 QCURVE SMOOTH",
"233 334 LINE",
"120 332 LINE SMOOTH",
"91 331 OFFCURVE",
"51 289 OFFCURVE",
"53 231 OFFCURVE",
"95 191 OFFCURVE",
"124 192 QCURVE SMOOTH",
"186 194 OFFCURVE",
"234 195 QCURVE",
"234 77 LINE SMOOTH",
"234 48 OFFCURVE",
"275 7 OFFCURVE",
"333 7 OFFCURVE",
"374 48 OFFCURVE",
"374 77 QCURVE SMOOTH",
"374 121 OFFCURVE",
"373 195 QCURVE",
"431 194 OFFCURVE",
"498 192 QCURVE SMOOTH",
"527 192 OFFCURVE",
"569 231 OFFCURVE",
"570 289 OFFCURVE",
"531 331 OFFCURVE",
"502 332 QCURVE SMOOTH",
"372 334 LINE",
"372 389 OFFCURVE",
"373 434 QCURVE",
"373 434 LINE"
);
}
);
userData = {
assembly = "PUSHW[ ]\011/* 1 value pushed */
10 
CALL[ ]\011/* CallFunction */
PUSHW[ ]\011/* 4 values pushed */
12 5 26 14 
CALL[ ]\011/* CallFunction */
PUSHW[ ]\011/* 1 value pushed */
12 
SRP0[ ]\011/* SetRefPoint0 */
PUSHW[ ]\011/* 1 value pushed */
0 
MDRP[10000]\011/* MoveDirectRelPt */
PUSHW[ ]\011/* 1 value pushed */
0 
MDAP[1]\011/* MoveDirectAbsPt */
PUSHW[ ]\011/* 1 value pushed */
12 
SRP0[ ]\011/* SetRefPoint0 */
PUSHW[ ]\011/* 1 value pushed */
2 
MDRP[10000]\011/* MoveDirectRelPt */
PUSHW[ ]\011/* 1 value pushed */
2 
MDAP[1]\011/* MoveDirectAbsPt */
PUSHW[ ]\011/* 1 value pushed */
12 
SRP0[ ]\011/* SetRefPoint0 */
PUSHW[ ]\011/* 1 value pushed */
10 
MDRP[10000]\011/* MoveDirectRelPt */
PUSHW[ ]\011/* 1 value pushed */
10 
MDAP[1]\011/* MoveDirectAbsPt */
PUSHW[ ]\011/* 1 value pushed */
26 
SRP0[ ]\011/* SetRefPoint0 */
PUSHW[ ]\011/* 1 value pushed */
17 
MDRP[10000]\011/* MoveDirectRelPt */
PUSHW[ ]\011/* 1 value pushed */
17 
MDAP[1]\011/* MoveDirectAbsPt */
SVTCA[0]\011/* SetFreedomAndProjectionVectorToAxis */
PUSHW[ ]\011/* 4 values pushed */
3 2 8 14 
CALL[ ]\011/* CallFunction */
PUSHW[ ]\011/* 1 value pushed */
8 
SRP0[ ]\011/* SetRefPoint0 */
PUSHW[ ]\011/* 1 value pushed */
10 
MDRP[10000]\011/* MoveDirectRelPt */
PUSHW[ ]\011/* 1 value pushed */
10 
MDAP[1]\011/* MoveDirectAbsPt */
PUSHW[ ]\011/* 1 value pushed */
8 
SRP0[ ]\011/* SetRefPoint0 */
PUSHW[ ]\011/* 1 value pushed */
18 
MDRP[10000]\011/* MoveDirectRelPt */
PUSHW[ ]\011/* 1 value pushed */
18 
MDAP[1]\011/* MoveDirectAbsPt */
PUSHW[ ]\011/* 1 value pushed */
8 
SRP0[ ]\011/* SetRefPoint0 */
PUSHW[ ]\011/* 1 value pushed */
20 
MDRP[10000]\011/* MoveDirectRelPt */
PUSHW[ ]\011/* 1 value pushed */
3 
SRP0[ ]\011/* SetRefPoint0 */
PUSHW[ ]\011/* 1 value pushed */
25 
MDRP[10000]\011/* MoveDirectRelPt */
IUP[0]\011/* InterpolateUntPts */
IUP[1]\011/* InterpolateUntPts */";
};
width = 641;
}
);
note = plus;
unicode = 002B;
},
{
glyphname = comma;
layers = (
{
layerId = "6CA69755-92A4-402C-9A09-056914DDCECE";
paths = (
{
closed = 1;
nodes = (
"277 17 OFFCURVE",
"253 66 OFFCURVE",
"201 83 OFFCURVE",
"152 59 OFFCURVE",
"143 33 QCURVE SMOOTH",
"133 -1 LINE SMOOTH",
"127 -18 OFFCURVE",
"126 -20 QCURVE SMOOTH",
"121 -32 LINE SMOOTH",
"118 -41 OFFCURVE",
"114 -47 OFFCURVE",
"106 -64 QCURVE SMOOTH",
"88 -102 LINE SMOOTH",
"77 -126 OFFCURVE",
"95 -178 OFFCURVE",
"144 -201 OFFCURVE",
"196 -183 OFFCURVE",
"208 -158 QCURVE SMOOTH",
"224 -125 LINE SMOOTH",
"232 -109 OFFCURVE",
"238 -95 OFFCURVE",
"244 -83 OFFCURVE",
"249 -69 OFFCURVE",
"251 -64 QCURVE SMOOTH",
"257 -42 LINE SMOOTH",
"263 -24 OFFCURVE",
"269 -9 QCURVE",
"269 -9 LINE"
);
}
);
width = 278;
}
);
note = comma;
unicode = 002C;
},
{
glyphname = hyphen;
layers = (
{
layerId = "6CA69755-92A4-402C-9A09-056914DDCECE";
paths = (
{
closed = 1;
nodes = (
"91 340 OFFCURVE",
"50 299 OFFCURVE",
"50 241 OFFCURVE",
"91 200 OFFCURVE",
"120 200 QCURVE SMOOTH",
"287 200 LINE SMOOTH",
"316 200 OFFCURVE",
"357 241 OFFCURVE",
"357 299 OFFCURVE",
"316 340 OFFCURVE",
"287 340 QCURVE SMOOTH",
"120 340 LINE",
"120 340 LINE"
);
}
);
userData = {
assembly = "PUSHW[ ]\011/* 1 value pushed */
10 
CALL[ ]\011/* CallFunction */
SVTCA[0]\011/* SetFreedomAndProjectionVectorToAxis */
PUSHW[ ]\011/* 4 values pushed */
1 2 6 14 
CALL[ ]\011/* CallFunction */
IUP[0]\011/* InterpolateUntPts */
IUP[1]\011/* InterpolateUntPts */";
};
width = 407;
}
);
note = hyphen;
unicode = 002D;
},
{
glyphname = period;
layers = (
{
layerId = "6CA69755-92A4-402C-9A09-056914DDCECE";
paths = (
{
closed = 1;
nodes = (
"149 141 OFFCURVE",
"91 141 OFFCURVE",
"50 100 OFFCURVE",
"50 42 OFFCURVE",
"91 1 OFFCURVE",
"149 1 OFFCURVE",
"190 42 OFFCURVE",
"190 100 OFFCURVE",
"169 120 QCURVE",
"169 120 LINE"
);
}
);
width = 240;
}
);
note = period;
unicode = 002E;
},
{
glyphname = slash;
layers = (
{
layerId = "6CA69755-92A4-402C-9A09-056914DDCECE";
paths = (
{
closed = 1;
nodes = (
"412 668 OFFCURVE",
"381 717 OFFCURVE",
"325 731 OFFCURVE",
"276 700 OFFCURVE",
"269 672 QCURVE",
"57 86 LINE",
"49 58 OFFCURVE",
"77 8 OFFCURVE",
"133 -8 OFFCURVE",
"183 20 OFFCURVE",
"191 48 QCURVE",
"405 640 LINE",
"405 640 LINE"
);
}
);
width = 429;
}
);
note = slash;
unicode = 002F;
},
{
glyphname = zero;
layers = (
{
layerId = "6CA69755-92A4-402C-9A09-056914DDCECE";
paths = (
{
closed = 1;
nodes = (
"301 568 OFFCURVE",
"320 564 QCURVE",
"324 564 OFFCURVE",
"338 562 OFFCURVE",
"350 560 OFFCURVE",
"355 560 QCURVE",
"384 555 OFFCURVE",
"397 548 QCURVE SMOOTH",
"401 546 OFFCURVE",
"412 529 OFFCURVE",
"427 490 OFFCURVE",
"432 464 QCURVE SMOOTH",
"445 399 OFFCURVE",
"444 325 QCURVE SMOOTH",
"443 243 OFFCURVE",
"408 187 QCURVE SMOOTH",
"374 138 OFFCURVE",
"320 144 QCURVE SMOOTH",
"271 150 OFFCURVE",
"209 240 OFFCURVE",
"201 316 QCURVE SMOOTH",
"195 393 OFFCURVE",
"239 533 OFFCURVE",
"275 565 QCURVE SMOOTH",
"278 568 OFFCURVE",
"285 572 QCURVE",
"285 572 LINE"
);
},
{
closed = 1;
nodes = (
"336 727 OFFCURVE",
"292 736 OFFCURVE",
"270 725 QCURVE SMOOTH",
"263 721 OFFCURVE",
"239 711 OFFCURVE",
"237 711 QCURVE",
"203 696 OFFCURVE",
"183 679 QCURVE SMOOTH",
"114 617 OFFCURVE",
"82 513 QCURVE SMOOTH",
"50 408 OFFCURVE",
"59 302 QCURVE SMOOTH",
"64 250 OFFCURVE",
"97 152 OFFCURVE",
"153 64 OFFCURVE",
"245 5 OFFCURVE",
"304 -3 QCURVE SMOOTH",
"376 -12 OFFCURVE",
"432 19 QCURVE SMOOTH",
"489 48 OFFCURVE",
"525 103 QCURVE SMOOTH",
"586 196 OFFCURVE",
"588 323 QCURVE SMOOTH",
"589 414 OFFCURVE",
"572 495 QCURVE SMOOTH",
"544 633 OFFCURVE",
"467 678 QCURVE SMOOTH",
"431 697 OFFCURVE",
"376 707 QCURVE SMOOTH",
"369 708 OFFCURVE",
"353 710 QCURVE",
"353 710 LINE"
);
}
);
userData = {
assembly = "PUSHW[ ]\011/* 1 value pushed */
10 
CALL[ ]\011/* CallFunction */
PUSHW[ ]\011/* 4 values pushed */
12 5 5 14 
CALL[ ]\011/* CallFunction */
NPUSHW[ ]\011/* 7 values pushed */
25 5 41 5 57 5 3 
DELTAP1[ ]\011/* DeltaExceptionP1 */
PUSHW[ ]\011/* 1 value pushed */
12 
SRP0[ ]\011/* SetRefPoint0 */
PUSHW[ ]\011/* 2 values pushed */
34 5 
MIRP[10100]\011/* MoveIndirectRelPt */
IUP[0]\011/* InterpolateUntPts */
IUP[1]\011/* InterpolateUntPts */";
};
width = 639;
}
);
note = zero;
unicode = 0030;
},
{
glyphname = one;
layers = (
{
layerId = "6CA69755-92A4-402C-9A09-056914DDCECE";
paths = (
{
closed = 1;
nodes = (
"216 164 OFFCURVE",
"213 68 QCURVE SMOOTH",
"212 39 OFFCURVE",
"252 -3 OFFCURVE",
"310 -5 OFFCURVE",
"352 35 OFFCURVE",
"353 64 QCURVE SMOOTH",
"355 131 OFFCURVE",
"353 491 QCURVE SMOOTH",
"352 565 OFFCURVE",
"351 604 QCURVE SMOOTH",
"351 631 OFFCURVE",
"350 646 QCURVE SMOOTH",
"349 655 OFFCURVE",
"347 669 OFFCURVE",
"346 674 QCURVE SMOOTH",
"343 683 OFFCURVE",
"339 691 QCURVE SMOOTH",
"320 723 OFFCURVE",
"283 726 QCURVE SMOOTH",
"236 729 OFFCURVE",
"207 691 QCURVE SMOOTH",
"195 675 OFFCURVE",
"188 649 QCURVE",
"188 631 OFFCURVE",
"182 625 QCURVE",
"167 604 LINE SMOOTH",
"161 596 OFFCURVE",
"143 581 OFFCURVE",
"133 574 OFFCURVE",
"116 563 QCURVE SMOOTH",
"85 543 LINE SMOOTH",
"61 527 OFFCURVE",
"50 470 OFFCURVE",
"82 422 OFFCURVE",
"139 411 OFFCURVE",
"163 427 QCURVE SMOOTH",
"213 460 LINE",
"213 460 LINE"
);
}
);
userData = {
assembly = "PUSHW[ ]\011/* 1 value pushed */
10 
CALL[ ]\011/* CallFunction */
PUSHW[ ]\011/* 4 values pushed */
29 5 0 14 
CALL[ ]\011/* CallFunction */
PUSHW[ ]\011/* 1 value pushed */
29 
SRP0[ ]\011/* SetRefPoint0 */
PUSHW[ ]\011/* 1 value pushed */
25 
MDRP[10000]\011/* MoveDirectRelPt */
PUSHW[ ]\011/* 1 value pushed */
25 
MDAP[1]\011/* MoveDirectAbsPt */
PUSHW[ ]\011/* 1 value pushed */
29 
SRP0[ ]\011/* SetRefPoint0 */
PUSHW[ ]\011/* 1 value pushed */
27 
MDRP[10000]\011/* MoveDirectRelPt */
PUSHW[ ]\011/* 1 value pushed */
27 
MDAP[1]\011/* MoveDirectAbsPt */
PUSHW[ ]\011/* 1 value pushed */
29 
SRP0[ ]\011/* SetRefPoint0 */
PUSHW[ ]\011/* 1 value pushed */
31 
MDRP[10000]\011/* MoveDirectRelPt */
PUSHW[ ]\011/* 1 value pushed */
0 
SRP0[ ]\011/* SetRefPoint0 */
PUSHW[ ]\011/* 1 value pushed */
36 
MDRP[10000]\011/* MoveDirectRelPt */
PUSHW[ ]\011/* 1 value pushed */
29 
SRP0[ ]\011/* SetRefPoint0 */
PUSHW[ ]\011/* 1 value pushed */
39 
MDRP[11100]\011/* MoveDirectRelPt */
IUP[0]\011/* InterpolateUntPts */
IUP[1]\011/* InterpolateUntPts */";
};
width = 405;
}
);
note = one;
unicode = 0031;
},
{
glyphname = two;
layers = (
{
layerId = "6CA69755-92A4-402C-9A09-056914DDCECE";
paths = (
{
closed = 1;
nodes = (
"68 483 OFFCURVE",
"99 433 OFFCURVE",
"155 418 OFFCURVE",
"204 449 OFFCURVE",
"212 477 QCURVE SMOOTH",
"217 503 LINE",
"217 506 OFFCURVE",
"218 513 OFFCURVE",
"219 519 OFFCURVE",
"220 522 QCURVE SMOOTH",
"223 534 OFFCURVE",
"225 538 QCURVE SMOOTH",
"238 560 OFFCURVE",
"285 586 OFFCURVE",
"310 586 QCURVE SMOOTH",
"357 586 OFFCURVE",
"367 539 QCURVE SMOOTH",
"371 520 OFFCURVE",
"364 505 QCURVE SMOOTH",
"355 486 OFFCURVE",
"104 213 OFFCURVE",
"85 182 QCURVE SMOOTH",
"53 126 OFFCURVE",
"72 77 QCURVE SMOOTH",
"92 22 OFFCURVE",
"162 4 QCURVE SMOOTH",
"209 -8 OFFCURVE",
"291 -5 QCURVE SMOOTH",
"346 -3 OFFCURVE",
"374 -3 QCURVE SMOOTH",
"395 -3 OFFCURVE",
"444 -4 OFFCURVE",
"504 -5 OFFCURVE",
"521 -6 QCURVE SMOOTH",
"549 -6 OFFCURVE",
"591 34 OFFCURVE",
"592 93 OFFCURVE",
"552 135 OFFCURVE",
"523 136 QCURVE SMOOTH",
"375 139 OFFCURVE",
"374 139 QCURVE SMOOTH",
"344 139 OFFCURVE",
"285 137 QCURVE SMOOTH",
"252 135 OFFCURVE",
"228 137 QCURVE",
"234 146 OFFCURVE",
"242 154 QCURVE SMOOTH",
"273 183 LINE",
"469 399 OFFCURVE",
"491 443 QCURVE SMOOTH",
"519 504 OFFCURVE",
"504 572 QCURVE SMOOTH",
"487 647 OFFCURVE",
"379 728 OFFCURVE",
"311 729 QCURVE SMOOTH",
"250 729 OFFCURVE",
"136 666 OFFCURVE",
"104 610 QCURVE SMOOTH",
"88 585 OFFCURVE",
"82 548 QCURVE SMOOTH",
"82 547 OFFCURVE",
"78 526 QCURVE SMOOTH",
"77 517 OFFCURVE",
"75 512 QCURVE",
"75 512 LINE"
);
}
);
userData = {
assembly = "PUSHW[ ]\011/* 1 value pushed */
10 
CALL[ ]\011/* CallFunction */
SVTCA[0]\011/* SetFreedomAndProjectionVectorToAxis */
PUSHW[ ]\011/* 1 value pushed */
1 
RCVT[ ]\011/* ReadCVT */
IF[ ]\011/* If */
PUSHW[ ]\011/* 1 value pushed */
9 
MDAP[1]\011/* MoveDirectAbsPt */
ELSE[ ]\011/* Else */
PUSHW[ ]\011/* 2 values pushed */
9 13 
MIAP[0]\011/* MoveIndirectAbsPt */
EIF[ ]\011/* EndIf */
PUSHW[ ]\011/* 1 value pushed */
1 
RCVT[ ]\011/* ReadCVT */
IF[ ]\011/* If */
PUSHW[ ]\011/* 1 value pushed */
30 
MDAP[1]\011/* MoveDirectAbsPt */
ELSE[ ]\011/* Else */
PUSHW[ ]\011/* 2 values pushed */
30 7 
MIAP[0]\011/* MoveIndirectAbsPt */
EIF[ ]\011/* EndIf */
PUSHW[ ]\011/* 1 value pushed */
1 
RCVT[ ]\011/* ReadCVT */
IF[ ]\011/* If */
PUSHW[ ]\011/* 1 value pushed */
34 
MDAP[1]\011/* MoveDirectAbsPt */
ELSE[ ]\011/* Else */
PUSHW[ ]\011/* 2 values pushed */
34 7 
MIAP[0]\011/* MoveIndirectAbsPt */
EIF[ ]\011/* EndIf */
PUSHW[ ]\011/* 1 value pushed */
1 
RCVT[ ]\011/* ReadCVT */
IF[ ]\011/* If */
PUSHW[ ]\011/* 1 value pushed */
36 
MDAP[1]\011/* MoveDirectAbsPt */
ELSE[ ]\011/* Else */
PUSHW[ ]\011/* 2 values pushed */
36 7 
MIAP[0]\011/* MoveIndirectAbsPt */
EIF[ ]\011/* EndIf */
PUSHW[ ]\011/* 1 value pushed */
1 
RCVT[ ]\011/* ReadCVT */
IF[ ]\011/* If */
PUSHW[ ]\011/* 1 value pushed */
38 
MDAP[1]\011/* MoveDirectAbsPt */
ELSE[ ]\011/* Else */
PUSHW[ ]\011/* 2 values pushed */
38 7 
MIAP[0]\011/* MoveIndirectAbsPt */
EIF[ ]\011/* EndIf */
PUSHW[ ]\011/* 1 value pushed */
36 
SRP0[ ]\011/* SetRefPoint0 */
PUSHW[ ]\011/* 2 values pushed */
19 2 
MIRP[10100]\011/* MoveIndirectRelPt */
NPUSHW[ ]\011/* 7 values pushed */
23 19 39 19 55 19 3 
DELTAP1[ ]\011/* DeltaExceptionP1 */
PUSHW[ ]\011/* 1 value pushed */
21 
MDRP[10000]\011/* MoveDirectRelPt */
PUSHW[ ]\011/* 1 value pushed */
21 
MDAP[1]\011/* MoveDirectAbsPt */
PUSHW[ ]\011/* 1 value pushed */
23 
MDRP[10000]\011/* MoveDirectRelPt */
PUSHW[ ]\011/* 1 value pushed */
23 
MDAP[1]\011/* MoveDirectAbsPt */
PUSHW[ ]\011/* 1 value pushed */
25 
MDRP[10000]\011/* MoveDirectRelPt */
PUSHW[ ]\011/* 1 value pushed */
9 
SRP0[ ]\011/* SetRefPoint0 */
PUSHW[ ]\011/* 2 values pushed */
49 2 
MIRP[10100]\011/* MoveIndirectRelPt */
NPUSHW[ ]\011/* 7 values pushed */
24 49 40 49 56 49 3 
DELTAP1[ ]\011/* DeltaExceptionP1 */
IUP[0]\011/* InterpolateUntPts */
IUP[1]\011/* InterpolateUntPts */";
};
width = 636;
}
);
note = two;
unicode = 0032;
},
{
glyphname = three;
layers = (
{
layerId = "6CA69755-92A4-402C-9A09-056914DDCECE";
paths = (
{
closed = 1;
nodes = (
"48 596 OFFCURVE",
"55 541 OFFCURVE",
"97 507 OFFCURVE",
"152 514 OFFCURVE",
"169 535 QCURVE SMOOTH",
"174 542 OFFCURVE",
"182 554 QCURVE SMOOTH",
"191 568 LINE",
"197 575 LINE",
"240 601 OFFCURVE",
"320 588 OFFCURVE",
"349 557 QCURVE SMOOTH",
"372 532 OFFCURVE",
"371 509 QCURVE SMOOTH",
"369 489 OFFCURVE",
"339 472 QCURVE SMOOTH",
"334 469 OFFCURVE",
"324 466 OFFCURVE",
"317 465 OFFCURVE",
"301 462 OFFCURVE",
"294 460 QCURVE",
"289 461 OFFCURVE",
"285 462 QCURVE SMOOTH",
"258 465 OFFCURVE",
"215 431 OFFCURVE",
"211 404 QCURVE SMOOTH",
"209 385 OFFCURVE",
"226 350 OFFCURVE",
"242 340 QCURVE",
"267 318 OFFCURVE",
"299 326 QCURVE",
"414 302 OFFCURVE",
"419 226 QCURVE SMOOTH",
"421 191 OFFCURVE",
"415 180 QCURVE SMOOTH",
"405 162 OFFCURVE",
"353 134 OFFCURVE",
"282 126 OFFCURVE",
"225 142 OFFCURVE",
"211 156 QCURVE SMOOTH",
"207 160 OFFCURVE",
"202 173 QCURVE SMOOTH",
"194 192 LINE SMOOTH",
"188 206 OFFCURVE",
"183 216 QCURVE SMOOTH",
"170 241 OFFCURVE",
"118 257 OFFCURVE",
"69 232 OFFCURVE",
"53 180 OFFCURVE",
"65 156 QCURVE SMOOTH",
"68 151 OFFCURVE",
"72 141 QCURVE SMOOTH",
"81 120 LINE SMOOTH",
"96 86 OFFCURVE",
"115 66 QCURVE SMOOTH",
"155 24 OFFCURVE",
"272 -8 OFFCURVE",
"392 6 OFFCURVE",
"500 63 OFFCURVE",
"529 114 QCURVE SMOOTH",
"556 160 OFFCURVE",
"551 234 QCURVE SMOOTH",
"544 339 OFFCURVE",
"459 400 QCURVE",
"499 443 OFFCURVE",
"502 500 QCURVE SMOOTH",
"508 580 OFFCURVE",
"446 647 QCURVE SMOOTH",
"409 687 OFFCURVE",
"307 731 OFFCURVE",
"180 723 OFFCURVE",
"123 685 QCURVE SMOOTH",
"101 670 OFFCURVE",
"82 642 QCURVE SMOOTH",
"72 626 LINE SMOOTH",
"68 620 OFFCURVE",
"65 617 QCURVE",
"65 617 LINE"
);
}
);
userData = {
assembly = "PUSHW[ ]\011/* 1 value pushed */
10 
CALL[ ]\011/* CallFunction */
PUSHW[ ]\011/* 4 values pushed */
15 5 44 14 
CALL[ ]\011/* CallFunction */
NPUSHW[ ]\011/* 7 values pushed */
25 44 41 44 57 44 3 
DELTAP1[ ]\011/* DeltaExceptionP1 */
PUSHW[ ]\011/* 1 value pushed */
15 
SRP0[ ]\011/* SetRefPoint0 */
PUSHW[ ]\011/* 1 value pushed */
78 
MDRP[11100]\011/* MoveDirectRelPt */
IUP[0]\011/* InterpolateUntPts */
IUP[1]\011/* InterpolateUntPts */";
};
width = 610;
}
);
note = three;
unicode = 0033;
},
{
glyphname = four;
layers = (
{
layerId = "6CA69755-92A4-402C-9A09-056914DDCECE";
paths = (
{
closed = 1;
nodes = (
"313 317 LINE SMOOTH",
"272 318 OFFCURVE",
"241 321 QCURVE",
"315 423 LINE",
"316 373 OFFCURVE",
"316 317 QCURVE",
"316 317 LINE"
);
},
{
closed = 1;
nodes = (
"300 667 OFFCURVE",
"297 663 QCURVE",
"232 539 OFFCURVE",
"125 398 QCURVE",
"123 397 OFFCURVE",
"120 394 OFFCURVE",
"117 392 OFFCURVE",
"112 388 QCURVE SMOOTH",
"98 376 LINE SMOOTH",
"50 331 OFFCURVE",
"58 277 QCURVE SMOOTH",
"65 231 OFFCURVE",
"114 207 QCURVE SMOOTH",
"138 195 OFFCURVE",
"174 189 QCURVE SMOOTH",
"225 179 OFFCURVE",
"311 178 QCURVE SMOOTH",
"315 178 LINE",
"315 147 OFFCURVE",
"314 70 QCURVE SMOOTH",
"314 41 OFFCURVE",
"354 0 OFFCURVE",
"412 -1 OFFCURVE",
"453 39 OFFCURVE",
"454 68 QCURVE SMOOTH",
"455 146 OFFCURVE",
"455 180 QCURVE",
"525 182 OFFCURVE",
"527 182 QCURVE SMOOTH",
"556 182 OFFCURVE",
"597 223 OFFCURVE",
"597 281 OFFCURVE",
"556 322 OFFCURVE",
"527 322 QCURVE SMOOTH",
"525 322 OFFCURVE",
"456 319 QCURVE",
"455 509 OFFCURVE",
"440 664 QCURVE SMOOTH",
"438 693 OFFCURVE",
"393 730 OFFCURVE",
"365 727 QCURVE SMOOTH",
"341 725 OFFCURVE",
"307 694 OFFCURVE",
"302 671 QCURVE",
"302 671 LINE"
);
}
);
userData = {
assembly = "PUSHW[ ]\011/* 1 value pushed */
10 
CALL[ ]\011/* CallFunction */
PUSHW[ ]\011/* 4 values pushed */
14 5 30 14 
CALL[ ]\011/* CallFunction */
NPUSHW[ ]\011/* 7 values pushed */
25 30 41 30 57 30 3 
DELTAP1[ ]\011/* DeltaExceptionP1 */
PUSHW[ ]\011/* 1 value pushed */
30 
SRP0[ ]\011/* SetRefPoint0 */
PUSHW[ ]\011/* 1 value pushed */
0 
MDRP[10000]\011/* MoveDirectRelPt */
PUSHW[ ]\011/* 1 value pushed */
0 
MDAP[1]\011/* MoveDirectAbsPt */
PUSHW[ ]\011/* 1 value pushed */
30 
SRP0[ ]\011/* SetRefPoint0 */
PUSHW[ ]\011/* 1 value pushed */
2 
MDRP[10000]\011/* MoveDirectRelPt */
PUSHW[ ]\011/* 1 value pushed */
2 
MDAP[1]\011/* MoveDirectAbsPt */
PUSHW[ ]\011/* 1 value pushed */
14 
SRP0[ ]\011/* SetRefPoint0 */
PUSHW[ ]\011/* 1 value pushed */
23 
MDRP[10000]\011/* MoveDirectRelPt */
PUSHW[ ]\011/* 1 value pushed */
23 
MDAP[1]\011/* MoveDirectAbsPt */
PUSHW[ ]\011/* 1 value pushed */
14 
SRP0[ ]\011/* SetRefPoint0 */
PUSHW[ ]\011/* 1 value pushed */
25 
MDRP[10000]\011/* MoveDirectRelPt */
PUSHW[ ]\011/* 1 value pushed */
25 
MDAP[1]\011/* MoveDirectAbsPt */
PUSHW[ ]\011/* 1 value pushed */
30 
SRP0[ ]\011/* SetRefPoint0 */
PUSHW[ ]\011/* 1 value pushed */
32 
MDRP[10000]\011/* MoveDirectRelPt */
PUSHW[ ]\011/* 1 value pushed */
32 
MDAP[1]\011/* MoveDirectAbsPt */
SVTCA[0]\011/* SetFreedomAndProjectionVectorToAxis */
PUSHW[ ]\011/* 4 values pushed */
14 2 32 14 
CALL[ ]\011/* CallFunction */
PUSHW[ ]\011/* 1 value pushed */
14 
SRP0[ ]\011/* SetRefPoint0 */
PUSHW[ ]\011/* 1 value pushed */
3 
MDRP[10000]\011/* MoveDirectRelPt */
PUSHW[ ]\011/* 1 value pushed */
3 
MDAP[1]\011/* MoveDirectAbsPt */
PUSHW[ ]\011/* 1 value pushed */
14 
SRP0[ ]\011/* SetRefPoint0 */
PUSHW[ ]\011/* 1 value pushed */
5 
MDRP[10000]\011/* MoveDirectRelPt */
PUSHW[ ]\011/* 1 value pushed */
5 
MDAP[1]\011/* MoveDirectAbsPt */
PUSHW[ ]\011/* 1 value pushed */
14 
SRP0[ ]\011/* SetRefPoint0 */
PUSHW[ ]\011/* 1 value pushed */
16 
MDRP[10000]\011/* MoveDirectRelPt */
PUSHW[ ]\011/* 1 value pushed */
16 
MDAP[1]\011/* MoveDirectAbsPt */
PUSHW[ ]\011/* 1 value pushed */
32 
SRP0[ ]\011/* SetRefPoint0 */
PUSHW[ ]\011/* 1 value pushed */
21 
MDRP[10000]\011/* MoveDirectRelPt */
PUSHW[ ]\011/* 1 value pushed */
21 
MDAP[1]\011/* MoveDirectAbsPt */
PUSHW[ ]\011/* 1 value pushed */
32 
SRP0[ ]\011/* SetRefPoint0 */
PUSHW[ ]\011/* 1 value pushed */
23 
MDRP[10000]\011/* MoveDirectRelPt */
PUSHW[ ]\011/* 1 value pushed */
23 
MDAP[1]\011/* MoveDirectAbsPt */
IUP[0]\011/* InterpolateUntPts */
IUP[1]\011/* InterpolateUntPts */";
};
width = 661;
}
);
note = four;
unicode = 0034;
},
{
glyphname = five;
layers = (
{
layerId = "6CA69755-92A4-402C-9A09-056914DDCECE";
paths = (
{
closed = 1;
nodes = (
"77 365 OFFCURVE",
"112 321 OFFCURVE",
"140 317 QCURVE SMOOTH",
"153 316 OFFCURVE",
"165 319 QCURVE",
"179 320 OFFCURVE",
"191 326 QCURVE SMOOTH",
"193 327 OFFCURVE",
"227 347 QCURVE SMOOTH",
"237 353 OFFCURVE",
"241 353 QCURVE",
"284 362 OFFCURVE",
"373 318 OFFCURVE",
"397 277 QCURVE SMOOTH",
"418 242 OFFCURVE",
"410 211 QCURVE SMOOTH",
"401 175 OFFCURVE",
"350 148 QCURVE SMOOTH",
"327 136 OFFCURVE",
"306 135 QCURVE SMOOTH",
"256 133 OFFCURVE",
"232 142 QCURVE SMOOTH",
"223 145 OFFCURVE",
"206 153 OFFCURVE",
"188 162 QCURVE SMOOTH",
"154 181 LINE SMOOTH",
"129 193 OFFCURVE",
"75 176 OFFCURVE",
"50 126 OFFCURVE",
"67 72 OFFCURVE",
"92 59 QCURVE SMOOTH",
"122 44 LINE",
"158 26 LINE SMOOTH",
"173 18 OFFCURVE",
"186 13 QCURVE SMOOTH",
"235 -4 OFFCURVE",
"312 -1 QCURVE SMOOTH",
"363 1 OFFCURVE",
"414 28 QCURVE SMOOTH",
"518 83 OFFCURVE",
"542 177 QCURVE SMOOTH",
"563 262 OFFCURVE",
"514 346 QCURVE SMOOTH",
"472 417 OFFCURVE",
"315 502 OFFCURVE",
"228 489 QCURVE",
"229 498 OFFCURVE",
"237 578 QCURVE",
"467 578 LINE SMOOTH",
"496 578 OFFCURVE",
"537 619 OFFCURVE",
"537 677 OFFCURVE",
"496 718 OFFCURVE",
"467 718 QCURVE SMOOTH",
"282 718 OFFCURVE",
"184 717 QCURVE SMOOTH",
"161 717 OFFCURVE",
"125 690 OFFCURVE",
"119 668 QCURVE",
"111 656 OFFCURVE",
"109 642 QCURVE SMOOTH",
"94 505 OFFCURVE",
"80 393 QCURVE",
"80 393 LINE"
);
}
);
userData = {
assembly = "PUSHW[ ]\011/* 1 value pushed */
10 
CALL[ ]\011/* CallFunction */
SVTCA[0]\011/* SetFreedomAndProjectionVectorToAxis */
PUSHW[ ]\011/* 1 value pushed */
7 
MDAP[1]\011/* MoveDirectAbsPt */
PUSHW[ ]\011/* 1 value pushed */
9 
MDAP[1]\011/* MoveDirectAbsPt */
PUSHW[ ]\011/* 1 value pushed */
1 
RCVT[ ]\011/* ReadCVT */
IF[ ]\011/* If */
PUSHW[ ]\011/* 1 value pushed */
26 
MDAP[1]\011/* MoveDirectAbsPt */
ELSE[ ]\011/* Else */
PUSHW[ ]\011/* 2 values pushed */
26 7 
MIAP[0]\011/* MoveIndirectAbsPt */
EIF[ ]\011/* EndIf */
PUSHW[ ]\011/* 1 value pushed */
9 
SRP0[ ]\011/* SetRefPoint0 */
PUSHW[ ]\011/* 2 values pushed */
14 2 
MIRP[10100]\011/* MoveIndirectRelPt */
PUSHW[ ]\011/* 3 values pushed */
17 26 9 
SRP1[ ]\011/* SetRefPoint1 */
SRP2[ ]\011/* SetRefPoint2 */
IP[ ]\011/* InterpolatePts */
PUSHW[ ]\011/* 1 value pushed */
26 
SRP0[ ]\011/* SetRefPoint0 */
PUSHW[ ]\011/* 2 values pushed */
43 2 
MIRP[10100]\011/* MoveIndirectRelPt */
NPUSHW[ ]\011/* 7 values pushed */
23 43 39 43 55 43 3 
DELTAP1[ ]\011/* DeltaExceptionP1 */
IUP[0]\011/* InterpolateUntPts */
IUP[1]\011/* InterpolateUntPts */";
};
width = 613;
}
);
note = five;
unicode = 0035;
},
{
glyphname = six;
layers = (
{
layerId = "6CA69755-92A4-402C-9A09-056914DDCECE";
paths = (
{
closed = 1;
nodes = (
"241 281 LINE SMOOTH",
"270 310 OFFCURVE",
"289 320 QCURVE SMOOTH",
"301 327 OFFCURVE",
"322 325 QCURVE SMOOTH",
"380 321 OFFCURVE",
"429 256 OFFCURVE",
"419 171 OFFCURVE",
"391 150 QCURVE SMOOTH",
"363 127 OFFCURVE",
"319 138 QCURVE SMOOTH",
"240 158 OFFCURVE",
"208 247 QCURVE",
"208 247 LINE"
);
},
{
closed = 1;
nodes = (
"448 519 OFFCURVE",
"505 531 OFFCURVE",
"537 580 OFFCURVE",
"526 639 OFFCURVE",
"502 655 QCURVE SMOOTH",
"500 656 OFFCURVE",
"455 689 OFFCURVE",
"433 702 OFFCURVE",
"387 724 OFFCURVE",
"362 726 QCURVE SMOOTH",
"339 729 OFFCURVE",
"310 726 QCURVE SMOOTH",
"249 719 OFFCURVE",
"200 685 QCURVE SMOOTH",
"150 651 OFFCURVE",
"90 551 OFFCURVE",
"55 439 OFFCURVE",
"52 381 QCURVE SMOOTH",
"48 322 OFFCURVE",
"71 204 OFFCURVE",
"123 96 OFFCURVE",
"221 15 OFFCURVE",
"287 -2 QCURVE SMOOTH",
"347 -15 OFFCURVE",
"444 7 OFFCURVE",
"515 68 OFFCURVE",
"557 150 OFFCURVE",
"562 196 QCURVE SMOOTH",
"568 243 OFFCURVE",
"545 334 OFFCURVE",
"491 412 OFFCURVE",
"395 464 OFFCURVE",
"272 474 OFFCURVE",
"223 448 QCURVE SMOOTH",
"211 441 OFFCURVE",
"200 433 QCURVE",
"214 498 OFFCURVE",
"283 578 OFFCURVE",
"324 583 QCURVE",
"334 582 OFFCURVE",
"341 585 OFFCURVE",
"357 579 OFFCURVE",
"362 578 OFFCURVE",
"371 573 QCURVE SMOOTH",
"385 564 LINE SMOOTH",
"390 560 OFFCURVE",
"402 552 QCURVE SMOOTH",
"424 536 LINE",
"424 536 LINE"
);
}
);
width = 622;
}
);
note = six;
unicode = 0036;
},
{
glyphname = seven;
layers = (
{
layerId = "6CA69755-92A4-402C-9A09-056914DDCECE";
paths = (
{
closed = 1;
nodes = (
"90 723 OFFCURVE",
"50 682 OFFCURVE",
"51 624 OFFCURVE",
"92 584 OFFCURVE",
"121 584 QCURVE SMOOTH",
"159 585 OFFCURVE",
"299 585 QCURVE SMOOTH",
"371 585 LINE",
"364 573 OFFCURVE",
"352 546 QCURVE",
"348 541 OFFCURVE",
"269 375 OFFCURVE",
"247 328 QCURVE SMOOTH",
"214 256 LINE SMOOTH",
"203 232 OFFCURVE",
"178 172 QCURVE SMOOTH",
"148 99 LINE SMOOTH",
"136 73 OFFCURVE",
"158 19 OFFCURVE",
"211 -4 OFFCURVE",
"265 18 OFFCURVE",
"276 45 QCURVE SMOOTH",
"282 58 OFFCURVE",
"332 179 OFFCURVE",
"342 201 QCURVE SMOOTH",
"372 268 LINE SMOOTH",
"393 312 OFFCURVE",
"429 378 OFFCURVE",
"521 552 OFFCURVE",
"530 590 QCURVE",
"551 651 OFFCURVE",
"520 691 QCURVE SMOOTH",
"508 707 OFFCURVE",
"487 714 QCURVE",
"481 717 OFFCURVE",
"474 718 QCURVE SMOOTH",
"466 720 OFFCURVE",
"446 722 OFFCURVE",
"414 723 QCURVE SMOOTH",
"368 725 OFFCURVE",
"300 725 QCURVE SMOOTH",
"195 725 OFFCURVE",
"119 724 QCURVE",
"119 724 LINE"
);
}
);
userData = {
assembly = "PUSHW[ ]\011/* 1 value pushed */
10 
CALL[ ]\011/* CallFunction */
SVTCA[0]\011/* SetFreedomAndProjectionVectorToAxis */
PUSHW[ ]\011/* 1 value pushed */
0 
MDAP[1]\011/* MoveDirectAbsPt */
PUSHW[ ]\011/* 1 value pushed */
2 
MDAP[1]\011/* MoveDirectAbsPt */
PUSHW[ ]\011/* 1 value pushed */
4 
MDAP[1]\011/* MoveDirectAbsPt */
PUSHW[ ]\011/* 1 value pushed */
7 
MDAP[1]\011/* MoveDirectAbsPt */
PUSHW[ ]\011/* 1 value pushed */
4 
SRP0[ ]\011/* SetRefPoint0 */
PUSHW[ ]\011/* 2 values pushed */
35 2 
MIRP[10100]\011/* MoveIndirectRelPt */
PUSHW[ ]\011/* 1 value pushed */
38 
MDRP[10000]\011/* MoveDirectRelPt */
PUSHW[ ]\011/* 1 value pushed */
38 
MDAP[1]\011/* MoveDirectAbsPt */
IUP[0]\011/* InterpolateUntPts */
IUP[1]\011/* InterpolateUntPts */";
};
width = 601;
}
);
note = seven;
unicode = 0037;
},
{
glyphname = eight;
layers = (
{
layerId = "6CA69755-92A4-402C-9A09-056914DDCECE";
paths = (
{
closed = 1;
nodes = (
"306 427 OFFCURVE",
"277 421 QCURVE SMOOTH",
"255 416 LINE",
"220 426 OFFCURVE",
"193 472 OFFCURVE",
"199 501 QCURVE SMOOTH",
"205 535 OFFCURVE",
"262 584 OFFCURVE",
"308 584 QCURVE SMOOTH",
"341 584 OFFCURVE",
"388 548 OFFCURVE",
"396 520 QCURVE SMOOTH",
"404 494 OFFCURVE",
"384 448 OFFCURVE",
"354 433 QCURVE SMOOTH",
"343 428 OFFCURVE",
"328 426 QCURVE",
"328 426 LINE"
);
},
{
closed = 1;
nodes = (
"83 316 OFFCURVE",
"50 228 OFFCURVE",
"54 182 QCURVE SMOOTH",
"61 99 OFFCURVE",
"192 -4 OFFCURVE",
"299 -4 QCURVE SMOOTH",
"372 -4 OFFCURVE",
"433 30 QCURVE SMOOTH",
"494 63 OFFCURVE",
"524 120 QCURVE SMOOTH",
"555 178 OFFCURVE",
"527 304 OFFCURVE",
"471 355 QCURVE",
"513 395 OFFCURVE",
"539 507 OFFCURVE",
"523 557 QCURVE SMOOTH",
"503 625 OFFCURVE",
"387 716 OFFCURVE",
"308 716 QCURVE SMOOTH",
"213 716 OFFCURVE",
"84 604 OFFCURVE",
"69 525 QCURVE SMOOTH",
"60 477 OFFCURVE",
"84 385 OFFCURVE",
"116 350 QCURVE",
"116 350 LINE"
);
},
{
closed = 1;
nodes = (
"330 277 OFFCURVE",
"344 285 QCURVE",
"356 278 OFFCURVE",
"370 267 QCURVE SMOOTH",
"429 223 OFFCURVE",
"407 181 QCURVE SMOOTH",
"396 160 OFFCURVE",
"338 128 OFFCURVE",
"299 128 QCURVE SMOOTH",
"266 128 OFFCURVE",
"218 141 OFFCURVE",
"196 163 OFFCURVE",
"186 183 OFFCURVE",
"185 193 QCURVE SMOOTH",
"183 220 OFFCURVE",
"218 271 OFFCURVE",
"249 279 QCURVE",
"254 281 OFFCURVE",
"268 280 QCURVE SMOOTH",
"311 277 OFFCURVE",
"313 277 QCURVE",
"313 277 LINE"
);
}
);
userData = {
assembly = "PUSHW[ ]\011/* 1 value pushed */
10 
CALL[ ]\011/* CallFunction */
SVTCA[0]\011/* SetFreedomAndProjectionVectorToAxis */
PUSHW[ ]\011/* 1 value pushed */
1 
RCVT[ ]\011/* ReadCVT */
IF[ ]\011/* If */
PUSHW[ ]\011/* 1 value pushed */
36 
MDAP[1]\011/* MoveDirectAbsPt */
ELSE[ ]\011/* Else */
PUSHW[ ]\011/* 2 values pushed */
36 7 
MIAP[0]\011/* MoveIndirectAbsPt */
EIF[ ]\011/* EndIf */
PUSHW[ ]\011/* 4 values pushed */
23 2 8 14 
CALL[ ]\011/* CallFunction */
PUSHW[ ]\011/* 1 value pushed */
36 
SRP0[ ]\011/* SetRefPoint0 */
PUSHW[ ]\011/* 2 values pushed */
54 2 
MIRP[10100]\011/* MoveIndirectRelPt */
NPUSHW[ ]\011/* 7 values pushed */
23 54 39 54 55 54 3 
DELTAP1[ ]\011/* DeltaExceptionP1 */
IUP[0]\011/* InterpolateUntPts */
IUP[1]\011/* InterpolateUntPts */";
};
width = 605;
}
);
note = eight;
unicode = 0038;
},
{
glyphname = nine;
layers = (
{
layerId = "6CA69755-92A4-402C-9A09-056914DDCECE";
paths = (
{
closed = 1;
nodes = (
"383 405 OFFCURVE",
"377 403 QCURVE",
"375 403 OFFCURVE",
"330 390 QCURVE SMOOTH",
"314 385 OFFCURVE",
"306 385 QCURVE SMOOTH",
"227 386 OFFCURVE",
"198 432 QCURVE SMOOTH",
"173 473 OFFCURVE",
"213 575 OFFCURVE",
"264 588 QCURVE SMOOTH",
"318 602 OFFCURVE",
"391 564 QCURVE",
"391 480 OFFCURVE",
"389 405 QCURVE",
"389 405 LINE"
);
},
{
closed = 1;
nodes = (
"378 157 OFFCURVE",
"371 80 QCURVE SMOOTH",
"368 51 OFFCURVE",
"405 6 OFFCURVE",
"462 1 OFFCURVE",
"507 38 OFFCURVE",
"509 66 QCURVE SMOOTH",
"530 313 OFFCURVE",
"531 578 QCURVE",
"536 598 OFFCURVE",
"522 638 OFFCURVE",
"504 650 QCURVE SMOOTH",
"358 747 OFFCURVE",
"231 716 QCURVE SMOOTH",
"173 702 OFFCURVE",
"131 663 QCURVE SMOOTH",
"90 624 OFFCURVE",
"70 571 QCURVE SMOOTH",
"50 524 OFFCURVE",
"57 410 OFFCURVE",
"86 363 QCURVE SMOOTH",
"118 312 OFFCURVE",
"230 254 OFFCURVE",
"304 253 QCURVE SMOOTH",
"332 253 OFFCURVE",
"367 263 QCURVE SMOOTH",
"372 264 OFFCURVE",
"383 268 QCURVE",
"383 268 LINE"
);
}
);
userData = {
assembly = "PUSHW[ ]\011/* 1 value pushed */
10 
CALL[ ]\011/* CallFunction */
PUSHW[ ]\011/* 4 values pushed */
34 5 15 14 
CALL[ ]\011/* CallFunction */
NPUSHW[ ]\011/* 7 values pushed */
25 15 41 15 57 15 3 
DELTAP1[ ]\011/* DeltaExceptionP1 */
PUSHW[ ]\011/* 1 value pushed */
15 
SRP0[ ]\011/* SetRefPoint0 */
PUSHW[ ]\011/* 1 value pushed */
0 
MDRP[10000]\011/* MoveDirectRelPt */
PUSHW[ ]\011/* 1 value pushed */
0 
MDAP[1]\011/* MoveDirectAbsPt */
PUSHW[ ]\011/* 1 value pushed */
34 
SRP0[ ]\011/* SetRefPoint0 */
PUSHW[ ]\011/* 1 value pushed */
44 
MDRP[11100]\011/* MoveDirectRelPt */
SVTCA[0]\011/* SetFreedomAndProjectionVectorToAxis */
PUSHW[ ]\011/* 4 values pushed */
9 2 19 14 
CALL[ ]\011/* CallFunction */
PUSHW[ ]\011/* 3 values pushed */
15 19 9 
SRP1[ ]\011/* SetRefPoint1 */
SRP2[ ]\011/* SetRefPoint2 */
IP[ ]\011/* InterpolatePts */
IUP[0]\011/* InterpolateUntPts */
IUP[1]\011/* InterpolateUntPts */";
};
width = 586;
}
);
note = nine;
unicode = 0039;
},
{
glyphname = colon;
layers = (
{
layerId = "6CA69755-92A4-402C-9A09-056914DDCECE";
paths = (
{
closed = 1;
nodes = (
"149 515 OFFCURVE",
"91 515 OFFCURVE",
"50 474 OFFCURVE",
"50 416 OFFCURVE",
"91 375 OFFCURVE",
"149 375 OFFCURVE",
"190 416 OFFCURVE",
"190 474 OFFCURVE",
"169 494 QCURVE",
"169 494 LINE"
);
},
{
closed = 1;
nodes = (
"152 143 OFFCURVE",
"94 143 OFFCURVE",
"53 102 OFFCURVE",
"53 44 OFFCURVE",
"94 3 OFFCURVE",
"152 3 OFFCURVE",
"193 44 OFFCURVE",
"193 102 OFFCURVE",
"172 122 QCURVE",
"172 122 LINE"
);
}
);
width = 243;
}
);
note = colon;
unicode = 003A;
},
{
glyphname = semicolon;
layers = (
{
layerId = "6CA69755-92A4-402C-9A09-056914DDCECE";
paths = (
{
closed = 1;
nodes = (
"227 44 OFFCURVE",
"196 93 OFFCURVE",
"140 107 OFFCURVE",
"91 76 OFFCURVE",
"84 48 QCURVE SMOOTH",
"57 -67 LINE SMOOTH",
"50 -95 OFFCURVE",
"81 -144 OFFCURVE",
"137 -158 OFFCURVE",
"186 -127 OFFCURVE",
"193 -99 QCURVE SMOOTH",
"220 16 LINE",
"220 16 LINE"
);
},
{
closed = 1;
nodes = (
"187 333 OFFCURVE",
"129 333 OFFCURVE",
"88 292 OFFCURVE",
"88 234 OFFCURVE",
"129 193 OFFCURVE",
"187 193 OFFCURVE",
"228 234 OFFCURVE",
"228 292 OFFCURVE",
"207 312 QCURVE",
"207 312 LINE"
);
}
);
width = 278;
}
);
note = semicolon;
unicode = 003B;
},
{
glyphname = less;
layers = (
{
layerId = "6CA69755-92A4-402C-9A09-056914DDCECE";
paths = (
{
closed = 1;
nodes = (
"99 307 LINE SMOOTH",
"63 299 OFFCURVE",
"51 264 QCURVE SMOOTH",
"42 239 OFFCURVE",
"65 189 OFFCURVE",
"91 180 QCURVE SMOOTH",
"126 167 OFFCURVE",
"166 154 QCURVE SMOOTH",
"257 124 LINE",
"334 98 LINE SMOOTH",
"475 51 OFFCURVE",
"563 8 QCURVE SMOOTH",
"588 -3 OFFCURVE",
"640 15 OFFCURVE",
"663 64 OFFCURVE",
"645 116 OFFCURVE",
"621 128 QCURVE SMOOTH",
"525 173 OFFCURVE",
"376 223 QCURVE SMOOTH",
"306 246 LINE",
"598 372 LINE SMOOTH",
"623 383 OFFCURVE",
"643 434 OFFCURVE",
"622 484 OFFCURVE",
"571 504 OFFCURVE",
"546 494 QCURVE SMOOTH",
"460 456 LINE",
"364 414 LINE",
"284 380 LINE",
"186 340 LINE",
"100 307 LINE",
"100 307 LINE"
);
}
);
width = 649;
}
);
note = less;
unicode = 003C;
},
{
glyphname = equal;
layers = (
{
layerId = "6CA69755-92A4-402C-9A09-056914DDCECE";
paths = (
{
closed = 1;
nodes = (
"90 421 OFFCURVE",
"51 379 OFFCURVE",
"52 321 OFFCURVE",
"94 282 OFFCURVE",
"123 282 QCURVE SMOOTH",
"309 287 OFFCURVE",
"510 288 QCURVE SMOOTH",
"539 288 OFFCURVE",
"580 330 OFFCURVE",
"580 387 OFFCURVE",
"538 428 OFFCURVE",
"510 428 QCURVE SMOOTH",
"306 426 OFFCURVE",
"119 422 QCURVE",
"119 422 LINE"
);
},
{
closed = 1;
nodes = (
"97 220 OFFCURVE",
"54 182 OFFCURVE",
"51 124 OFFCURVE",
"89 81 OFFCURVE",
"118 79 QCURVE SMOOTH",
"191 75 OFFCURVE",
"325 74 QCURVE SMOOTH",
"454 73 OFFCURVE",
"513 71 QCURVE SMOOTH",
"542 70 OFFCURVE",
"585 110 OFFCURVE",
"587 167 OFFCURVE",
"547 210 OFFCURVE",
"519 211 QCURVE SMOOTH",
"464 213 OFFCURVE",
"332 214 QCURVE SMOOTH",
"199 214 OFFCURVE",
"126 219 QCURVE",
"126 219 LINE"
);
}
);
userData = {
assembly = "PUSHW[ ]\011/* 1 value pushed */
10 
CALL[ ]\011/* CallFunction */
SVTCA[0]\011/* SetFreedomAndProjectionVectorToAxis */
PUSHW[ ]\011/* 4 values pushed */
18 2 25 14 
CALL[ ]\011/* CallFunction */
PUSHW[ ]\011/* 4 values pushed */
2 2 9 14 
CALL[ ]\011/* CallFunction */
PUSHW[ ]\011/* 1 value pushed */
2 
SRP0[ ]\011/* SetRefPoint0 */
PUSHW[ ]\011/* 1 value pushed */
0 
MDRP[10000]\011/* MoveDirectRelPt */
PUSHW[ ]\011/* 1 value pushed */
0 
MDAP[1]\011/* MoveDirectAbsPt */
PUSHW[ ]\011/* 1 value pushed */
9 
SRP0[ ]\011/* SetRefPoint0 */
PUSHW[ ]\011/* 1 value pushed */
7 
MDRP[10000]\011/* MoveDirectRelPt */
PUSHW[ ]\011/* 1 value pushed */
7 
MDAP[1]\011/* MoveDirectAbsPt */
PUSHW[ ]\011/* 1 value pushed */
18 
SRP0[ ]\011/* SetRefPoint0 */
PUSHW[ ]\011/* 1 value pushed */
16 
MDRP[10000]\011/* MoveDirectRelPt */
PUSHW[ ]\011/* 1 value pushed */
16 
MDAP[1]\011/* MoveDirectAbsPt */
PUSHW[ ]\011/* 1 value pushed */
25 
SRP0[ ]\011/* SetRefPoint0 */
PUSHW[ ]\011/* 1 value pushed */
23 
MDRP[10000]\011/* MoveDirectRelPt */
PUSHW[ ]\011/* 1 value pushed */
23 
MDAP[1]\011/* MoveDirectAbsPt */
PUSHW[ ]\011/* 1 value pushed */
25 
SRP0[ ]\011/* SetRefPoint0 */
PUSHW[ ]\011/* 1 value pushed */
27 
MDRP[10000]\011/* MoveDirectRelPt */
PUSHW[ ]\011/* 1 value pushed */
27 
MDAP[1]\011/* MoveDirectAbsPt */
IUP[0]\011/* InterpolateUntPts */
IUP[1]\011/* InterpolateUntPts */";
};
width = 666;
}
);
note = equal;
unicode = 003D;
},
{
glyphname = greater;
layers = (
{
layerId = "6CA69755-92A4-402C-9A09-056914DDCECE";
paths = (
{
closed = 1;
nodes = (
"75 127 OFFCURVE",
"47 80 OFFCURVE",
"61 27 OFFCURVE",
"108 -1 OFFCURVE",
"135 6 QCURVE SMOOTH",
"227 31 OFFCURVE",
"372 87 QCURVE SMOOTH",
"443 116 LINE",
"525 149 LINE SMOOTH",
"560 163 OFFCURVE",
"597 176 QCURVE SMOOTH",
"611 181 OFFCURVE",
"621 192 QCURVE",
"639 204 OFFCURVE",
"647 224 QCURVE SMOOTH",
"656 249 OFFCURVE",
"634 299 OFFCURVE",
"608 309 QCURVE SMOOTH",
"149 484 LINE SMOOTH",
"124 494 OFFCURVE",
"73 473 OFFCURVE",
"54 422 OFFCURVE",
"75 371 OFFCURVE",
"101 362 QCURVE SMOOTH",
"408 244 LINE",
"323 210 LINE SMOOTH",
"190 157 OFFCURVE",
"101 134 QCURVE",
"101 134 LINE"
);
}
);
width = 711;
}
);
note = greater;
unicode = 003E;
},
{
glyphname = question;
layers = (
{
layerId = "6CA69755-92A4-402C-9A09-056914DDCECE";
paths = (
{
closed = 1;
nodes = (
"51 497 OFFCURVE",
"86 451 OFFCURVE",
"143 443 OFFCURVE",
"189 478 OFFCURVE",
"193 506 QCURVE SMOOTH",
"195 517 OFFCURVE",
"195 532 QCURVE SMOOTH",
"195 537 LINE",
"195 543 LINE SMOOTH",
"195 546 OFFCURVE",
"196 548 QCURVE",
"196 554 LINE",
"204 565 OFFCURVE",
"245 584 OFFCURVE",
"275 584 QCURVE SMOOTH",
"307 585 OFFCURVE",
"349 568 OFFCURVE",
"363 544 OFFCURVE",
"361 537 QCURVE SMOOTH",
"358 525 OFFCURVE",
"337 504 QCURVE SMOOTH",
"327 493 OFFCURVE",
"286 456 OFFCURVE",
"279 449 QCURVE SMOOTH",
"235 406 OFFCURVE",
"219 367 QCURVE SMOOTH",
"209 344 OFFCURVE",
"206 311 QCURVE",
"205 307 OFFCURVE",
"204 294 OFFCURVE",
"203 284 OFFCURVE",
"202 278 QCURVE SMOOTH",
"197 250 OFFCURVE",
"231 203 OFFCURVE",
"288 193 OFFCURVE",
"335 227 OFFCURVE",
"340 256 QCURVE SMOOTH",
"340 258 OFFCURVE",
"344 297 QCURVE SMOOTH",
"346 309 OFFCURVE",
"347 313 QCURVE",
"353 326 OFFCURVE",
"377 349 QCURVE SMOOTH",
"384 356 OFFCURVE",
"405 376 QCURVE SMOOTH",
"438 407 LINE SMOOTH",
"482 453 OFFCURVE",
"495 498 QCURVE SMOOTH",
"514 563 OFFCURVE",
"476 628 QCURVE SMOOTH",
"445 680 OFFCURVE",
"331 726 OFFCURVE",
"271 724 QCURVE SMOOTH",
"212 722 OFFCURVE",
"157 696 QCURVE SMOOTH",
"101 671 OFFCURVE",
"73 620 QCURVE SMOOTH",
"58 593 OFFCURVE",
"56 556 QCURVE SMOOTH",
"56 536 LINE",
"55 529 OFFCURVE",
"55 526 QCURVE",
"55 526 LINE"
);
},
{
closed = 1;
nodes = (
"299 143 OFFCURVE",
"241 143 OFFCURVE",
"200 102 OFFCURVE",
"200 44 OFFCURVE",
"241 3 OFFCURVE",
"299 3 OFFCURVE",
"340 44 OFFCURVE",
"340 102 OFFCURVE",
"319 122 QCURVE",
"319 122 LINE"
);
}
);
userData = {
assembly = "PUSHW[ ]\011/* 1 value pushed */
10 
CALL[ ]\011/* CallFunction */
SVTCA[0]\011/* SetFreedomAndProjectionVectorToAxis */
PUSHW[ ]\011/* 4 values pushed */
9 2 47 14 
CALL[ ]\011/* CallFunction */
IUP[0]\011/* InterpolateUntPts */
IUP[1]\011/* InterpolateUntPts */";
};
width = 551;
}
);
note = question;
unicode = 003F;
},
{
glyphname = at;
layers = (
{
layerId = "6CA69755-92A4-402C-9A09-056914DDCECE";
paths = (
{
closed = 1;
nodes = (
"497 452 OFFCURVE",
"495 450 QCURVE",
"489 439 OFFCURVE",
"487 424 QCURVE",
"486 423 OFFCURVE",
"484 406 OFFCURVE",
"483 399 QCURVE SMOOTH",
"476 364 OFFCURVE",
"455 334 QCURVE SMOOTH",
"429 297 OFFCURVE",
"397 283 QCURVE SMOOTH",
"375 274 OFFCURVE",
"359 290 QCURVE SMOOTH",
"351 298 OFFCURVE",
"347 326 OFFCURVE",
"363 371 OFFCURVE",
"384 396 QCURVE SMOOTH",
"413 432 OFFCURVE",
"478 461 OFFCURVE",
"496 455 QCURVE",
"497 454 OFFCURVE",
"498 454 QCURVE",
"498 454 LINE"
);
},
{
closed = 1;
nodes = (
"525 212 OFFCURVE",
"546 200 QCURVE SMOOTH",
"597 175 OFFCURVE",
"701 184 OFFCURVE",
"791 248 OFFCURVE",
"811 296 QCURVE SMOOTH",
"815 306 OFFCURVE",
"820 328 OFFCURVE",
"823 352 OFFCURVE",
"824 365 OFFCURVE",
"824 378 QCURVE SMOOTH",
"824 390 LINE SMOOTH",
"826 457 OFFCURVE",
"780 569 OFFCURVE",
"698 646 OFFCURVE",
"598 696 OFFCURVE",
"541 707 QCURVE SMOOTH",
"426 731 OFFCURVE",
"194 665 OFFCURVE",
"126 577 QCURVE SMOOTH",
"76 513 OFFCURVE",
"60 442 QCURVE SMOOTH",
"45 370 OFFCURVE",
"78 240 OFFCURVE",
"153 125 OFFCURVE",
"268 40 OFFCURVE",
"335 19 QCURVE SMOOTH",
"385 4 OFFCURVE",
"487 -3 OFFCURVE",
"586 13 OFFCURVE",
"672 39 OFFCURVE",
"720 59 QCURVE SMOOTH",
"741 68 OFFCURVE",
"759 111 OFFCURVE",
"741 154 OFFCURVE",
"698 172 OFFCURVE",
"676 163 QCURVE SMOOTH",
"618 138 OFFCURVE",
"524 114 OFFCURVE",
"414 110 OFFCURVE",
"367 127 QCURVE SMOOTH",
"303 146 OFFCURVE",
"207 233 OFFCURVE",
"162 338 OFFCURVE",
"175 458 OFFCURVE",
"214 509 QCURVE SMOOTH",
"259 567 OFFCURVE",
"344 592 QCURVE SMOOTH",
"430 616 OFFCURVE",
"519 598 QCURVE SMOOTH",
"609 580 OFFCURVE",
"714 473 OFFCURVE",
"712 394 QCURVE SMOOTH",
"711 347 OFFCURVE",
"707 338 QCURVE SMOOTH",
"695 309 OFFCURVE",
"626 283 OFFCURVE",
"600 298 QCURVE SMOOTH",
"589 304 OFFCURVE",
"593 337 QCURVE SMOOTH",
"598 364 LINE SMOOTH",
"602 380 OFFCURVE",
"603 383 QCURVE SMOOTH",
"606 401 OFFCURVE",
"606 413 QCURVE SMOOTH",
"606 414 LINE",
"616 420 OFFCURVE",
"624 431 QCURVE SMOOTH",
"637 450 OFFCURVE",
"629 495 OFFCURVE",
"610 509 QCURVE SMOOTH",
"604 513 OFFCURVE",
"585 529 OFFCURVE",
"583 531 QCURVE SMOOTH",
"558 551 OFFCURVE",
"536 559 QCURVE SMOOTH",
"473 583 OFFCURVE",
"342 521 OFFCURVE",
"297 467 QCURVE SMOOTH",
"276 441 OFFCURVE",
"247 382 OFFCURVE",
"232 313 OFFCURVE",
"251 241 OFFCURVE",
"279 212 QCURVE SMOOTH",
"303 187 OFFCURVE",
"362 165 OFFCURVE",
"415 169 OFFCURVE",
"441 180 QCURVE SMOOTH",
"477 196 OFFCURVE",
"511 228 QCURVE",
"511 228 LINE"
);
}
);
userData = {
assembly = "PUSHW[ ]\011/* 1 value pushed */
10 
CALL[ ]\011/* CallFunction */
PUSHW[ ]\011/* 4 values pushed */
100 6 59 14 
CALL[ ]\011/* CallFunction */
PUSHW[ ]\011/* 1 value pushed */
100 
SRP0[ ]\011/* SetRefPoint0 */
PUSHW[ ]\011/* 1 value pushed */
113 
MDRP[11100]\011/* MoveDirectRelPt */
IUP[0]\011/* InterpolateUntPts */
IUP[1]\011/* InterpolateUntPts */";
};
width = 922;
}
);
note = at;
unicode = 0040;
},
{
glyphname = A;
layers = (
{
layerId = "6CA69755-92A4-402C-9A09-056914DDCECE";
paths = (
{
closed = 1;
nodes = (
"340 331 OFFCURVE",
"302 331 QCURVE",
"354 460 LINE",
"407 333 LINE",
"407 333 LINE"
);
},
{
closed = 1;
nodes = (
"410 696 OFFCURVE",
"367 719 OFFCURVE",
"345 715 QCURVE",
"324 714 OFFCURVE",
"290 690 OFFCURVE",
"282 671 QCURVE SMOOTH",
"58 94 LINE SMOOTH",
"47 68 OFFCURVE",
"59 41 QCURVE SMOOTH",
"70 15 OFFCURVE",
"124 -8 OFFCURVE",
"178 15 OFFCURVE",
"190 41 QCURVE",
"245 190 LINE",
"294 191 OFFCURVE",
"463 195 QCURVE",
"519 43 LINE SMOOTH",
"530 17 OFFCURVE",
"584 -6 OFFCURVE",
"639 16 OFFCURVE",
"662 69 OFFCURVE",
"651 96 QCURVE SMOOTH",
"582 276 LINE",
"495 491 LINE",
"421 675 LINE",
"421 675 LINE"
);
}
);
userData = {
assembly = "PUSHW[ ]\011/* 1 value pushed */
10 
CALL[ ]\011/* CallFunction */
SVTCA[0]\011/* SetFreedomAndProjectionVectorToAxis */
PUSHW[ ]\011/* 4 values pushed */
0 2 15 14 
CALL[ ]\011/* CallFunction */
PUSHW[ ]\011/* 1 value pushed */
0 
SRP0[ ]\011/* SetRefPoint0 */
PUSHW[ ]\011/* 1 value pushed */
2 
MDRP[10000]\011/* MoveDirectRelPt */
PUSHW[ ]\011/* 1 value pushed */
2 
MDAP[1]\011/* MoveDirectAbsPt */
PUSHW[ ]\011/* 1 value pushed */
15 
SRP0[ ]\011/* SetRefPoint0 */
PUSHW[ ]\011/* 1 value pushed */
13 
MDRP[10000]\011/* MoveDirectRelPt */
PUSHW[ ]\011/* 1 value pushed */
13 
MDAP[1]\011/* MoveDirectAbsPt */
IUP[0]\011/* InterpolateUntPts */
IUP[1]\011/* InterpolateUntPts */";
};
width = 695;
}
);
note = A;
unicode = 0041;
},
{
glyphname = B;
layers = (
{
layerId = "6CA69755-92A4-402C-9A09-056914DDCECE";
paths = (
{
closed = 1;
nodes = (
"215 574 OFFCURVE",
"227 574 QCURVE SMOOTH",
"274 576 OFFCURVE",
"307 574 QCURVE SMOOTH",
"387 569 OFFCURVE",
"427 540 QCURVE",
"441 528 OFFCURVE",
"443 517 QCURVE SMOOTH",
"446 501 OFFCURVE",
"434 474 QCURVE SMOOTH",
"420 441 OFFCURVE",
"342 434 QCURVE SMOOTH",
"290 430 OFFCURVE",
"200 440 QCURVE",
"198 512 OFFCURVE",
"195 573 QCURVE",
"195 573 LINE"
);
},
{
closed = 1;
nodes = (
"214 286 LINE",
"227 286 OFFCURVE",
"312 287 QCURVE SMOOTH",
"373 289 OFFCURVE",
"410 284 QCURVE SMOOTH",
"491 275 OFFCURVE",
"500 237 QCURVE SMOOTH",
"507 211 OFFCURVE",
"500 191 OFFCURVE",
"477 175 QCURVE SMOOTH",
"426 138 OFFCURVE",
"326 134 QCURVE SMOOTH",
"287 133 OFFCURVE",
"229 135 QCURVE SMOOTH",
"218 136 OFFCURVE",
"199 137 QCURVE",
"199 146 OFFCURVE",
"200 288 QCURVE",
"200 288 LINE"
);
},
{
closed = 1;
nodes = (
"123 714 OFFCURVE",
"108 704 QCURVE",
"82 699 OFFCURVE",
"50 656 OFFCURVE",
"52 628 QCURVE SMOOTH",
"59 543 OFFCURVE",
"63 374 OFFCURVE",
"61 134 OFFCURVE",
"61 87 QCURVE",
"59 80 OFFCURVE",
"59 73 QCURVE SMOOTH",
"59 52 OFFCURVE",
"81 18 OFFCURVE",
"99 9 QCURVE SMOOTH",
"113 1 OFFCURVE",
"131 1 QCURVE SMOOTH",
"135 1 OFFCURVE",
"139 2 QCURVE",
"154 1 OFFCURVE",
"212 -2 OFFCURVE",
"222 -2 QCURVE SMOOTH",
"286 -5 OFFCURVE",
"332 -3 QCURVE SMOOTH",
"473 3 OFFCURVE",
"557 62 QCURVE SMOOTH",
"614 103 OFFCURVE",
"633 152 QCURVE SMOOTH",
"653 202 OFFCURVE",
"635 271 QCURVE SMOOTH",
"614 350 OFFCURVE",
"540 389 QCURVE",
"553 397 OFFCURVE",
"561 416 QCURVE SMOOTH",
"589 484 OFFCURVE",
"580 541 QCURVE SMOOTH",
"569 610 OFFCURVE",
"508 656 QCURVE SMOOTH",
"436 710 OFFCURVE",
"315 717 QCURVE SMOOTH",
"276 720 OFFCURVE",
"222 718 QCURVE SMOOTH",
"211 717 OFFCURVE",
"156 715 OFFCURVE",
"142 715 QCURVE",
"142 715 LINE"
);
}
);
userData = {
assembly = "PUSHW[ ]\011/* 1 value pushed */
10 
CALL[ ]\011/* CallFunction */
PUSHW[ ]\011/* 4 values pushed */
16 5 69 14 
CALL[ ]\011/* CallFunction */
PUSHW[ ]\011/* 1 value pushed */
16 
SRP0[ ]\011/* SetRefPoint0 */
PUSHW[ ]\011/* 1 value pushed */
0 
MDRP[10000]\011/* MoveDirectRelPt */
PUSHW[ ]\011/* 1 value pushed */
0 
MDAP[1]\011/* MoveDirectAbsPt */
PUSHW[ ]\011/* 1 value pushed */
16 
SRP0[ ]\011/* SetRefPoint0 */
PUSHW[ ]\011/* 1 value pushed */
2 
MDRP[10000]\011/* MoveDirectRelPt */
PUSHW[ ]\011/* 1 value pushed */
16 
SRP0[ ]\011/* SetRefPoint0 */
PUSHW[ ]\011/* 1 value pushed */
18 
MDRP[10000]\011/* MoveDirectRelPt */
PUSHW[ ]\011/* 1 value pushed */
18 
MDAP[1]\011/* MoveDirectAbsPt */
PUSHW[ ]\011/* 1 value pushed */
69 
SRP0[ ]\011/* SetRefPoint0 */
PUSHW[ ]\011/* 1 value pushed */
67 
MDRP[10000]\011/* MoveDirectRelPt */
PUSHW[ ]\011/* 1 value pushed */
67 
MDAP[1]\011/* MoveDirectAbsPt */
SVTCA[0]\011/* SetFreedomAndProjectionVectorToAxis */
PUSHW[ ]\011/* 1 value pushed */
1 
RCVT[ ]\011/* ReadCVT */
IF[ ]\011/* If */
PUSHW[ ]\011/* 1 value pushed */
55 
MDAP[1]\011/* MoveDirectAbsPt */
ELSE[ ]\011/* Else */
PUSHW[ ]\011/* 2 values pushed */
55 7 
MIAP[0]\011/* MoveIndirectAbsPt */
EIF[ ]\011/* EndIf */
PUSHW[ ]\011/* 1 value pushed */
1 
RCVT[ ]\011/* ReadCVT */
IF[ ]\011/* If */
PUSHW[ ]\011/* 1 value pushed */
57 
MDAP[1]\011/* MoveDirectAbsPt */
ELSE[ ]\011/* Else */
PUSHW[ ]\011/* 2 values pushed */
57 7 
MIAP[0]\011/* MoveIndirectAbsPt */
EIF[ ]\011/* EndIf */
PUSHW[ ]\011/* 1 value pushed */
1 
RCVT[ ]\011/* ReadCVT */
IF[ ]\011/* If */
PUSHW[ ]\011/* 1 value pushed */
60 
MDAP[1]\011/* MoveDirectAbsPt */
ELSE[ ]\011/* Else */
PUSHW[ ]\011/* 2 values pushed */
60 7 
MIAP[0]\011/* MoveIndirectAbsPt */
EIF[ ]\011/* EndIf */
PUSHW[ ]\011/* 1 value pushed */
1 
RCVT[ ]\011/* ReadCVT */
IF[ ]\011/* If */
PUSHW[ ]\011/* 1 value pushed */
62 
MDAP[1]\011/* MoveDirectAbsPt */
ELSE[ ]\011/* Else */
PUSHW[ ]\011/* 2 values pushed */
62 7 
MIAP[0]\011/* MoveIndirectAbsPt */
EIF[ ]\011/* EndIf */
PUSHW[ ]\011/* 4 values pushed */
39 2 12 14 
CALL[ ]\011/* CallFunction */
PUSHW[ ]\011/* 1 value pushed */
12 
SRP0[ ]\011/* SetRefPoint0 */
PUSHW[ ]\011/* 1 value pushed */
0 
MDRP[10000]\011/* MoveDirectRelPt */
PUSHW[ ]\011/* 1 value pushed */
0 
MDAP[1]\011/* MoveDirectAbsPt */
PUSHW[ ]\011/* 1 value pushed */
12 
SRP0[ ]\011/* SetRefPoint0 */
PUSHW[ ]\011/* 1 value pushed */
14 
MDRP[10000]\011/* MoveDirectRelPt */
PUSHW[ ]\011/* 1 value pushed */
57 
SRP0[ ]\011/* SetRefPoint0 */
PUSHW[ ]\011/* 2 values pushed */
18 2 
MIRP[10100]\011/* MoveIndirectRelPt */
NPUSHW[ ]\011/* 7 values pushed */
23 18 39 18 55 18 3 
DELTAP1[ ]\011/* DeltaExceptionP1 */
PUSHW[ ]\011/* 1 value pushed */
20 
MDRP[10000]\011/* MoveDirectRelPt */
PUSHW[ ]\011/* 1 value pushed */
20 
MDAP[1]\011/* MoveDirectAbsPt */
PUSHW[ ]\011/* 1 value pushed */
22 
MDRP[10000]\011/* MoveDirectRelPt */
PUSHW[ ]\011/* 1 value pushed */
39 
SRP0[ ]\011/* SetRefPoint0 */
PUSHW[ ]\011/* 1 value pushed */
34 
MDRP[10000]\011/* MoveDirectRelPt */
PUSHW[ ]\011/* 1 value pushed */
34 
MDAP[1]\011/* MoveDirectAbsPt */
PUSHW[ ]\011/* 1 value pushed */
39 
SRP0[ ]\011/* SetRefPoint0 */
PUSHW[ ]\011/* 1 value pushed */
37 
MDRP[10000]\011/* MoveDirectRelPt */
PUSHW[ ]\011/* 1 value pushed */
37 
MDAP[1]\011/* MoveDirectAbsPt */
IUP[0]\011/* InterpolateUntPts */
IUP[1]\011/* InterpolateUntPts */";
};
width = 703;
}
);
note = B;
unicode = 0042;
},
{
glyphname = C;
layers = (
{
layerId = "6CA69755-92A4-402C-9A09-056914DDCECE";
paths = (
{
closed = 1;
nodes = (
"569 464 OFFCURVE",
"627 459 OFFCURVE",
"671 496 OFFCURVE",
"676 552 OFFCURVE",
"657 574 QCURVE SMOOTH",
"638 599 LINE SMOOTH",
"623 617 OFFCURVE",
"614 625 QCURVE SMOOTH",
"590 648 LINE SMOOTH",
"573 663 OFFCURVE",
"535 685 OFFCURVE",
"512 694 QCURVE SMOOTH",
"420 731 OFFCURVE",
"309 699 QCURVE SMOOTH",
"237 679 OFFCURVE",
"126 592 OFFCURVE",
"65 476 OFFCURVE",
"45 330 OFFCURVE",
"64 261 QCURVE SMOOTH",
"94 144 OFFCURVE",
"176 74 QCURVE SMOOTH",
"221 35 OFFCURVE",
"347 -3 OFFCURVE",
"413 -1 QCURVE SMOOTH",
"482 1 OFFCURVE",
"607 57 OFFCURVE",
"644 114 QCURVE SMOOTH",
"658 137 OFFCURVE",
"668 171 QCURVE",
"670 182 LINE SMOOTH",
"672 189 OFFCURVE",
"675 200 OFFCURVE",
"677 206 QCURVE SMOOTH",
"686 233 OFFCURVE",
"660 283 OFFCURVE",
"606 301 OFFCURVE",
"553 275 OFFCURVE",
"544 250 QCURVE SMOOTH",
"543 248 OFFCURVE",
"532 206 QCURVE SMOOTH",
"528 192 OFFCURVE",
"525 187 QCURVE SMOOTH",
"493 138 OFFCURVE",
"409 135 QCURVE SMOOTH",
"368 134 OFFCURVE",
"291 158 OFFCURVE",
"268 178 QCURVE SMOOTH",
"220 219 OFFCURVE",
"201 294 QCURVE SMOOTH",
"178 386 OFFCURVE",
"260 543 OFFCURVE",
"349 568 QCURVE SMOOTH",
"413 586 OFFCURVE",
"460 567 QCURVE SMOOTH",
"472 562 OFFCURVE",
"487 554 OFFCURVE",
"504 539 OFFCURVE",
"514 528 OFFCURVE",
"540 496 OFFCURVE",
"550 485 QCURVE",
"550 485 LINE"
);
}
);
userData = {
assembly = "PUSHW[ ]\011/* 1 value pushed */
10 
CALL[ ]\011/* CallFunction */
SVTCA[0]\011/* SetFreedomAndProjectionVectorToAxis */
PUSHW[ ]\011/* 1 value pushed */
1 
RCVT[ ]\011/* ReadCVT */
IF[ ]\011/* If */
PUSHW[ ]\011/* 1 value pushed */
36 
MDAP[1]\011/* MoveDirectAbsPt */
ELSE[ ]\011/* Else */
PUSHW[ ]\011/* 2 values pushed */
36 7 
MIAP[0]\011/* MoveIndirectAbsPt */
EIF[ ]\011/* EndIf */
PUSHW[ ]\011/* 2 values pushed */
16 2 
MIRP[10100]\011/* MoveIndirectRelPt */
NPUSHW[ ]\011/* 7 values pushed */
23 16 39 16 55 16 3 
DELTAP1[ ]\011/* DeltaExceptionP1 */
IUP[0]\011/* InterpolateUntPts */
IUP[1]\011/* InterpolateUntPts */";
};
width = 737;
}
);
note = C;
unicode = 0043;
},
{
glyphname = D;
layers = (
{
layerId = "6CA69755-92A4-402C-9A09-056914DDCECE";
paths = (
{
closed = 1;
nodes = (
"193 184 OFFCURVE",
"191 384 OFFCURVE",
"191 486 OFFCURVE",
"192 581 QCURVE",
"281 588 OFFCURVE",
"400 570 OFFCURVE",
"439 535 QCURVE SMOOTH",
"487 491 OFFCURVE",
"505 324 OFFCURVE",
"441 188 OFFCURVE",
"381 159 QCURVE SMOOTH",
"345 142 OFFCURVE",
"271 139 QCURVE SMOOTH",
"242 138 OFFCURVE",
"193 138 QCURVE",
"193 138 LINE"
);
},
{
closed = 1;
nodes = (
"136 716 OFFCURVE",
"127 713 QCURVE",
"98 714 OFFCURVE",
"55 674 OFFCURVE",
"54 647 QCURVE SMOOTH",
"50 601 OFFCURVE",
"54 116 OFFCURVE",
"53 71 QCURVE SMOOTH",
"53 43 OFFCURVE",
"93 2 OFFCURVE",
"121 1 QCURVE",
"127 0 OFFCURVE",
"134 0 QCURVE SMOOTH",
"148 0 OFFCURVE",
"256 -1 OFFCURVE",
"277 0 QCURVE SMOOTH",
"380 5 OFFCURVE",
"443 35 QCURVE SMOOTH",
"503 65 OFFCURVE",
"593 172 OFFCURVE",
"636 303 OFFCURVE",
"638 458 OFFCURVE",
"585 590 OFFCURVE",
"533 637 QCURVE SMOOTH",
"506 662 OFFCURVE",
"440 698 OFFCURVE",
"365 715 OFFCURVE",
"306 725 OFFCURVE",
"221 722 OFFCURVE",
"184 720 OFFCURVE",
"145 716 QCURVE",
"145 716 LINE"
);
}
);
userData = {
assembly = "PUSHW[ ]\011/* 1 value pushed */
10 
CALL[ ]\011/* CallFunction */
PUSHW[ ]\011/* 4 values pushed */
11 5 38 14 
CALL[ ]\011/* CallFunction */
NPUSHW[ ]\011/* 7 values pushed */
22 11 38 11 54 11 3 
DELTAP1[ ]\011/* DeltaExceptionP1 */
PUSHW[ ]\011/* 1 value pushed */
11 
SRP0[ ]\011/* SetRefPoint0 */
PUSHW[ ]\011/* 1 value pushed */
0 
MDRP[10000]\011/* MoveDirectRelPt */
PUSHW[ ]\011/* 1 value pushed */
0 
MDAP[1]\011/* MoveDirectAbsPt */
PUSHW[ ]\011/* 1 value pushed */
38 
SRP0[ ]\011/* SetRefPoint0 */
PUSHW[ ]\011/* 1 value pushed */
41 
MDRP[10000]\011/* MoveDirectRelPt */
PUSHW[ ]\011/* 1 value pushed */
41 
MDAP[1]\011/* MoveDirectAbsPt */
SVTCA[0]\011/* SetFreedomAndProjectionVectorToAxis */
PUSHW[ ]\011/* 1 value pushed */
1 
RCVT[ ]\011/* ReadCVT */
IF[ ]\011/* If */
PUSHW[ ]\011/* 1 value pushed */
30 
MDAP[1]\011/* MoveDirectAbsPt */
ELSE[ ]\011/* Else */
PUSHW[ ]\011/* 2 values pushed */
30 7 
MIAP[0]\011/* MoveIndirectAbsPt */
EIF[ ]\011/* EndIf */
PUSHW[ ]\011/* 1 value pushed */
1 
RCVT[ ]\011/* ReadCVT */
IF[ ]\011/* If */
PUSHW[ ]\011/* 1 value pushed */
33 
MDAP[1]\011/* MoveDirectAbsPt */
ELSE[ ]\011/* Else */
PUSHW[ ]\011/* 2 values pushed */
33 7 
MIAP[0]\011/* MoveIndirectAbsPt */
EIF[ ]\011/* EndIf */
PUSHW[ ]\011/* 1 value pushed */
1 
RCVT[ ]\011/* ReadCVT */
IF[ ]\011/* If */
PUSHW[ ]\011/* 1 value pushed */
35 
MDAP[1]\011/* MoveDirectAbsPt */
ELSE[ ]\011/* Else */
PUSHW[ ]\011/* 2 values pushed */
35 7 
MIAP[0]\011/* MoveIndirectAbsPt */
EIF[ ]\011/* EndIf */
PUSHW[ ]\011/* 4 values pushed */
44 2 11 14 
CALL[ ]\011/* CallFunction */
PUSHW[ ]\011/* 1 value pushed */
33 
SRP0[ ]\011/* SetRefPoint0 */
PUSHW[ ]\011/* 2 values pushed */
0 2 
MIRP[10100]\011/* MoveIndirectRelPt */
NPUSHW[ ]\011/* 7 values pushed */
23 0 39 0 55 0 3 
DELTAP1[ ]\011/* DeltaExceptionP1 */
PUSHW[ ]\011/* 1 value pushed */
2 
MDRP[10000]\011/* MoveDirectRelPt */
PUSHW[ ]\011/* 1 value pushed */
44 
SRP0[ ]\011/* SetRefPoint0 */
PUSHW[ ]\011/* 1 value pushed */
15 
MDRP[10000]\011/* MoveDirectRelPt */
PUSHW[ ]\011/* 1 value pushed */
15 
MDAP[1]\011/* MoveDirectAbsPt */
IUP[0]\011/* InterpolateUntPts */
IUP[1]\011/* InterpolateUntPts */";
};
width = 693;
}
);
note = D;
unicode = 0044;
},
{
glyphname = E;
layers = (
{
layerId = "6CA69755-92A4-402C-9A09-056914DDCECE";
paths = (
{
closed = 1;
nodes = (
"112 715 OFFCURVE",
"78 690 OFFCURVE",
"70 670 QCURVE SMOOTH",
"65 659 OFFCURVE",
"64 646 QCURVE SMOOTH",
"54 543 OFFCURVE",
"55 363 QCURVE SMOOTH",
"57 116 OFFCURVE",
"56 81 QCURVE SMOOTH",
"56 60 OFFCURVE",
"68 42 QCURVE",
"76 25 OFFCURVE",
"109 2 OFFCURVE",
"129 2 QCURVE SMOOTH",
"385 -1 OFFCURVE",
"533 -1 QCURVE SMOOTH",
"562 -1 OFFCURVE",
"602 39 OFFCURVE",
"602 97 OFFCURVE",
"562 137 OFFCURVE",
"533 137 QCURVE SMOOTH",
"397 137 OFFCURVE",
"194 139 QCURVE",
"195 185 OFFCURVE",
"193 297 QCURVE",
"239 298 OFFCURVE",
"488 298 QCURVE SMOOTH",
"517 298 OFFCURVE",
"558 339 OFFCURVE",
"558 396 OFFCURVE",
"517 436 OFFCURVE",
"488 436 QCURVE SMOOTH",
"240 436 OFFCURVE",
"192 435 QCURVE",
"193 518 OFFCURVE",
"196 579 QCURVE",
"252 580 OFFCURVE",
"474 579 OFFCURVE",
"530 579 QCURVE SMOOTH",
"559 579 OFFCURVE",
"598 620 OFFCURVE",
"598 677 OFFCURVE",
"557 717 OFFCURVE",
"528 717 QCURVE SMOOTH",
"455 716 OFFCURVE",
"207 717 OFFCURVE",
"134 716 QCURVE",
"134 716 LINE"
);
}
);
userData = {
assembly = "PUSHW[ ]\011/* 1 value pushed */
10 
CALL[ ]\011/* CallFunction */
PUSHW[ ]\011/* 4 values pushed */
22 5 40 14 
CALL[ ]\011/* CallFunction */
NPUSHW[ ]\011/* 7 values pushed */
22 22 38 22 54 22 3 
DELTAP1[ ]\011/* DeltaExceptionP1 */
PUSHW[ ]\011/* 1 value pushed */
22 
SRP0[ ]\011/* SetRefPoint0 */
PUSHW[ ]\011/* 1 value pushed */
11 
MDRP[10000]\011/* MoveDirectRelPt */
PUSHW[ ]\011/* 1 value pushed */
11 
MDAP[1]\011/* MoveDirectAbsPt */
PUSHW[ ]\011/* 1 value pushed */
22 
SRP0[ ]\011/* SetRefPoint0 */
PUSHW[ ]\011/* 1 value pushed */
13 
MDRP[10000]\011/* MoveDirectRelPt */
PUSHW[ ]\011/* 1 value pushed */
13 
MDAP[1]\011/* MoveDirectAbsPt */
PUSHW[ ]\011/* 1 value pushed */
22 
SRP0[ ]\011/* SetRefPoint0 */
PUSHW[ ]\011/* 1 value pushed */
24 
MDRP[10000]\011/* MoveDirectRelPt */
PUSHW[ ]\011/* 1 value pushed */
24 
MDAP[1]\011/* MoveDirectAbsPt */
PUSHW[ ]\011/* 1 value pushed */
40 
SRP0[ ]\011/* SetRefPoint0 */
PUSHW[ ]\011/* 1 value pushed */
38 
MDRP[10000]\011/* MoveDirectRelPt */
PUSHW[ ]\011/* 1 value pushed */
38 
MDAP[1]\011/* MoveDirectAbsPt */
SVTCA[0]\011/* SetFreedomAndProjectionVectorToAxis */
PUSHW[ ]\011/* 1 value pushed */
0 
MDAP[1]\011/* MoveDirectAbsPt */
PUSHW[ ]\011/* 1 value pushed */
3 
MDAP[1]\011/* MoveDirectAbsPt */
PUSHW[ ]\011/* 1 value pushed */
1 
RCVT[ ]\011/* ReadCVT */
IF[ ]\011/* If */
PUSHW[ ]\011/* 1 value pushed */
31 
MDAP[1]\011/* MoveDirectAbsPt */
ELSE[ ]\011/* Else */
PUSHW[ ]\011/* 2 values pushed */
31 7 
MIAP[0]\011/* MoveIndirectAbsPt */
EIF[ ]\011/* EndIf */
PUSHW[ ]\011/* 1 value pushed */
1 
RCVT[ ]\011/* ReadCVT */
IF[ ]\011/* If */
PUSHW[ ]\011/* 1 value pushed */
33 
MDAP[1]\011/* MoveDirectAbsPt */
ELSE[ ]\011/* Else */
PUSHW[ ]\011/* 2 values pushed */
33 7 
MIAP[0]\011/* MoveIndirectAbsPt */
EIF[ ]\011/* EndIf */
PUSHW[ ]\011/* 4 values pushed */
15 2 20 14 
CALL[ ]\011/* CallFunction */
PUSHW[ ]\011/* 1 value pushed */
3 
SRP0[ ]\011/* SetRefPoint0 */
PUSHW[ ]\011/* 2 values pushed */
8 2 
MIRP[10100]\011/* MoveIndirectRelPt */
PUSHW[ ]\011/* 1 value pushed */
11 
MDRP[10000]\011/* MoveDirectRelPt */
PUSHW[ ]\011/* 1 value pushed */
15 
SRP0[ ]\011/* SetRefPoint0 */
PUSHW[ ]\011/* 1 value pushed */
13 
MDRP[10000]\011/* MoveDirectRelPt */
PUSHW[ ]\011/* 1 value pushed */
13 
MDAP[1]\011/* MoveDirectAbsPt */
PUSHW[ ]\011/* 1 value pushed */
20 
SRP0[ ]\011/* SetRefPoint0 */
PUSHW[ ]\011/* 1 value pushed */
22 
MDRP[10000]\011/* MoveDirectRelPt */
PUSHW[ ]\011/* 1 value pushed */
22 
MDAP[1]\011/* MoveDirectAbsPt */
PUSHW[ ]\011/* 1 value pushed */
33 
SRP0[ ]\011/* SetRefPoint0 */
PUSHW[ ]\011/* 2 values pushed */
24 2 
MIRP[10100]\011/* MoveIndirectRelPt */
NPUSHW[ ]\011/* 7 values pushed */
23 24 39 24 55 24 3 
DELTAP1[ ]\011/* DeltaExceptionP1 */
PUSHW[ ]\011/* 1 value pushed */
26 
MDRP[10000]\011/* MoveDirectRelPt */
IUP[0]\011/* InterpolateUntPts */
IUP[1]\011/* InterpolateUntPts */";
};
width = 637;
}
);
note = E;
unicode = 0045;
},
{
glyphname = F;
layers = (
{
layerId = "6CA69755-92A4-402C-9A09-056914DDCECE";
paths = (
{
closed = 1;
nodes = (
"122 718 LINE",
"118 718 LINE SMOOTH",
"89 716 OFFCURVE",
"50 674 OFFCURVE",
"51 645 QCURVE SMOOTH",
"54 579 OFFCURVE",
"57 412 OFFCURVE",
"58 326 OFFCURVE",
"57 91 OFFCURVE",
"57 70 QCURVE SMOOTH",
"57 41 OFFCURVE",
"98 0 OFFCURVE",
"156 0 OFFCURVE",
"197 41 OFFCURVE",
"197 70 QCURVE SMOOTH",
"197 174 LINE",
"197 305 LINE",
"340 306 OFFCURVE",
"460 308 QCURVE SMOOTH",
"488 309 OFFCURVE",
"528 351 OFFCURVE",
"527 408 OFFCURVE",
"485 448 OFFCURVE",
"456 448 QCURVE SMOOTH",
"337 445 OFFCURVE",
"196 445 QCURVE",
"195 515 OFFCURVE",
"193 579 QCURVE",
"307 580 OFFCURVE",
"493 578 QCURVE SMOOTH",
"522 578 OFFCURVE",
"564 619 OFFCURVE",
"564 676 OFFCURVE",
"544 697 QCURVE SMOOTH",
"523 718 OFFCURVE",
"495 718 QCURVE SMOOTH",
"261 720 OFFCURVE",
"123 718 QCURVE",
"123 718 LINE"
);
}
);
userData = {
assembly = "PUSHW[ ]\011/* 1 value pushed */
10 
CALL[ ]\011/* CallFunction */
PUSHW[ ]\011/* 4 values pushed */
21 5 33 14 
CALL[ ]\011/* CallFunction */
PUSHW[ ]\011/* 1 value pushed */
21 
SRP0[ ]\011/* SetRefPoint0 */
PUSHW[ ]\011/* 1 value pushed */
10 
MDRP[10000]\011/* MoveDirectRelPt */
PUSHW[ ]\011/* 1 value pushed */
10 
MDAP[1]\011/* MoveDirectAbsPt */
PUSHW[ ]\011/* 1 value pushed */
21 
SRP0[ ]\011/* SetRefPoint0 */
PUSHW[ ]\011/* 1 value pushed */
12 
MDRP[10000]\011/* MoveDirectRelPt */
PUSHW[ ]\011/* 1 value pushed */
12 
MDAP[1]\011/* MoveDirectAbsPt */
PUSHW[ ]\011/* 1 value pushed */
21 
SRP0[ ]\011/* SetRefPoint0 */
PUSHW[ ]\011/* 1 value pushed */
23 
MDRP[10000]\011/* MoveDirectRelPt */
PUSHW[ ]\011/* 1 value pushed */
33 
SRP0[ ]\011/* SetRefPoint0 */
PUSHW[ ]\011/* 1 value pushed */
28 
MDRP[10000]\011/* MoveDirectRelPt */
PUSHW[ ]\011/* 1 value pushed */
28 
MDAP[1]\011/* MoveDirectAbsPt */
SVTCA[0]\011/* SetFreedomAndProjectionVectorToAxis */
PUSHW[ ]\011/* 4 values pushed */
2 2 8 14 
CALL[ ]\011/* CallFunction */
PUSHW[ ]\011/* 4 values pushed */
14 2 21 14 
CALL[ ]\011/* CallFunction */
PUSHW[ ]\011/* 1 value pushed */
2 
SRP0[ ]\011/* SetRefPoint0 */
PUSHW[ ]\011/* 1 value pushed */
0 
MDRP[10000]\011/* MoveDirectRelPt */
PUSHW[ ]\011/* 1 value pushed */
8 
SRP0[ ]\011/* SetRefPoint0 */
PUSHW[ ]\011/* 1 value pushed */
10 
MDRP[10000]\011/* MoveDirectRelPt */
PUSHW[ ]\011/* 1 value pushed */
10 
MDAP[1]\011/* MoveDirectAbsPt */
PUSHW[ ]\011/* 1 value pushed */
14 
SRP0[ ]\011/* SetRefPoint0 */
PUSHW[ ]\011/* 1 value pushed */
12 
MDRP[10000]\011/* MoveDirectRelPt */
PUSHW[ ]\011/* 1 value pushed */
12 
MDAP[1]\011/* MoveDirectAbsPt */
PUSHW[ ]\011/* 1 value pushed */
21 
SRP0[ ]\011/* SetRefPoint0 */
PUSHW[ ]\011/* 1 value pushed */
19 
MDRP[10000]\011/* MoveDirectRelPt */
PUSHW[ ]\011/* 1 value pushed */
19 
MDAP[1]\011/* MoveDirectAbsPt */
PUSHW[ ]\011/* 1 value pushed */
2 
SRP0[ ]\011/* SetRefPoint0 */
PUSHW[ ]\011/* 1 value pushed */
36 
MDRP[10000]\011/* MoveDirectRelPt */
IUP[0]\011/* InterpolateUntPts */
IUP[1]\011/* InterpolateUntPts */";
};
width = 614;
}
);
note = F;
unicode = 0046;
},
{
glyphname = G;
layers = (
{
layerId = "6CA69755-92A4-402C-9A09-056914DDCECE";
paths = (
{
closed = 1;
nodes = (
"416 388 OFFCURVE",
"378 346 OFFCURVE",
"380 288 OFFCURVE",
"422 250 OFFCURVE",
"451 251 QCURVE SMOOTH",
"532 255 OFFCURVE",
"561 254 QCURVE",
"560 248 OFFCURVE",
"558 241 QCURVE SMOOTH",
"555 227 OFFCURVE",
"535 204 QCURVE SMOOTH",
"492 152 OFFCURVE",
"362 129 OFFCURVE",
"239 191 OFFCURVE",
"206 256 QCURVE SMOOTH",
"174 324 OFFCURVE",
"200 461 OFFCURVE",
"252 513 QCURVE SMOOTH",
"302 565 OFFCURVE",
"432 588 OFFCURVE",
"502 552 QCURVE",
"513 545 OFFCURVE",
"528 534 OFFCURVE",
"545 516 OFFCURVE",
"549 510 QCURVE SMOOTH",
"565 488 LINE",
"585 462 LINE SMOOTH",
"603 439 OFFCURVE",
"659 431 OFFCURVE",
"705 465 OFFCURVE",
"713 522 OFFCURVE",
"696 545 QCURVE SMOOTH",
"692 550 OFFCURVE",
"664 588 OFFCURVE",
"650 605 OFFCURVE",
"622 635 OFFCURVE",
"591 660 OFFCURVE",
"571 670 QCURVE",
"497 714 OFFCURVE",
"337 720 OFFCURVE",
"271 691 QCURVE SMOOTH",
"206 663 OFFCURVE",
"153 609 QCURVE SMOOTH",
"101 557 OFFCURVE",
"73 490 QCURVE SMOOTH",
"44 424 OFFCURVE",
"46 265 OFFCURVE",
"84 192 QCURVE SMOOTH",
"114 133 OFFCURVE",
"216 43 OFFCURVE",
"340 -1 OFFCURVE",
"468 -2 OFFCURVE",
"594 57 OFFCURVE",
"642 115 QCURVE SMOOTH",
"681 162 OFFCURVE",
"693 207 QCURVE SMOOTH",
"697 225 OFFCURVE",
"700 272 OFFCURVE",
"699 296 QCURVE SMOOTH",
"699 319 LINE SMOOTH",
"700 350 OFFCURVE",
"678 371 QCURVE SMOOTH",
"657 392 OFFCURVE",
"628 392 QCURVE SMOOTH",
"526 392 OFFCURVE",
"445 389 QCURVE",
"445 389 LINE"
);
}
);
userData = {
assembly = "PUSHW[ ]\011/* 1 value pushed */
10 
CALL[ ]\011/* CallFunction */
SVTCA[0]\011/* SetFreedomAndProjectionVectorToAxis */
PUSHW[ ]\011/* 4 values pushed */
2 2 61 14 
CALL[ ]\011/* CallFunction */
PUSHW[ ]\011/* 1 value pushed */
2 
SRP0[ ]\011/* SetRefPoint0 */
PUSHW[ ]\011/* 1 value pushed */
0 
MDRP[10000]\011/* MoveDirectRelPt */
PUSHW[ ]\011/* 1 value pushed */
0 
MDAP[1]\011/* MoveDirectAbsPt */
PUSHW[ ]\011/* 1 value pushed */
61 
SRP0[ ]\011/* SetRefPoint0 */
PUSHW[ ]\011/* 1 value pushed */
59 
MDRP[10000]\011/* MoveDirectRelPt */
PUSHW[ ]\011/* 1 value pushed */
59 
MDAP[1]\011/* MoveDirectAbsPt */
IUP[0]\011/* InterpolateUntPts */
IUP[1]\011/* InterpolateUntPts */";
};
width = 762;
}
);
note = G;
unicode = 0047;
},
{
glyphname = H;
layers = (
{
layerId = "6CA69755-92A4-402C-9A09-056914DDCECE";
paths = (
{
closed = 1;
nodes = (
"643 676 OFFCURVE",
"603 717 OFFCURVE",
"545 718 OFFCURVE",
"504 678 OFFCURVE",
"503 649 QCURVE SMOOTH",
"502 570 OFFCURVE",
"502 460 QCURVE",
"396 460 OFFCURVE",
"191 454 QCURVE",
"190 570 OFFCURVE",
"192 646 QCURVE SMOOTH",
"192 675 OFFCURVE",
"153 717 OFFCURVE",
"95 718 OFFCURVE",
"53 679 OFFCURVE",
"52 650 QCURVE SMOOTH",
"50 555 OFFCURVE",
"56 148 OFFCURVE",
"55 71 QCURVE SMOOTH",
"55 42 OFFCURVE",
"96 0 OFFCURVE",
"153 0 OFFCURVE",
"195 41 OFFCURVE",
"195 69 QCURVE SMOOTH",
"195 150 OFFCURVE",
"193 314 QCURVE",
"398 321 OFFCURVE",
"502 320 QCURVE",
"502 69 LINE SMOOTH",
"502 40 OFFCURVE",
"543 -1 OFFCURVE",
"601 -1 OFFCURVE",
"642 40 OFFCURVE",
"642 69 QCURVE SMOOTH",
"642 582 OFFCURVE",
"643 647 QCURVE",
"643 647 LINE"
);
}
);
userData = {
assembly = "PUSHW[ ]\011/* 1 value pushed */
10 
CALL[ ]\011/* CallFunction */
PUSHW[ ]\011/* 1 value pushed */
36 
MDAP[1]\011/* MoveDirectAbsPt */
PUSHW[ ]\011/* 1 value pushed */
7 
MDAP[1]\011/* MoveDirectAbsPt */
PUSHW[ ]\011/* 2 values pushed */
2 5 
MIRP[10100]\011/* MoveIndirectRelPt */
PUSHW[ ]\011/* 1 value pushed */
0 
MDRP[10000]\011/* MoveDirectRelPt */
PUSHW[ ]\011/* 1 value pushed */
0 
MDAP[1]\011/* MoveDirectAbsPt */
PUSHW[ ]\011/* 1 value pushed */
36 
SRP0[ ]\011/* SetRefPoint0 */
PUSHW[ ]\011/* 1 value pushed */
20 
MDRP[10000]\011/* MoveDirectRelPt */
PUSHW[ ]\011/* 1 value pushed */
20 
MDAP[1]\011/* MoveDirectAbsPt */
PUSHW[ ]\011/* 2 values pushed */
27 5 
MIRP[10100]\011/* MoveIndirectRelPt */
NPUSHW[ ]\011/* 7 values pushed */
22 27 38 27 54 27 3 
DELTAP1[ ]\011/* DeltaExceptionP1 */
PUSHW[ ]\011/* 1 value pushed */
10 
MDRP[10000]\011/* MoveDirectRelPt */
PUSHW[ ]\011/* 1 value pushed */
10 
MDAP[1]\011/* MoveDirectAbsPt */
PUSHW[ ]\011/* 1 value pushed */
27 
SRP0[ ]\011/* SetRefPoint0 */
PUSHW[ ]\011/* 1 value pushed */
12 
MDRP[10000]\011/* MoveDirectRelPt */
PUSHW[ ]\011/* 1 value pushed */
12 
MDAP[1]\011/* MoveDirectAbsPt */
PUSHW[ ]\011/* 1 value pushed */
20 
SRP0[ ]\011/* SetRefPoint0 */
PUSHW[ ]\011/* 1 value pushed */
17 
MDRP[10000]\011/* MoveDirectRelPt */
PUSHW[ ]\011/* 1 value pushed */
17 
MDAP[1]\011/* MoveDirectAbsPt */
PUSHW[ ]\011/* 1 value pushed */
27 
SRP0[ ]\011/* SetRefPoint0 */
PUSHW[ ]\011/* 1 value pushed */
25 
MDRP[10000]\011/* MoveDirectRelPt */
PUSHW[ ]\011/* 1 value pushed */
25 
MDAP[1]\011/* MoveDirectAbsPt */
PUSHW[ ]\011/* 1 value pushed */
7 
SRP0[ ]\011/* SetRefPoint0 */
PUSHW[ ]\011/* 1 value pushed */
29 
MDRP[10000]\011/* MoveDirectRelPt */
PUSHW[ ]\011/* 1 value pushed */
7 
SRP0[ ]\011/* SetRefPoint0 */
PUSHW[ ]\011/* 1 value pushed */
31 
MDRP[10000]\011/* MoveDirectRelPt */
PUSHW[ ]\011/* 1 value pushed */
31 
MDAP[1]\011/* MoveDirectAbsPt */
PUSHW[ ]\011/* 1 value pushed */
2 
SRP0[ ]\011/* SetRefPoint0 */
PUSHW[ ]\011/* 1 value pushed */
37 
MDRP[11100]\011/* MoveDirectRelPt */
SVTCA[0]\011/* SetFreedomAndProjectionVectorToAxis */
PUSHW[ ]\011/* 4 values pushed */
27 2 10 14 
CALL[ ]\011/* CallFunction */
PUSHW[ ]\011/* 1 value pushed */
10 
SRP0[ ]\011/* SetRefPoint0 */
PUSHW[ ]\011/* 1 value pushed */
8 
MDRP[10000]\011/* MoveDirectRelPt */
PUSHW[ ]\011/* 1 value pushed */
8 
MDAP[1]\011/* MoveDirectAbsPt */
PUSHW[ ]\011/* 1 value pushed */
27 
SRP0[ ]\011/* SetRefPoint0 */
PUSHW[ ]\011/* 1 value pushed */
29 
MDRP[10000]\011/* MoveDirectRelPt */
PUSHW[ ]\011/* 1 value pushed */
29 
MDAP[1]\011/* MoveDirectAbsPt */
IUP[0]\011/* InterpolateUntPts */
IUP[1]\011/* InterpolateUntPts */";
};
width = 693;
}
);
note = H;
unicode = 0048;
},
{
glyphname = I;
layers = (
{
layerId = "6CA69755-92A4-402C-9A09-056914DDCECE";
paths = (
{
closed = 1;
nodes = (
"93 715 OFFCURVE",
"51 675 OFFCURVE",
"51 646 QCURVE SMOOTH",
"51 620 OFFCURVE",
"83 582 OFFCURVE",
"107 577 QCURVE",
"109 310 OFFCURVE",
"108 136 QCURVE",
"83 132 OFFCURVE",
"50 91 OFFCURVE",
"50 65 QCURVE SMOOTH",
"51 36 OFFCURVE",
"93 -3 OFFCURVE",
"122 -3 QCURVE SMOOTH",
"239 0 LINE SMOOTH",
"268 1 OFFCURVE",
"307 43 OFFCURVE",
"307 72 QCURVE SMOOTH",
"306 97 OFFCURVE",
"273 135 OFFCURVE",
"248 139 QCURVE",
"249 312 OFFCURVE",
"246 575 QCURVE",
"271 580 OFFCURVE",
"304 618 OFFCURVE",
"304 643 QCURVE SMOOTH",
"304 672 OFFCURVE",
"264 714 OFFCURVE",
"235 714 QCURVE SMOOTH",
"122 715 LINE",
"122 715 LINE"
);
}
);
userData = {
assembly = "PUSHW[ ]\011/* 1 value pushed */
10 
CALL[ ]\011/* CallFunction */
PUSHW[ ]\011/* 4 values pushed */
7 5 27 14 
CALL[ ]\011/* CallFunction */
NPUSHW[ ]\011/* 7 values pushed */
22 7 38 7 54 7 3 
DELTAP1[ ]\011/* DeltaExceptionP1 */
PUSHW[ ]\011/* 1 value pushed */
7 
SRP0[ ]\011/* SetRefPoint0 */
PUSHW[ ]\011/* 2 values pushed */
24 5 
MIRP[10100]\011/* MoveIndirectRelPt */
PUSHW[ ]\011/* 2 values pushed */
12 5 
MIRP[10100]\011/* MoveIndirectRelPt */
PUSHW[ ]\011/* 1 value pushed */
4 
MDRP[10000]\011/* MoveDirectRelPt */
PUSHW[ ]\011/* 1 value pushed */
4 
MDAP[1]\011/* MoveDirectAbsPt */
PUSHW[ ]\011/* 1 value pushed */
7 
SRP0[ ]\011/* SetRefPoint0 */
PUSHW[ ]\011/* 1 value pushed */
9 
MDRP[10000]\011/* MoveDirectRelPt */
PUSHW[ ]\011/* 1 value pushed */
9 
MDAP[1]\011/* MoveDirectAbsPt */
PUSHW[ ]\011/* 1 value pushed */
27 
SRP0[ ]\011/* SetRefPoint0 */
PUSHW[ ]\011/* 1 value pushed */
19 
MDRP[10000]\011/* MoveDirectRelPt */
PUSHW[ ]\011/* 1 value pushed */
19 
MDAP[1]\011/* MoveDirectAbsPt */
PUSHW[ ]\011/* 1 value pushed */
24 
SRP0[ ]\011/* SetRefPoint0 */
PUSHW[ ]\011/* 1 value pushed */
22 
MDRP[10000]\011/* MoveDirectRelPt */
PUSHW[ ]\011/* 1 value pushed */
22 
MDAP[1]\011/* MoveDirectAbsPt */
SVTCA[0]\011/* SetFreedomAndProjectionVectorToAxis */
PUSHW[ ]\011/* 1 value pushed */
0 
MDAP[1]\011/* MoveDirectAbsPt */
PUSHW[ ]\011/* 1 value pushed */
1 
RCVT[ ]\011/* ReadCVT */
IF[ ]\011/* If */
PUSHW[ ]\011/* 1 value pushed */
16 
MDAP[1]\011/* MoveDirectAbsPt */
ELSE[ ]\011/* Else */
PUSHW[ ]\011/* 2 values pushed */
16 7 
MIAP[0]\011/* MoveIndirectAbsPt */
EIF[ ]\011/* EndIf */
IUP[0]\011/* InterpolateUntPts */
IUP[1]\011/* InterpolateUntPts */";
};
width = 357;
}
);
note = I;
unicode = 0049;
},
{
glyphname = J;
layers = (
{
layerId = "6CA69755-92A4-402C-9A09-056914DDCECE";
paths = (
{
closed = 1;
nodes = (
"253 715 OFFCURVE",
"213 672 OFFCURVE",
"215 615 OFFCURVE",
"258 575 OFFCURVE",
"315 577 OFFCURVE",
"336 578 QCURVE",
"341 503 OFFCURVE",
"344 444 OFFCURVE",
"346 337 OFFCURVE",
"334 251 OFFCURVE",
"322 209 QCURVE SMOOTH",
"316 187 OFFCURVE",
"282 150 OFFCURVE",
"262 142 QCURVE SMOOTH",
"232 130 OFFCURVE",
"212 160 QCURVE SMOOTH",
"208 165 OFFCURVE",
"204 181 QCURVE SMOOTH",
"201 194 LINE SMOOTH",
"199 202 OFFCURVE",
"199 203 QCURVE SMOOTH",
"195 219 OFFCURVE",
"191 231 QCURVE SMOOTH",
"182 258 OFFCURVE",
"131 284 OFFCURVE",
"76 266 OFFCURVE",
"50 215 OFFCURVE",
"59 187 QCURVE SMOOTH",
"61 181 OFFCURVE",
"63 170 QCURVE SMOOTH",
"69 147 OFFCURVE",
"69 146 QCURVE SMOOTH",
"79 107 OFFCURVE",
"96 82 QCURVE SMOOTH",
"124 42 OFFCURVE",
"200 -1 OFFCURVE",
"275 -1 OFFCURVE",
"314 13 QCURVE SMOOTH",
"364 32 OFFCURVE",
"441 118 OFFCURVE",
"456 171 QCURVE SMOOTH",
"474 234 OFFCURVE",
"480 316 QCURVE SMOOTH",
"486 387 OFFCURVE",
"482 490 OFFCURVE",
"476 578 QCURVE",
"500 578 OFFCURVE",
"524 576 QCURVE SMOOTH",
"553 575 OFFCURVE",
"596 613 OFFCURVE",
"599 671 OFFCURVE",
"561 714 OFFCURVE",
"532 716 QCURVE SMOOTH",
"435 721 OFFCURVE",
"281 716 QCURVE",
"281 716 LINE"
);
}
);
userData = {
assembly = "PUSHW[ ]\011/* 1 value pushed */
10 
CALL[ ]\011/* CallFunction */
PUSHW[ ]\011/* 4 values pushed */
12 5 49 14 
CALL[ ]\011/* CallFunction */
PUSHW[ ]\011/* 1 value pushed */
12 
SRP0[ ]\011/* SetRefPoint0 */
PUSHW[ ]\011/* 1 value pushed */
9 
MDRP[10000]\011/* MoveDirectRelPt */
PUSHW[ ]\011/* 1 value pushed */
9 
MDAP[1]\011/* MoveDirectAbsPt */
NPUSHW[ ]\011/* 7 values pushed */
25 49 41 49 57 49 3 
DELTAP1[ ]\011/* DeltaExceptionP1 */
SVTCA[0]\011/* SetFreedomAndProjectionVectorToAxis */
PUSHW[ ]\011/* 4 values pushed */
2 2 9 14 
CALL[ ]\011/* CallFunction */
PUSHW[ ]\011/* 1 value pushed */
2 
SRP0[ ]\011/* SetRefPoint0 */
PUSHW[ ]\011/* 1 value pushed */
0 
MDRP[10000]\011/* MoveDirectRelPt */
PUSHW[ ]\011/* 1 value pushed */
9 
SRP0[ ]\011/* SetRefPoint0 */
PUSHW[ ]\011/* 1 value pushed */
7 
MDRP[10000]\011/* MoveDirectRelPt */
PUSHW[ ]\011/* 1 value pushed */
7 
MDAP[1]\011/* MoveDirectAbsPt */
PUSHW[ ]\011/* 1 value pushed */
9 
SRP0[ ]\011/* SetRefPoint0 */
PUSHW[ ]\011/* 1 value pushed */
49 
MDRP[10000]\011/* MoveDirectRelPt */
IUP[0]\011/* InterpolateUntPts */
IUP[1]\011/* InterpolateUntPts */";
};
width = 649;
}
);
note = J;
unicode = 004A;
},
{
glyphname = K;
layers = (
{
layerId = "6CA69755-92A4-402C-9A09-056914DDCECE";
paths = (
{
closed = 1;
nodes = (
"194 686 OFFCURVE",
"154 727 OFFCURVE",
"96 728 OFFCURVE",
"55 688 OFFCURVE",
"54 659 QCURVE SMOOTH",
"50 367 OFFCURVE",
"65 59 QCURVE SMOOTH",
"67 30 OFFCURVE",
"110 -9 OFFCURVE",
"167 -6 OFFCURVE",
"206 37 OFFCURVE",
"205 65 QCURVE SMOOTH",
"201 159 OFFCURVE",
"198 240 QCURVE",
"282 309 LINE",
"507 20 LINE SMOOTH",
"525 -3 OFFCURVE",
"583 -10 OFFCURVE",
"628 26 OFFCURVE",
"631 55 QCURVE SMOOTH",
"635 84 OFFCURVE",
"617 106 QCURVE SMOOTH",
"387 402 LINE",
"489 495 OFFCURVE",
"587 607 QCURVE SMOOTH",
"607 629 OFFCURVE",
"605 686 OFFCURVE",
"562 726 OFFCURVE",
"505 724 OFFCURVE",
"485 703 QCURVE SMOOTH",
"351 552 OFFCURVE",
"194 418 QCURVE",
"192 530 OFFCURVE",
"194 657 QCURVE",
"194 657 LINE"
);
}
);
userData = {
assembly = "PUSHW[ ]\011/* 1 value pushed */
10 
CALL[ ]\011/* CallFunction */
PUSHW[ ]\011/* 4 values pushed */
20 5 29 14 
CALL[ ]\011/* CallFunction */
PUSHW[ ]\011/* 1 value pushed */
20 
SRP0[ ]\011/* SetRefPoint0 */
PUSHW[ ]\011/* 1 value pushed */
0 
MDRP[10000]\011/* MoveDirectRelPt */
PUSHW[ ]\011/* 1 value pushed */
0 
MDAP[1]\011/* MoveDirectAbsPt */
PUSHW[ ]\011/* 1 value pushed */
20 
SRP0[ ]\011/* SetRefPoint0 */
PUSHW[ ]\011/* 1 value pushed */
2 
MDRP[10000]\011/* MoveDirectRelPt */
PUSHW[ ]\011/* 1 value pushed */
2 
MDAP[1]\011/* MoveDirectAbsPt */
PUSHW[ ]\011/* 1 value pushed */
20 
SRP0[ ]\011/* SetRefPoint0 */
PUSHW[ ]\011/* 1 value pushed */
22 
MDRP[10000]\011/* MoveDirectRelPt */
PUSHW[ ]\011/* 1 value pushed */
22 
MDAP[1]\011/* MoveDirectAbsPt */
IUP[0]\011/* InterpolateUntPts */
IUP[1]\011/* InterpolateUntPts */";
};
width = 685;
}
);
note = K;
unicode = 004B;
},
{
glyphname = L;
layers = (
{
layerId = "6CA69755-92A4-402C-9A09-056914DDCECE";
paths = (
{
closed = 1;
nodes = (
"99 -1 OFFCURVE",
"133 -2 QCURVE SMOOTH",
"166 -3 OFFCURVE",
"305 -2 QCURVE SMOOTH",
"443 -1 OFFCURVE",
"476 -1 QCURVE SMOOTH",
"505 -1 OFFCURVE",
"546 40 OFFCURVE",
"546 98 OFFCURVE",
"505 139 OFFCURVE",
"476 139 QCURVE SMOOTH",
"432 139 OFFCURVE",
"245 137 OFFCURVE",
"196 137 QCURVE",
"193 385 LINE",
"190 647 LINE SMOOTH",
"189 676 OFFCURVE",
"148 716 OFFCURVE",
"90 715 OFFCURVE",
"50 674 OFFCURVE",
"50 645 QCURVE SMOOTH",
"53 364 LINE SMOOTH",
"56 177 OFFCURVE",
"57 75 QCURVE SMOOTH",
"58 46 OFFCURVE",
"78 26 QCURVE",
"78 26 LINE"
);
}
);
userData = {
assembly = "PUSHW[ ]\011/* 1 value pushed */
10 
CALL[ ]\011/* CallFunction */
PUSHW[ ]\011/* 4 values pushed */
10 5 5 14 
CALL[ ]\011/* CallFunction */
PUSHW[ ]\011/* 1 value pushed */
5 
SRP0[ ]\011/* SetRefPoint0 */
PUSHW[ ]\011/* 1 value pushed */
2 
MDRP[10000]\011/* MoveDirectRelPt */
PUSHW[ ]\011/* 1 value pushed */
2 
MDAP[1]\011/* MoveDirectAbsPt */
PUSHW[ ]\011/* 1 value pushed */
10 
SRP0[ ]\011/* SetRefPoint0 */
PUSHW[ ]\011/* 1 value pushed */
12 
MDRP[10000]\011/* MoveDirectRelPt */
PUSHW[ ]\011/* 1 value pushed */
12 
MDAP[1]\011/* MoveDirectAbsPt */
SVTCA[0]\011/* SetFreedomAndProjectionVectorToAxis */
PUSHW[ ]\011/* 1 value pushed */
1 
RCVT[ ]\011/* ReadCVT */
IF[ ]\011/* If */
PUSHW[ ]\011/* 1 value pushed */
20 
MDAP[1]\011/* MoveDirectAbsPt */
ELSE[ ]\011/* Else */
PUSHW[ ]\011/* 2 values pushed */
20 7 
MIAP[0]\011/* MoveIndirectAbsPt */
EIF[ ]\011/* EndIf */
PUSHW[ ]\011/* 1 value pushed */
1 
RCVT[ ]\011/* ReadCVT */
IF[ ]\011/* If */
PUSHW[ ]\011/* 1 value pushed */
22 
MDAP[1]\011/* MoveDirectAbsPt */
ELSE[ ]\011/* Else */
PUSHW[ ]\011/* 2 values pushed */
22 7 
MIAP[0]\011/* MoveIndirectAbsPt */
EIF[ ]\011/* EndIf */
PUSHW[ ]\011/* 1 value pushed */
1 
RCVT[ ]\011/* ReadCVT */
IF[ ]\011/* If */
PUSHW[ ]\011/* 1 value pushed */
24 
MDAP[1]\011/* MoveDirectAbsPt */
ELSE[ ]\011/* Else */
PUSHW[ ]\011/* 2 values pushed */
24 7 
MIAP[0]\011/* MoveIndirectAbsPt */
EIF[ ]\011/* EndIf */
PUSHW[ ]\011/* 2 values pushed */
12 2 
MIRP[10100]\011/* MoveIndirectRelPt */
PUSHW[ ]\011/* 1 value pushed */
15 
MDRP[10000]\011/* MoveDirectRelPt */
IUP[0]\011/* InterpolateUntPts */
IUP[1]\011/* InterpolateUntPts */";
};
width = 596;
}
);
note = L;
unicode = 004C;
},
{
glyphname = M;
layers = (
{
layerId = "6CA69755-92A4-402C-9A09-056914DDCECE";
paths = (
{
closed = 1;
nodes = (
"763 672 OFFCURVE",
"723 714 OFFCURVE",
"694 715 QCURVE SMOOTH",
"653 716 OFFCURVE",
"632 680 QCURVE",
"520 560 OFFCURVE",
"412 410 QCURVE",
"190 689 LINE SMOOTH",
"173 712 OFFCURVE",
"145 716 QCURVE",
"132 721 OFFCURVE",
"117 720 QCURVE SMOOTH",
"88 718 OFFCURVE",
"50 674 OFFCURVE",
"52 645 QCURVE SMOOTH",
"57 569 OFFCURVE",
"59 498 QCURVE SMOOTH",
"61 418 OFFCURVE",
"61 310 OFFCURVE",
"60 112 OFFCURVE",
"60 70 QCURVE SMOOTH",
"60 41 OFFCURVE",
"101 0 OFFCURVE",
"159 0 OFFCURVE",
"200 41 OFFCURVE",
"200 70 QCURVE SMOOTH",
"200 71 OFFCURVE",
"201 450 OFFCURVE",
"200 452 QCURVE",
"354 258 LINE SMOOTH",
"362 248 OFFCURVE",
"373 241 QCURVE",
"375 239 OFFCURVE",
"378 237 QCURVE SMOOTH",
"402 221 OFFCURVE",
"458 232 OFFCURVE",
"475 256 QCURVE SMOOTH",
"547 362 OFFCURVE",
"621 455 QCURVE",
"625 136 OFFCURVE",
"623 71 QCURVE SMOOTH",
"622 42 OFFCURVE",
"662 0 OFFCURVE",
"720 -2 OFFCURVE",
"762 38 OFFCURVE",
"763 67 QCURVE SMOOTH",
"765 157 OFFCURVE",
"759 548 OFFCURVE",
"762 643 QCURVE",
"762 643 LINE"
);
}
);
userData = {
assembly = "PUSHW[ ]\011/* 1 value pushed */
10 
CALL[ ]\011/* CallFunction */
PUSHW[ ]\011/* 1 value pushed */
49 
MDAP[1]\011/* MoveDirectAbsPt */
PUSHW[ ]\011/* 1 value pushed */
10 
MDAP[1]\011/* MoveDirectAbsPt */
NPUSHW[ ]\011/* 7 values pushed */
25 10 41 10 57 10 3 
DELTAP1[ ]\011/* DeltaExceptionP1 */
PUSHW[ ]\011/* 2 values pushed */
0 5 
MIRP[10100]\011/* MoveIndirectRelPt */
PUSHW[ ]\011/* 1 value pushed */
3 
MDRP[10000]\011/* MoveDirectRelPt */
PUSHW[ ]\011/* 1 value pushed */
3 
MDAP[1]\011/* MoveDirectAbsPt */
PUSHW[ ]\011/* 1 value pushed */
10 
SRP0[ ]\011/* SetRefPoint0 */
PUSHW[ ]\011/* 1 value pushed */
8 
MDRP[10000]\011/* MoveDirectRelPt */
PUSHW[ ]\011/* 1 value pushed */
8 
MDAP[1]\011/* MoveDirectAbsPt */
PUSHW[ ]\011/* 1 value pushed */
49 
SRP0[ ]\011/* SetRefPoint0 */
PUSHW[ ]\011/* 1 value pushed */
34 
MDRP[10000]\011/* MoveDirectRelPt */
PUSHW[ ]\011/* 1 value pushed */
34 
MDAP[1]\011/* MoveDirectAbsPt */
PUSHW[ ]\011/* 2 values pushed */
20 5 
MIRP[10100]\011/* MoveIndirectRelPt */
PUSHW[ ]\011/* 1 value pushed */
23 
MDRP[10000]\011/* MoveDirectRelPt */
PUSHW[ ]\011/* 1 value pushed */
34 
SRP0[ ]\011/* SetRefPoint0 */
PUSHW[ ]\011/* 1 value pushed */
32 
MDRP[10000]\011/* MoveDirectRelPt */
PUSHW[ ]\011/* 1 value pushed */
32 
MDAP[1]\011/* MoveDirectAbsPt */
PUSHW[ ]\011/* 3 values pushed */
42 34 3 
SRP1[ ]\011/* SetRefPoint1 */
SRP2[ ]\011/* SetRefPoint2 */
IP[ ]\011/* InterpolatePts */
PUSHW[ ]\011/* 1 value pushed */
0 
SRP0[ ]\011/* SetRefPoint0 */
PUSHW[ ]\011/* 1 value pushed */
50 
MDRP[11100]\011/* MoveDirectRelPt */
IUP[0]\011/* InterpolateUntPts */
IUP[1]\011/* InterpolateUntPts */";
};
width = 815;
}
);
note = M;
unicode = 004D;
},
{
glyphname = N;
layers = (
{
layerId = "6CA69755-92A4-402C-9A09-056914DDCECE";
paths = (
{
closed = 1;
nodes = (
"172 707 OFFCURVE",
"153 713 QCURVE SMOOTH",
"140 718 OFFCURVE",
"126 719 QCURVE SMOOTH",
"97 720 OFFCURVE",
"55 680 OFFCURVE",
"54 651 QCURVE SMOOTH",
"50 550 OFFCURVE",
"61 157 OFFCURVE",
"61 69 QCURVE SMOOTH",
"61 40 OFFCURVE",
"102 -1 OFFCURVE",
"160 -1 OFFCURVE",
"201 40 OFFCURVE",
"201 69 QCURVE SMOOTH",
"201 160 OFFCURVE",
"193 435 OFFCURVE",
"192 475 QCURVE",
"238 419 OFFCURVE",
"349 262 QCURVE SMOOTH",
"451 107 OFFCURVE",
"518 28 QCURVE SMOOTH",
"544 -3 OFFCURVE",
"583 4 QCURVE",
"611 6 OFFCURVE",
"649 45 OFFCURVE",
"650 73 QCURVE SMOOTH",
"654 516 OFFCURVE",
"653 652 QCURVE SMOOTH",
"652 681 OFFCURVE",
"611 721 OFFCURVE",
"553 720 OFFCURVE",
"513 679 OFFCURVE",
"513 650 QCURVE SMOOTH",
"515 505 OFFCURVE",
"512 273 QCURVE",
"464 342 LINE SMOOTH",
"354 498 OFFCURVE",
"298 556 QCURVE",
"279 579 OFFCURVE",
"203 670 OFFCURVE",
"186 691 QCURVE",
"186 691 LINE"
);
}
);
userData = {
assembly = "PUSHW[ ]\011/* 1 value pushed */
10 
CALL[ ]\011/* CallFunction */
PUSHW[ ]\011/* 1 value pushed */
42 
MDAP[1]\011/* MoveDirectAbsPt */
PUSHW[ ]\011/* 1 value pushed */
6 
MDAP[1]\011/* MoveDirectAbsPt */
PUSHW[ ]\011/* 1 value pushed */
8 
MDRP[10000]\011/* MoveDirectRelPt */
PUSHW[ ]\011/* 1 value pushed */
8 
MDAP[1]\011/* MoveDirectAbsPt */
PUSHW[ ]\011/* 1 value pushed */
6 
SRP0[ ]\011/* SetRefPoint0 */
PUSHW[ ]\011/* 2 values pushed */
15 5 
MIRP[10100]\011/* MoveIndirectRelPt */
PUSHW[ ]\011/* 1 value pushed */
13 
MDRP[10000]\011/* MoveDirectRelPt */
PUSHW[ ]\011/* 1 value pushed */
13 
MDAP[1]\011/* MoveDirectAbsPt */
PUSHW[ ]\011/* 1 value pushed */
6 
SRP0[ ]\011/* SetRefPoint0 */
PUSHW[ ]\011/* 1 value pushed */
20 
MDRP[10000]\011/* MoveDirectRelPt */
PUSHW[ ]\011/* 1 value pushed */
20 
MDAP[1]\011/* MoveDirectAbsPt */
PUSHW[ ]\011/* 1 value pushed */
42 
SRP0[ ]\011/* SetRefPoint0 */
PUSHW[ ]\011/* 1 value pushed */
35 
MDRP[10000]\011/* MoveDirectRelPt */
PUSHW[ ]\011/* 1 value pushed */
35 
MDAP[1]\011/* MoveDirectAbsPt */
PUSHW[ ]\011/* 2 values pushed */
27 5 
MIRP[10100]\011/* MoveIndirectRelPt */
NPUSHW[ ]\011/* 7 values pushed */
22 27 38 27 54 27 3 
DELTAP1[ ]\011/* DeltaExceptionP1 */
PUSHW[ ]\011/* 3 values pushed */
24 35 27 
SRP1[ ]\011/* SetRefPoint1 */
SRP2[ ]\011/* SetRefPoint2 */
IP[ ]\011/* InterpolatePts */
PUSHW[ ]\011/* 1 value pushed */
35 
SRP0[ ]\011/* SetRefPoint0 */
PUSHW[ ]\011/* 1 value pushed */
32 
MDRP[10000]\011/* MoveDirectRelPt */
PUSHW[ ]\011/* 1 value pushed */
32 
MDAP[1]\011/* MoveDirectAbsPt */
PUSHW[ ]\011/* 1 value pushed */
15 
SRP0[ ]\011/* SetRefPoint0 */
PUSHW[ ]\011/* 1 value pushed */
43 
MDRP[11100]\011/* MoveDirectRelPt */
SVTCA[0]\011/* SetFreedomAndProjectionVectorToAxis */
PUSHW[ ]\011/* 1 value pushed */
38 
MDAP[1]\011/* MoveDirectAbsPt */
PUSHW[ ]\011/* 1 value pushed */
40 
MDAP[1]\011/* MoveDirectAbsPt */
IUP[0]\011/* InterpolateUntPts */
IUP[1]\011/* InterpolateUntPts */";
};
width = 704;
}
);
note = N;
unicode = 004E;
},
{
glyphname = O;
layers = (
{
layerId = "6CA69755-92A4-402C-9A09-056914DDCECE";
paths = (
{
closed = 1;
nodes = (
"396 586 OFFCURVE",
"441 584 OFFCURVE",
"454 583 OFFCURVE",
"478 578 OFFCURVE",
"494 569 OFFCURVE",
"507 560 QCURVE SMOOTH",
"560 524 OFFCURVE",
"590 386 OFFCURVE",
"562 301 QCURVE SMOOTH",
"534 225 OFFCURVE",
"422 132 OFFCURVE",
"357 135 QCURVE SMOOTH",
"281 137 OFFCURVE",
"194 246 OFFCURVE",
"192 331 QCURVE SMOOTH",
"190 427 OFFCURVE",
"272 566 OFFCURVE",
"342 587 QCURVE SMOOTH",
"345 588 OFFCURVE",
"357 588 QCURVE SMOOTH",
"361 588 OFFCURVE",
"377 587 OFFCURVE",
"381 587 QCURVE",
"381 587 LINE"
);
},
{
closed = 1;
nodes = (
"399 724 OFFCURVE",
"391 724 QCURVE SMOOTH",
"388 724 LINE",
"380 724 LINE",
"371 724 LINE",
"359 724 LINE SMOOTH",
"328 725 OFFCURVE",
"303 718 QCURVE SMOOTH",
"240 700 OFFCURVE",
"141 618 OFFCURVE",
"83 512 OFFCURVE",
"53 395 OFFCURVE",
"55 327 QCURVE SMOOTH",
"56 267 OFFCURVE",
"94 155 OFFCURVE",
"164 59 OFFCURVE",
"279 0 OFFCURVE",
"353 -3 QCURVE SMOOTH",
"413 -5 OFFCURVE",
"524 37 OFFCURVE",
"609 111 OFFCURVE",
"672 203 OFFCURVE",
"691 255 QCURVE SMOOTH",
"717 326 OFFCURVE",
"719 482 OFFCURVE",
"652 627 OFFCURVE",
"583 674 QCURVE SMOOTH",
"552 695 OFFCURVE",
"488 717 OFFCURVE",
"450 721 OFFCURVE",
"418 722 QCURVE SMOOTH",
"410 722 OFFCURVE",
"407 723 QCURVE",
"407 723 LINE"
);
}
);
userData = {
assembly = "PUSHW[ ]\011/* 1 value pushed */
10 
CALL[ ]\011/* CallFunction */
PUSHW[ ]\011/* 4 values pushed */
8 5 43 14 
CALL[ ]\011/* CallFunction */
NPUSHW[ ]\011/* 7 values pushed */
22 8 38 8 54 8 3 
DELTAP1[ ]\011/* DeltaExceptionP1 */
SVTCA[0]\011/* SetFreedomAndProjectionVectorToAxis */
PUSHW[ ]\011/* 1 value pushed */
23 
MDAP[1]\011/* MoveDirectAbsPt */
PUSHW[ ]\011/* 1 value pushed */
25 
MDAP[1]\011/* MoveDirectAbsPt */
PUSHW[ ]\011/* 1 value pushed */
48 
MDAP[1]\011/* MoveDirectAbsPt */
PUSHW[ ]\011/* 1 value pushed */
50 
MDAP[1]\011/* MoveDirectAbsPt */
PUSHW[ ]\011/* 1 value pushed */
52 
MDAP[1]\011/* MoveDirectAbsPt */
PUSHW[ ]\011/* 1 value pushed */
54 
MDAP[1]\011/* MoveDirectAbsPt */
PUSHW[ ]\011/* 1 value pushed */
1 
RCVT[ ]\011/* ReadCVT */
IF[ ]\011/* If */
PUSHW[ ]\011/* 1 value pushed */
38 
MDAP[1]\011/* MoveDirectAbsPt */
ELSE[ ]\011/* Else */
PUSHW[ ]\011/* 2 values pushed */
38 7 
MIAP[0]\011/* MoveIndirectAbsPt */
EIF[ ]\011/* EndIf */
PUSHW[ ]\011/* 2 values pushed */
11 2 
MIRP[10100]\011/* MoveIndirectRelPt */
NPUSHW[ ]\011/* 7 values pushed */
23 11 39 11 55 11 3 
DELTAP1[ ]\011/* DeltaExceptionP1 */
IUP[0]\011/* InterpolateUntPts */
IUP[1]\011/* InterpolateUntPts */";
};
width = 777;
}
);
note = O;
unicode = 004F;
},
{
glyphname = P;
layers = (
{
layerId = "6CA69755-92A4-402C-9A09-056914DDCECE";
paths = (
{
closed = 1;
nodes = (
"191 513 OFFCURVE",
"192 580 QCURVE",
"272 592 OFFCURVE",
"322 589 QCURVE SMOOTH",
"397 585 OFFCURVE",
"429 546 QCURVE SMOOTH",
"445 526 OFFCURVE",
"454 484 OFFCURVE",
"448 469 OFFCURVE",
"440 460 QCURVE SMOOTH",
"424 441 OFFCURVE",
"358 414 OFFCURVE",
"321 413 QCURVE SMOOTH",
"303 412 OFFCURVE",
"265 414 OFFCURVE",
"239 416 QCURVE SMOOTH",
"192 421 LINE",
"191 421 LINE",
"191 421 LINE"
);
},
{
closed = 1;
nodes = (
"137 712 OFFCURVE",
"135 712 QCURVE SMOOTH",
"130 713 OFFCURVE",
"125 713 QCURVE SMOOTH",
"96 713 OFFCURVE",
"54 674 OFFCURVE",
"53 645 QCURVE SMOOTH",
"50 616 OFFCURVE",
"54 92 OFFCURVE",
"54 34 OFFCURVE",
"95 -7 OFFCURVE",
"153 -7 OFFCURVE",
"194 34 OFFCURVE",
"194 63 QCURVE SMOOTH",
"194 130 OFFCURVE",
"192 281 QCURVE",
"196 280 OFFCURVE",
"261 274 OFFCURVE",
"307 272 OFFCURVE",
"327 273 QCURVE SMOOTH",
"388 276 OFFCURVE",
"506 324 OFFCURVE",
"545 367 QCURVE SMOOTH",
"593 418 OFFCURVE",
"591 568 OFFCURVE",
"537 634 QCURVE SMOOTH",
"467 720 OFFCURVE",
"331 729 QCURVE SMOOTH",
"262 733 OFFCURVE",
"140 713 QCURVE",
"140 713 LINE"
);
}
);
userData = {
assembly = "PUSHW[ ]\011/* 1 value pushed */
10 
CALL[ ]\011/* CallFunction */
PUSHW[ ]\011/* 4 values pushed */
34 5 41 14 
CALL[ ]\011/* CallFunction */
NPUSHW[ ]\011/* 7 values pushed */
22 34 38 34 54 34 3 
DELTAP1[ ]\011/* DeltaExceptionP1 */
PUSHW[ ]\011/* 1 value pushed */
34 
SRP0[ ]\011/* SetRefPoint0 */
PUSHW[ ]\011/* 1 value pushed */
0 
MDRP[10000]\011/* MoveDirectRelPt */
PUSHW[ ]\011/* 1 value pushed */
0 
MDAP[1]\011/* MoveDirectAbsPt */
PUSHW[ ]\011/* 1 value pushed */
34 
SRP0[ ]\011/* SetRefPoint0 */
PUSHW[ ]\011/* 1 value pushed */
16 
MDRP[10000]\011/* MoveDirectRelPt */
PUSHW[ ]\011/* 1 value pushed */
16 
MDAP[1]\011/* MoveDirectAbsPt */
PUSHW[ ]\011/* 1 value pushed */
34 
SRP0[ ]\011/* SetRefPoint0 */
PUSHW[ ]\011/* 1 value pushed */
32 
MDRP[10000]\011/* MoveDirectRelPt */
PUSHW[ ]\011/* 1 value pushed */
32 
MDAP[1]\011/* MoveDirectAbsPt */
SVTCA[0]\011/* SetFreedomAndProjectionVectorToAxis */
PUSHW[ ]\011/* 1 value pushed */
1 
RCVT[ ]\011/* ReadCVT */
IF[ ]\011/* If */
PUSHW[ ]\011/* 1 value pushed */
20 
MDAP[1]\011/* MoveDirectAbsPt */
ELSE[ ]\011/* Else */
PUSHW[ ]\011/* 2 values pushed */
20 13 
MIAP[0]\011/* MoveIndirectAbsPt */
EIF[ ]\011/* EndIf */
PUSHW[ ]\011/* 4 values pushed */
5 2 28 14 
CALL[ ]\011/* CallFunction */
PUSHW[ ]\011/* 1 value pushed */
5 
SRP0[ ]\011/* SetRefPoint0 */
PUSHW[ ]\011/* 1 value pushed */
2 
MDRP[10000]\011/* MoveDirectRelPt */
PUSHW[ ]\011/* 1 value pushed */
2 
MDAP[1]\011/* MoveDirectAbsPt */
PUSHW[ ]\011/* 1 value pushed */
20 
SRP0[ ]\011/* SetRefPoint0 */
PUSHW[ ]\011/* 2 values pushed */
14 2 
MIRP[10100]\011/* MoveIndirectRelPt */
NPUSHW[ ]\011/* 7 values pushed */
24 14 40 14 56 14 3 
DELTAP1[ ]\011/* DeltaExceptionP1 */
IUP[0]\011/* InterpolateUntPts */
IUP[1]\011/* InterpolateUntPts */";
};
width = 643;
}
);
note = P;
unicode = 0050;
},
{
glyphname = Q;
layers = (
{
layerId = "6CA69755-92A4-402C-9A09-056914DDCECE";
paths = (
{
closed = 1;
nodes = (
"317 582 OFFCURVE",
"329 582 QCURVE SMOOTH",
"359 585 OFFCURVE",
"410 592 QCURVE SMOOTH",
"442 596 OFFCURVE",
"455 596 QCURVE SMOOTH",
"480 595 OFFCURVE",
"518 560 QCURVE SMOOTH",
"579 505 OFFCURVE",
"611 299 OFFCURVE",
"569 229 QCURVE SMOOTH",
"561 216 OFFCURVE",
"544 201 QCURVE",
"510 225 OFFCURVE",
"471 258 QCURVE SMOOTH",
"449 278 OFFCURVE",
"393 274 OFFCURVE",
"355 230 OFFCURVE",
"357 203 QCURVE SMOOTH",
"359 174 OFFCURVE",
"380 156 QCURVE SMOOTH",
"404 135 LINE",
"361 131 OFFCURVE",
"298 161 QCURVE SMOOTH",
"254 183 OFFCURVE",
"225 223 QCURVE SMOOTH",
"196 262 OFFCURVE",
"178 357 OFFCURVE",
"192 454 OFFCURVE",
"220 501 QCURVE SMOOTH",
"248 546 OFFCURVE",
"291 577 QCURVE",
"298 581 OFFCURVE",
"305 585 QCURVE",
"305 585 LINE"
);
},
{
closed = 1;
nodes = (
"347 754 OFFCURVE",
"307 735 QCURVE",
"306 734 OFFCURVE",
"266 719 OFFCURVE",
"225 699 OFFCURVE",
"211 689 QCURVE SMOOTH",
"159 651 OFFCURVE",
"83 543 OFFCURVE",
"44 423 OFFCURVE",
"44 292 OFFCURVE",
"82 173 OFFCURVE",
"172 70 OFFCURVE",
"237 37 QCURVE SMOOTH",
"305 5 OFFCURVE",
"417 -8 OFFCURVE",
"492 14 QCURVE SMOOTH",
"519 23 OFFCURVE",
"548 37 QCURVE",
"590 15 OFFCURVE",
"649 -9 QCURVE SMOOTH",
"676 -21 OFFCURVE",
"728 2 OFFCURVE",
"751 54 OFFCURVE",
"728 106 OFFCURVE",
"703 117 QCURVE SMOOTH",
"668 132 LINE",
"679 145 OFFCURVE",
"687 158 QCURVE SMOOTH",
"731 232 OFFCURVE",
"741 426 OFFCURVE",
"674 604 OFFCURVE",
"611 662 QCURVE SMOOTH",
"572 698 OFFCURVE",
"501 732 OFFCURVE",
"459 733 QCURVE SMOOTH",
"435 734 OFFCURVE",
"391 728 QCURVE SMOOTH",
"380 726 LINE",
"380 726 LINE"
);
}
);
width = 822;
}
);
note = Q;
unicode = 0051;
},
{
glyphname = R;
layers = (
{
layerId = "6CA69755-92A4-402C-9A09-056914DDCECE";
paths = (
{
closed = 1;
nodes = (
"383 297 OFFCURVE",
"408 274 QCURVE SMOOTH",
"431 253 OFFCURVE",
"449 208 QCURVE SMOOTH",
"466 156 OFFCURVE",
"489 53 QCURVE SMOOTH",
"496 25 OFFCURVE",
"546 -5 OFFCURVE",
"602 9 OFFCURVE",
"632 59 OFFCURVE",
"625 87 QCURVE SMOOTH",
"602 198 OFFCURVE",
"558 315 OFFCURVE",
"522 357 QCURVE",
"616 413 OFFCURVE",
"622 509 QCURVE SMOOTH",
"627 607 OFFCURVE",
"544 665 QCURVE SMOOTH",
"489 704 OFFCURVE",
"394 718 QCURVE SMOOTH",
"271 737 OFFCURVE",
"128 719 QCURVE",
"123 719 LINE SMOOTH",
"94 719 OFFCURVE",
"53 678 OFFCURVE",
"53 649 QCURVE SMOOTH",
"53 556 OFFCURVE",
"57 182 OFFCURVE",
"57 69 QCURVE SMOOTH",
"57 40 OFFCURVE",
"98 -1 OFFCURVE",
"156 -1 OFFCURVE",
"197 40 OFFCURVE",
"197 69 QCURVE SMOOTH",
"197 163 OFFCURVE",
"196 299 QCURVE",
"201 299 LINE",
"226 299 LINE SMOOTH",
"247 300 OFFCURVE",
"286 301 QCURVE SMOOTH",
"287 301 OFFCURVE",
"325 302 OFFCURVE",
"336 303 QCURVE",
"336 303 LINE"
);
},
{
closed = 1;
nodes = (
"280 449 OFFCURVE",
"197 439 QCURVE SMOOTH",
"194 439 LINE",
"193 524 OFFCURVE",
"193 585 QCURVE",
"296 592 OFFCURVE",
"372 580 QCURVE SMOOTH",
"435 571 OFFCURVE",
"465 550 QCURVE SMOOTH",
"484 537 OFFCURVE",
"482 517 QCURVE SMOOTH",
"481 494 OFFCURVE",
"448 475 QCURVE SMOOTH",
"412 455 OFFCURVE",
"353 445 QCURVE SMOOTH",
"347 444 OFFCURVE",
"339 443 QCURVE",
"339 443 LINE"
);
}
);
userData = {
assembly = "PUSHW[ ]\011/* 1 value pushed */
10 
CALL[ ]\011/* CallFunction */
PUSHW[ ]\011/* 4 values pushed */
57 5 14 14 
CALL[ ]\011/* CallFunction */
NPUSHW[ ]\011/* 7 values pushed */
22 57 38 57 54 57 3 
DELTAP1[ ]\011/* DeltaExceptionP1 */
PUSHW[ ]\011/* 1 value pushed */
57 
SRP0[ ]\011/* SetRefPoint0 */
PUSHW[ ]\011/* 1 value pushed */
7 
MDRP[10000]\011/* MoveDirectRelPt */
PUSHW[ ]\011/* 1 value pushed */
7 
MDAP[1]\011/* MoveDirectAbsPt */
PUSHW[ ]\011/* 1 value pushed */
57 
SRP0[ ]\011/* SetRefPoint0 */
PUSHW[ ]\011/* 1 value pushed */
9 
MDRP[10000]\011/* MoveDirectRelPt */
PUSHW[ ]\011/* 1 value pushed */
9 
MDAP[1]\011/* MoveDirectAbsPt */
PUSHW[ ]\011/* 1 value pushed */
14 
SRP0[ ]\011/* SetRefPoint0 */
PUSHW[ ]\011/* 1 value pushed */
17 
MDRP[10000]\011/* MoveDirectRelPt */
PUSHW[ ]\011/* 1 value pushed */
17 
MDAP[1]\011/* MoveDirectAbsPt */
PUSHW[ ]\011/* 1 value pushed */
57 
SRP0[ ]\011/* SetRefPoint0 */
PUSHW[ ]\011/* 1 value pushed */
55 
MDRP[10000]\011/* MoveDirectRelPt */
PUSHW[ ]\011/* 1 value pushed */
55 
MDAP[1]\011/* MoveDirectAbsPt */
IUP[0]\011/* InterpolateUntPts */
IUP[1]\011/* InterpolateUntPts */";
};
width = 685;
}
);
note = R;
unicode = 0052;
},
{
glyphname = S;
layers = (
{
layerId = "6CA69755-92A4-402C-9A09-056914DDCECE";
paths = (
{
closed = 1;
nodes = (
"455 449 OFFCURVE",
"507 423 OFFCURVE",
"561 441 OFFCURVE",
"587 493 OFFCURVE",
"578 520 QCURVE SMOOTH",
"576 527 OFFCURVE",
"571 549 OFFCURVE",
"570 551 QCURVE",
"562 584 OFFCURVE",
"547 605 QCURVE SMOOTH",
"510 663 OFFCURVE",
"368 727 OFFCURVE",
"294 727 QCURVE SMOOTH",
"257 727 OFFCURVE",
"186 709 OFFCURVE",
"119 670 OFFCURVE",
"73 599 OFFCURVE",
"66 552 QCURVE SMOOTH",
"50 445 OFFCURVE",
"138 377 QCURVE SMOOTH",
"182 343 OFFCURVE",
"289 307 QCURVE SMOOTH",
"389 273 OFFCURVE",
"418 257 QCURVE SMOOTH",
"456 236 OFFCURVE",
"460 213 QCURVE SMOOTH",
"463 192 OFFCURVE",
"421 148 OFFCURVE",
"369 136 QCURVE SMOOTH",
"310 125 OFFCURVE",
"236 143 OFFCURVE",
"225 161 QCURVE SMOOTH",
"220 168 OFFCURVE",
"217 186 QCURVE SMOOTH",
"216 191 OFFCURVE",
"212 209 OFFCURVE",
"212 210 QCURVE SMOOTH",
"209 227 OFFCURVE",
"205 240 QCURVE SMOOTH",
"197 268 OFFCURVE",
"147 296 OFFCURVE",
"91 280 OFFCURVE",
"63 230 OFFCURVE",
"71 202 QCURVE SMOOTH",
"73 195 OFFCURVE",
"75 183 QCURVE SMOOTH",
"80 158 OFFCURVE",
"80 157 QCURVE SMOOTH",
"89 116 OFFCURVE",
"105 89 QCURVE SMOOTH",
"128 52 OFFCURVE",
"201 6 OFFCURVE",
"283 -10 OFFCURVE",
"323 -9 QCURVE SMOOTH",
"363 -9 OFFCURVE",
"401 0 QCURVE SMOOTH",
"439 9 OFFCURVE",
"475 27 QCURVE SMOOTH",
"510 44 OFFCURVE",
"574 100 OFFCURVE",
"606 185 OFFCURVE",
"598 235 QCURVE SMOOTH",
"583 326 OFFCURVE",
"485 380 QCURVE SMOOTH",
"447 401 OFFCURVE",
"333 439 QCURVE SMOOTH",
"250 467 OFFCURVE",
"223 488 QCURVE SMOOTH",
"210 498 OFFCURVE",
"202 517 OFFCURVE",
"204 532 QCURVE SMOOTH",
"212 588 OFFCURVE",
"293 588 QCURVE SMOOTH",
"338 587 OFFCURVE",
"415 552 OFFCURVE",
"431 529 QCURVE",
"432 526 OFFCURVE",
"435 516 QCURVE SMOOTH",
"445 478 OFFCURVE",
"446 476 QCURVE",
"446 476 LINE"
);
}
);
userData = {
assembly = "PUSHW[ ]\011/* 1 value pushed */
10 
CALL[ ]\011/* CallFunction */
SVTCA[0]\011/* SetFreedomAndProjectionVectorToAxis */
PUSHW[ ]\011/* 1 value pushed */
1 
RCVT[ ]\011/* ReadCVT */
IF[ ]\011/* If */
PUSHW[ ]\011/* 1 value pushed */
67 
MDAP[1]\011/* MoveDirectAbsPt */
ELSE[ ]\011/* Else */
PUSHW[ ]\011/* 2 values pushed */
67 13 
MIAP[0]\011/* MoveIndirectAbsPt */
EIF[ ]\011/* EndIf */
PUSHW[ ]\011/* 1 value pushed */
1 
RCVT[ ]\011/* ReadCVT */
IF[ ]\011/* If */
PUSHW[ ]\011/* 1 value pushed */
26 
MDAP[1]\011/* MoveDirectAbsPt */
ELSE[ ]\011/* Else */
PUSHW[ ]\011/* 2 values pushed */
26 7 
MIAP[0]\011/* MoveIndirectAbsPt */
EIF[ ]\011/* EndIf */
PUSHW[ ]\011/* 1 value pushed */
67 
SRP0[ ]\011/* SetRefPoint0 */
PUSHW[ ]\011/* 2 values pushed */
7 2 
MIRP[10100]\011/* MoveIndirectRelPt */
NPUSHW[ ]\011/* 7 values pushed */
24 7 40 7 56 7 3 
DELTAP1[ ]\011/* DeltaExceptionP1 */
IUP[0]\011/* InterpolateUntPts */
IUP[1]\011/* InterpolateUntPts */";
};
width = 656;
}
);
note = S;
unicode = 0053;
},
{
glyphname = T;
layers = (
{
layerId = "6CA69755-92A4-402C-9A09-056914DDCECE";
paths = (
{
closed = 1;
nodes = (
"90 718 OFFCURVE",
"50 677 OFFCURVE",
"51 619 OFFCURVE",
"92 579 OFFCURVE",
"121 579 QCURVE SMOOTH",
"176 580 OFFCURVE",
"256 580 QCURVE",
"251 489 OFFCURVE",
"252 354 QCURVE SMOOTH",
"254 102 OFFCURVE",
"253 71 QCURVE SMOOTH",
"253 42 OFFCURVE",
"293 1 OFFCURVE",
"351 0 OFFCURVE",
"392 40 OFFCURVE",
"393 69 QCURVE SMOOTH",
"394 100 OFFCURVE",
"392 355 QCURVE SMOOTH",
"391 493 OFFCURVE",
"396 580 QCURVE",
"483 580 OFFCURVE",
"546 581 QCURVE SMOOTH",
"574 582 OFFCURVE",
"614 624 OFFCURVE",
"613 681 OFFCURVE",
"571 721 OFFCURVE",
"542 721 QCURVE SMOOTH",
"479 719 OFFCURVE",
"182 720 OFFCURVE",
"119 719 QCURVE",
"119 719 LINE"
);
}
);
userData = {
assembly = "PUSHW[ ]\011/* 1 value pushed */
10 
CALL[ ]\011/* CallFunction */
PUSHW[ ]\011/* 4 values pushed */
12 5 21 14 
CALL[ ]\011/* CallFunction */
NPUSHW[ ]\011/* 7 values pushed */
22 12 38 12 54 12 3 
DELTAP1[ ]\011/* DeltaExceptionP1 */
PUSHW[ ]\011/* 1 value pushed */
12 
SRP0[ ]\011/* SetRefPoint0 */
PUSHW[ ]\011/* 1 value pushed */
10 
MDRP[10000]\011/* MoveDirectRelPt */
PUSHW[ ]\011/* 1 value pushed */
10 
MDAP[1]\011/* MoveDirectAbsPt */
PUSHW[ ]\011/* 1 value pushed */
12 
SRP0[ ]\011/* SetRefPoint0 */
PUSHW[ ]\011/* 1 value pushed */
14 
MDRP[10000]\011/* MoveDirectRelPt */
PUSHW[ ]\011/* 1 value pushed */
14 
MDAP[1]\011/* MoveDirectAbsPt */
PUSHW[ ]\011/* 1 value pushed */
21 
SRP0[ ]\011/* SetRefPoint0 */
PUSHW[ ]\011/* 1 value pushed */
19 
MDRP[10000]\011/* MoveDirectRelPt */
PUSHW[ ]\011/* 1 value pushed */
19 
MDAP[1]\011/* MoveDirectAbsPt */
PUSHW[ ]\011/* 1 value pushed */
21 
SRP0[ ]\011/* SetRefPoint0 */
PUSHW[ ]\011/* 1 value pushed */
23 
MDRP[10000]\011/* MoveDirectRelPt */
PUSHW[ ]\011/* 1 value pushed */
23 
MDAP[1]\011/* MoveDirectAbsPt */
SVTCA[0]\011/* SetFreedomAndProjectionVectorToAxis */
PUSHW[ ]\011/* 1 value pushed */
0 
MDAP[1]\011/* MoveDirectAbsPt */
PUSHW[ ]\011/* 1 value pushed */
3 
MDAP[1]\011/* MoveDirectAbsPt */
PUSHW[ ]\011/* 1 value pushed */
0 
SRP0[ ]\011/* SetRefPoint0 */
PUSHW[ ]\011/* 2 values pushed */
25 2 
MIRP[10100]\011/* MoveIndirectRelPt */
PUSHW[ ]\011/* 1 value pushed */
8 
MDRP[10000]\011/* MoveDirectRelPt */
PUSHW[ ]\011/* 1 value pushed */
8 
MDAP[1]\011/* MoveDirectAbsPt */
PUSHW[ ]\011/* 1 value pushed */
25 
SRP0[ ]\011/* SetRefPoint0 */
PUSHW[ ]\011/* 1 value pushed */
10 
MDRP[10000]\011/* MoveDirectRelPt */
PUSHW[ ]\011/* 1 value pushed */
10 
MDAP[1]\011/* MoveDirectAbsPt */
PUSHW[ ]\011/* 1 value pushed */
25 
SRP0[ ]\011/* SetRefPoint0 */
PUSHW[ ]\011/* 1 value pushed */
23 
MDRP[10000]\011/* MoveDirectRelPt */
PUSHW[ ]\011/* 1 value pushed */
23 
MDAP[1]\011/* MoveDirectAbsPt */
IUP[0]\011/* InterpolateUntPts */
IUP[1]\011/* InterpolateUntPts */";
};
width = 664;
}
);
note = T;
unicode = 0054;
},
{
glyphname = U;
layers = (
{
layerId = "6CA69755-92A4-402C-9A09-056914DDCECE";
paths = (
{
closed = 1;
nodes = (
"646 678 OFFCURVE",
"604 717 OFFCURVE",
"546 716 OFFCURVE",
"507 674 OFFCURVE",
"507 645 QCURVE SMOOTH",
"508 623 OFFCURVE",
"514 523 QCURVE SMOOTH",
"518 448 OFFCURVE",
"517 402 QCURVE SMOOTH",
"514 273 OFFCURVE",
"467 205 QCURVE SMOOTH",
"439 164 OFFCURVE",
"389 147 QCURVE SMOOTH",
"340 131 OFFCURVE",
"240 157 OFFCURVE",
"212 197 QCURVE SMOOTH",
"201 213 OFFCURVE",
"190 312 OFFCURVE",
"193 391 QCURVE SMOOTH",
"194 427 OFFCURVE",
"201 531 QCURVE SMOOTH",
"207 617 OFFCURVE",
"208 675 OFFCURVE",
"168 716 OFFCURVE",
"110 717 OFFCURVE",
"69 677 OFFCURVE",
"68 648 QCURVE SMOOTH",
"68 623 OFFCURVE",
"62 541 QCURVE SMOOTH",
"55 443 OFFCURVE",
"53 395 QCURVE SMOOTH",
"50 307 OFFCURVE",
"57 247 QCURVE SMOOTH",
"66 162 OFFCURVE",
"98 117 QCURVE SMOOTH",
"141 55 OFFCURVE",
"277 -5 OFFCURVE",
"414 3 OFFCURVE",
"544 70 OFFCURVE",
"583 127 QCURVE SMOOTH",
"652 228 OFFCURVE",
"656 398 QCURVE SMOOTH",
"658 450 OFFCURVE",
"653 531 QCURVE SMOOTH",
"647 629 OFFCURVE",
"647 649 QCURVE",
"647 649 LINE"
);
}
);
userData = {
assembly = "PUSHW[ ]\011/* 1 value pushed */
10 
CALL[ ]\011/* CallFunction */
PUSHW[ ]\011/* 4 values pushed */
27 5 15 14 
CALL[ ]\011/* CallFunction */
PUSHW[ ]\011/* 4 values pushed */
4 5 41 14 
CALL[ ]\011/* CallFunction */
PUSHW[ ]\011/* 1 value pushed */
4 
SRP0[ ]\011/* SetRefPoint0 */
PUSHW[ ]\011/* 1 value pushed */
2 
MDRP[10000]\011/* MoveDirectRelPt */
PUSHW[ ]\011/* 1 value pushed */
2 
MDAP[1]\011/* MoveDirectAbsPt */
PUSHW[ ]\011/* 1 value pushed */
15 
SRP0[ ]\011/* SetRefPoint0 */
PUSHW[ ]\011/* 1 value pushed */
13 
MDRP[10000]\011/* MoveDirectRelPt */
PUSHW[ ]\011/* 1 value pushed */
13 
MDAP[1]\011/* MoveDirectAbsPt */
NPUSHW[ ]\011/* 7 values pushed */
22 27 38 27 54 27 3 
DELTAP1[ ]\011/* DeltaExceptionP1 */
PUSHW[ ]\011/* 1 value pushed */
27 
SRP0[ ]\011/* SetRefPoint0 */
PUSHW[ ]\011/* 2 values pushed */
19 6 
MIRP[10100]\011/* MoveIndirectRelPt */
PUSHW[ ]\011/* 1 value pushed */
17 
MDRP[10000]\011/* MoveDirectRelPt */
PUSHW[ ]\011/* 1 value pushed */
17 
MDAP[1]\011/* MoveDirectAbsPt */
NPUSHW[ ]\011/* 7 values pushed */
25 41 41 41 57 41 3 
DELTAP1[ ]\011/* DeltaExceptionP1 */
PUSHW[ ]\011/* 1 value pushed */
41 
SRP0[ ]\011/* SetRefPoint0 */
PUSHW[ ]\011/* 1 value pushed */
39 
MDRP[10000]\011/* MoveDirectRelPt */
PUSHW[ ]\011/* 1 value pushed */
39 
MDAP[1]\011/* MoveDirectAbsPt */
PUSHW[ ]\011/* 1 value pushed */
4 
SRP0[ ]\011/* SetRefPoint0 */
PUSHW[ ]\011/* 1 value pushed */
47 
MDRP[11100]\011/* MoveDirectRelPt */
IUP[0]\011/* InterpolateUntPts */
IUP[1]\011/* InterpolateUntPts */";
};
width = 708;
}
);
note = U;
unicode = 0055;
},
{
glyphname = V;
layers = (
{
layerId = "6CA69755-92A4-402C-9A09-056914DDCECE";
paths = (
{
closed = 1;
nodes = (
"293 9 OFFCURVE",
"347 -13 OFFCURVE",
"374 -1 QCURVE SMOOTH",
"379 1 OFFCURVE",
"384 5 QCURVE",
"407 17 OFFCURVE",
"416 42 QCURVE SMOOTH",
"438 99 OFFCURVE",
"480 218 QCURVE SMOOTH",
"556 428 LINE SMOOTH",
"590 520 OFFCURVE",
"636 622 QCURVE SMOOTH",
"648 649 OFFCURVE",
"626 703 OFFCURVE",
"573 726 OFFCURVE",
"519 704 OFFCURVE",
"508 678 QCURVE SMOOTH",
"441 524 OFFCURVE",
"345 254 QCURVE",
"317 327 OFFCURVE",
"270 462 QCURVE SMOOTH",
"193 673 LINE SMOOTH",
"183 700 OFFCURVE",
"130 724 OFFCURVE",
"76 705 OFFCURVE",
"52 652 OFFCURVE",
"61 625 QCURVE SMOOTH",
"82 569 OFFCURVE",
"134 426 QCURVE SMOOTH",
"212 211 LINE SMOOTH",
"243 126 OFFCURVE",
"282 35 QCURVE",
"282 35 LINE"
);
}
);
width = 690;
}
);
note = V;
unicode = 0056;
},
{
glyphname = W;
layers = (
{
layerId = "6CA69755-92A4-402C-9A09-056914DDCECE";
paths = (
{
closed = 1;
nodes = (
"573 688 OFFCURVE",
"533 717 OFFCURVE",
"509 717 QCURVE SMOOTH",
"488 717 OFFCURVE",
"452 694 OFFCURVE",
"444 674 QCURVE SMOOTH",
"366 483 OFFCURVE",
"289 281 QCURVE",
"222 552 OFFCURVE",
"192 664 QCURVE SMOOTH",
"186 692 OFFCURVE",
"138 724 OFFCURVE",
"82 712 OFFCURVE",
"50 664 OFFCURVE",
"56 636 QCURVE SMOOTH",
"89 505 OFFCURVE",
"133 331 QCURVE SMOOTH",
"179 144 OFFCURVE",
"199 53 QCURVE SMOOTH",
"204 27 OFFCURVE",
"249 -5 OFFCURVE",
"275 -1 QCURVE",
"299 -4 OFFCURVE",
"341 21 OFFCURVE",
"350 44 QCURVE SMOOTH",
"501 440 LINE",
"518 393 OFFCURVE",
"527 363 QCURVE SMOOTH",
"583 188 OFFCURVE",
"638 44 QCURVE SMOOTH",
"647 19 OFFCURVE",
"695 -5 OFFCURVE",
"721 2 QCURVE",
"742 4 OFFCURVE",
"776 32 OFFCURVE",
"782 53 QCURVE SMOOTH",
"815 166 LINE",
"851 285 LINE SMOOTH",
"860 316 OFFCURVE",
"918 548 OFFCURVE",
"946 631 QCURVE SMOOTH",
"954 659 OFFCURVE",
"926 710 OFFCURVE",
"871 726 OFFCURVE",
"820 698 OFFCURVE",
"812 671 QCURVE SMOOTH",
"784 587 OFFCURVE",
"711 299 OFFCURVE",
"703 274 QCURVE",
"661 405 LINE",
"591 606 LINE",
"591 606 LINE"
);
}
);
width = 1004;
}
);
note = W;
unicode = 0057;
},
{
glyphname = X;
layers = (
{
layerId = "6CA69755-92A4-402C-9A09-056914DDCECE";
paths = (
{
closed = 1;
nodes = (
"420 121 OFFCURVE",
"490 29 QCURVE",
"505 6 OFFCURVE",
"558 -5 OFFCURVE",
"603 25 OFFCURVE",
"614 76 OFFCURVE",
"599 99 QCURVE SMOOTH",
"522 212 OFFCURVE",
"413 352 QCURVE",
"589 605 LINE SMOOTH",
"606 628 OFFCURVE",
"598 683 OFFCURVE",
"553 718 OFFCURVE",
"496 710 OFFCURVE",
"478 687 QCURVE",
"326 464 LINE",
"229 608 OFFCURVE",
"173 688 QCURVE SMOOTH",
"158 711 OFFCURVE",
"104 721 OFFCURVE",
"60 690 OFFCURVE",
"50 638 OFFCURVE",
"66 616 QCURVE",
"125 520 OFFCURVE",
"245 356 QCURVE",
"67 110 LINE SMOOTH",
"50 86 OFFCURVE",
"58 31 OFFCURVE",
"104 -3 OFFCURVE",
"161 5 OFFCURVE",
"178 28 QCURVE SMOOTH",
"332 243 LINE",
"332 243 LINE"
);
}
);
width = 663;
}
);
note = X;
unicode = 0058;
},
{
glyphname = Y;
layers = (
{
layerId = "6CA69755-92A4-402C-9A09-056914DDCECE";
paths = (
{
closed = 1;
nodes = (
"446 345 OFFCURVE",
"505 434 QCURVE SMOOTH",
"615 600 OFFCURVE",
"621 610 QCURVE SMOOTH",
"637 635 OFFCURVE",
"623 691 OFFCURVE",
"574 722 OFFCURVE",
"518 708 OFFCURVE",
"503 684 QCURVE SMOOTH",
"389 512 LINE",
"335 428 LINE",
"218 622 OFFCURVE",
"185 681 QCURVE SMOOTH",
"171 707 OFFCURVE",
"116 723 OFFCURVE",
"65 695 OFFCURVE",
"49 640 OFFCURVE",
"63 615 QCURVE SMOOTH",
"99 547 OFFCURVE",
"173 426 QCURVE SMOOTH",
"273 260 LINE",
"273 203 LINE SMOOTH",
"273 178 OFFCURVE",
"274 91 OFFCURVE",
"274 66 QCURVE SMOOTH",
"275 37 OFFCURVE",
"317 -3 OFFCURVE",
"375 -1 OFFCURVE",
"415 41 OFFCURVE",
"414 70 QCURVE SMOOTH",
"413 106 OFFCURVE",
"413 262 OFFCURVE",
"412 285 QCURVE",
"412 285 LINE"
);
}
);
userData = {
assembly = "PUSHW[ ]\011/* 1 value pushed */
10 
CALL[ ]\011/* CallFunction */
PUSHW[ ]\011/* 4 values pushed */
0 5 12 14 
CALL[ ]\011/* CallFunction */
PUSHW[ ]\011/* 1 value pushed */
0 
SRP0[ ]\011/* SetRefPoint0 */
PUSHW[ ]\011/* 1 value pushed */
3 
MDRP[10000]\011/* MoveDirectRelPt */
PUSHW[ ]\011/* 1 value pushed */
3 
MDAP[1]\011/* MoveDirectAbsPt */
PUSHW[ ]\011/* 1 value pushed */
12 
SRP0[ ]\011/* SetRefPoint0 */
PUSHW[ ]\011/* 1 value pushed */
8 
MDRP[10000]\011/* MoveDirectRelPt */
PUSHW[ ]\011/* 1 value pushed */
8 
MDAP[1]\011/* MoveDirectAbsPt */
PUSHW[ ]\011/* 3 values pushed */
22 12 0 
SRP1[ ]\011/* SetRefPoint1 */
SRP2[ ]\011/* SetRefPoint2 */
IP[ ]\011/* InterpolatePts */
IUP[0]\011/* InterpolateUntPts */
IUP[1]\011/* InterpolateUntPts */";
};
width = 680;
}
);
note = Y;
unicode = 0059;
},
{
glyphname = Z;
layers = (
{
layerId = "6CA69755-92A4-402C-9A09-056914DDCECE";
paths = (
{
closed = 1;
nodes = (
"106 719 OFFCURVE",
"65 682 OFFCURVE",
"61 624 OFFCURVE",
"97 582 OFFCURVE",
"125 580 QCURVE SMOOTH",
"226 573 OFFCURVE",
"443 577 QCURVE",
"412 521 OFFCURVE",
"167 243 QCURVE",
"102 155 OFFCURVE",
"73 123 QCURVE SMOOTH",
"52 103 OFFCURVE",
"51 75 QCURVE SMOOTH",
"50 47 OFFCURVE",
"86 5 OFFCURVE",
"114 4 QCURVE SMOOTH",
"201 0 OFFCURVE",
"337 0 QCURVE SMOOTH",
"527 4 OFFCURVE",
"564 4 QCURVE SMOOTH",
"591 4 OFFCURVE",
"630 44 OFFCURVE",
"630 99 OFFCURVE",
"591 139 OFFCURVE",
"564 139 QCURVE SMOOTH",
"525 139 OFFCURVE",
"334 135 QCURVE",
"286 137 OFFCURVE",
"253 137 QCURVE",
"273 162 LINE",
"507 426 OFFCURVE",
"584 527 OFFCURVE",
"616 596 QCURVE SMOOTH",
"617 599 OFFCURVE",
"619 602 QCURVE SMOOTH",
"634 621 OFFCURVE",
"634 647 QCURVE SMOOTH",
"634 675 OFFCURVE",
"595 715 OFFCURVE",
"568 715 QCURVE SMOOTH",
"523 715 OFFCURVE",
"340 711 OFFCURVE",
"199 713 OFFCURVE",
"133 717 QCURVE",
"133 717 LINE"
);
}
);
userData = {
assembly = "PUSHW[ ]\011/* 1 value pushed */
10 
CALL[ ]\011/* CallFunction */
SVTCA[0]\011/* SetFreedomAndProjectionVectorToAxis */
PUSHW[ ]\011/* 1 value pushed */
1 
RCVT[ ]\011/* ReadCVT */
IF[ ]\011/* If */
PUSHW[ ]\011/* 1 value pushed */
24 
MDAP[1]\011/* MoveDirectAbsPt */
ELSE[ ]\011/* Else */
PUSHW[ ]\011/* 2 values pushed */
24 7 
MIAP[0]\011/* MoveIndirectAbsPt */
EIF[ ]\011/* EndIf */
PUSHW[ ]\011/* 1 value pushed */
1 
RCVT[ ]\011/* ReadCVT */
IF[ ]\011/* If */
PUSHW[ ]\011/* 1 value pushed */
26 
MDAP[1]\011/* MoveDirectAbsPt */
ELSE[ ]\011/* Else */
PUSHW[ ]\011/* 2 values pushed */
26 7 
MIAP[0]\011/* MoveIndirectAbsPt */
EIF[ ]\011/* EndIf */
PUSHW[ ]\011/* 1 value pushed */
1 
RCVT[ ]\011/* ReadCVT */
IF[ ]\011/* If */
PUSHW[ ]\011/* 1 value pushed */
28 
MDAP[1]\011/* MoveDirectAbsPt */
ELSE[ ]\011/* Else */
PUSHW[ ]\011/* 2 values pushed */
28 7 
MIAP[0]\011/* MoveIndirectAbsPt */
EIF[ ]\011/* EndIf */
PUSHW[ ]\011/* 4 values pushed */
4 2 37 14 
CALL[ ]\011/* CallFunction */
PUSHW[ ]\011/* 1 value pushed */
4 
SRP0[ ]\011/* SetRefPoint0 */
PUSHW[ ]\011/* 1 value pushed */
0 
MDRP[10000]\011/* MoveDirectRelPt */
PUSHW[ ]\011/* 1 value pushed */
0 
MDAP[1]\011/* MoveDirectAbsPt */
PUSHW[ ]\011/* 1 value pushed */
28 
SRP0[ ]\011/* SetRefPoint0 */
PUSHW[ ]\011/* 2 values pushed */
17 4 
MIRP[10100]\011/* MoveIndirectRelPt */
PUSHW[ ]\011/* 1 value pushed */
15 
MDRP[10000]\011/* MoveDirectRelPt */
PUSHW[ ]\011/* 1 value pushed */
15 
MDAP[1]\011/* MoveDirectAbsPt */
PUSHW[ ]\011/* 1 value pushed */
17 
SRP0[ ]\011/* SetRefPoint0 */
PUSHW[ ]\011/* 1 value pushed */
19 
MDRP[10000]\011/* MoveDirectRelPt */
PUSHW[ ]\011/* 1 value pushed */
19 
MDAP[1]\011/* MoveDirectAbsPt */
PUSHW[ ]\011/* 1 value pushed */
37 
SRP0[ ]\011/* SetRefPoint0 */
PUSHW[ ]\011/* 1 value pushed */
39 
MDRP[10000]\011/* MoveDirectRelPt */
PUSHW[ ]\011/* 1 value pushed */
39 
MDAP[1]\011/* MoveDirectAbsPt */
IUP[0]\011/* InterpolateUntPts */
IUP[1]\011/* InterpolateUntPts */";
};
width = 684;
}
);
note = Z;
unicode = 005A;
},
{
glyphname = bracketleft;
layers = (
{
layerId = "6CA69755-92A4-402C-9A09-056914DDCECE";
paths = (
{
closed = 1;
nodes = (
"314 590 OFFCURVE",
"350 636 OFFCURVE",
"343 693 OFFCURVE",
"297 729 OFFCURVE",
"268 725 QCURVE SMOOTH",
"265 725 OFFCURVE",
"224 722 OFFCURVE",
"185 717 OFFCURVE",
"171 713 QCURVE SMOOTH",
"99 692 OFFCURVE",
"64 615 QCURVE SMOOTH",
"59 604 OFFCURVE",
"58 593 QCURVE SMOOTH",
"58 584 LINE SMOOTH",
"57 577 OFFCURVE",
"57 566 QCURVE SMOOTH",
"56 548 OFFCURVE",
"56 514 QCURVE SMOOTH",
"56 460 OFFCURVE",
"57 344 QCURVE SMOOTH",
"58 299 OFFCURVE",
"59 181 OFFCURVE",
"60 108 OFFCURVE",
"60 98 QCURVE SMOOTH",
"60 8 LINE",
"60 2 LINE SMOOTH",
"60 0 OFFCURVE",
"59 -4 OFFCURVE",
"56 -17 OFFCURVE",
"55 -25 QCURVE SMOOTH",
"48 -72 OFFCURVE",
"66 -106 QCURVE SMOOTH",
"96 -164 OFFCURVE",
"188 -183 QCURVE SMOOTH",
"211 -187 OFFCURVE",
"242 -191 QCURVE SMOOTH",
"247 -191 OFFCURVE",
"270 -193 OFFCURVE",
"274 -194 QCURVE SMOOTH",
"303 -198 OFFCURVE",
"349 -163 OFFCURVE",
"357 -106 OFFCURVE",
"322 -60 OFFCURVE",
"294 -56 QCURVE SMOOTH",
"290 -55 OFFCURVE",
"279 -54 OFFCURVE",
"262 -53 OFFCURVE",
"257 -52 QCURVE SMOOTH",
"233 -49 OFFCURVE",
"217 -46 QCURVE SMOOTH",
"203 -43 OFFCURVE",
"194 -40 QCURVE",
"200 -10 OFFCURVE",
"200 6 QCURVE SMOOTH",
"200 98 LINE SMOOTH",
"200 108 OFFCURVE",
"199 182 OFFCURVE",
"197 300 OFFCURVE",
"197 346 QCURVE SMOOTH",
"196 461 OFFCURVE",
"196 514 QCURVE SMOOTH",
"196 563 LINE",
"196 567 LINE",
"202 576 OFFCURVE",
"210 579 QCURVE SMOOTH",
"218 581 OFFCURVE",
"233 582 OFFCURVE",
"266 584 OFFCURVE",
"286 587 QCURVE",
"286 587 LINE"
);
}
);
userData = {
assembly = "PUSHW[ ]\011/* 1 value pushed */
10 
CALL[ ]\011/* CallFunction */
PUSHW[ ]\011/* 4 values pushed */
14 5 49 14 
CALL[ ]\011/* CallFunction */
PUSHW[ ]\011/* 1 value pushed */
14 
SRP0[ ]\011/* SetRefPoint0 */
PUSHW[ ]\011/* 1 value pushed */
6 
MDRP[10000]\011/* MoveDirectRelPt */
PUSHW[ ]\011/* 1 value pushed */
6 
MDAP[1]\011/* MoveDirectAbsPt */
PUSHW[ ]\011/* 1 value pushed */
14 
SRP0[ ]\011/* SetRefPoint0 */
PUSHW[ ]\011/* 1 value pushed */
8 
MDRP[10000]\011/* MoveDirectRelPt */
PUSHW[ ]\011/* 1 value pushed */
8 
MDAP[1]\011/* MoveDirectAbsPt */
PUSHW[ ]\011/* 1 value pushed */
14 
SRP0[ ]\011/* SetRefPoint0 */
PUSHW[ ]\011/* 1 value pushed */
10 
MDRP[10000]\011/* MoveDirectRelPt */
PUSHW[ ]\011/* 1 value pushed */
10 
MDAP[1]\011/* MoveDirectAbsPt */
PUSHW[ ]\011/* 1 value pushed */
49 
SRP0[ ]\011/* SetRefPoint0 */
PUSHW[ ]\011/* 1 value pushed */
43 
MDRP[10000]\011/* MoveDirectRelPt */
PUSHW[ ]\011/* 1 value pushed */
43 
MDAP[1]\011/* MoveDirectAbsPt */
PUSHW[ ]\011/* 1 value pushed */
49 
SRP0[ ]\011/* SetRefPoint0 */
PUSHW[ ]\011/* 1 value pushed */
45 
MDRP[10000]\011/* MoveDirectRelPt */
PUSHW[ ]\011/* 1 value pushed */
45 
MDAP[1]\011/* MoveDirectAbsPt */
PUSHW[ ]\011/* 1 value pushed */
49 
SRP0[ ]\011/* SetRefPoint0 */
PUSHW[ ]\011/* 1 value pushed */
51 
MDRP[10000]\011/* MoveDirectRelPt */
PUSHW[ ]\011/* 1 value pushed */
51 
MDAP[1]\011/* MoveDirectAbsPt */
PUSHW[ ]\011/* 1 value pushed */
49 
SRP0[ ]\011/* SetRefPoint0 */
PUSHW[ ]\011/* 1 value pushed */
53 
MDRP[10000]\011/* MoveDirectRelPt */
PUSHW[ ]\011/* 1 value pushed */
49 
SRP0[ ]\011/* SetRefPoint0 */
PUSHW[ ]\011/* 1 value pushed */
55 
MDRP[10000]\011/* MoveDirectRelPt */
PUSHW[ ]\011/* 1 value pushed */
55 
MDAP[1]\011/* MoveDirectAbsPt */
IUP[0]\011/* InterpolateUntPts */
IUP[1]\011/* InterpolateUntPts */";
};
width = 385;
}
);
note = bracketleft;
unicode = 005B;
},
{
glyphname = backslash;
layers = (
{
layerId = "6CA69755-92A4-402C-9A09-056914DDCECE";
paths = (
{
closed = 1;
nodes = (
"176 701 OFFCURVE",
"122 723 OFFCURVE",
"69 700 OFFCURVE",
"47 646 OFFCURVE",
"59 620 QCURVE",
"165 350 OFFCURVE",
"271 45 QCURVE SMOOTH",
"281 18 OFFCURVE",
"333 -7 OFFCURVE",
"387 12 OFFCURVE",
"412 64 OFFCURVE",
"403 91 QCURVE SMOOTH",
"296 400 OFFCURVE",
"187 674 QCURVE",
"187 674 LINE"
);
}
);
width = 456;
}
);
note = backslash;
unicode = 005C;
},
{
glyphname = bracketright;
layers = (
{
layerId = "6CA69755-92A4-402C-9A09-056914DDCECE";
paths = (
{
closed = 1;
nodes = (
"82 -52 OFFCURVE",
"48 -98 OFFCURVE",
"56 -156 OFFCURVE",
"102 -190 OFFCURVE",
"131 -186 QCURVE SMOOTH",
"138 -185 OFFCURVE",
"140 -186 OFFCURVE",
"149 -186 QCURVE SMOOTH",
"170 -186 LINE SMOOTH",
"224 -185 OFFCURVE",
"257 -157 QCURVE SMOOTH",
"274 -142 OFFCURVE",
"283 -117 QCURVE SMOOTH",
"287 -104 OFFCURVE",
"291 -87 QCURVE SMOOTH",
"296 -61 OFFCURVE",
"299 -18 QCURVE SMOOTH",
"304 50 OFFCURVE",
"304 162 QCURVE SMOOTH",
"304 238 OFFCURVE",
"301 350 QCURVE SMOOTH",
"299 461 LINE SMOOTH",
"299 474 OFFCURVE",
"298 524 OFFCURVE",
"298 536 QCURVE SMOOTH",
"298 540 OFFCURVE",
"299 545 OFFCURVE",
"300 551 OFFCURVE",
"301 559 QCURVE SMOOTH",
"305 577 LINE SMOOTH",
"314 639 OFFCURVE",
"249 717 OFFCURVE",
"186 718 QCURVE SMOOTH",
"173 718 OFFCURVE",
"154 717 OFFCURVE",
"151 717 OFFCURVE",
"145 718 QCURVE SMOOTH",
"116 723 OFFCURVE",
"69 689 OFFCURVE",
"59 632 OFFCURVE",
"93 585 OFFCURVE",
"121 580 QCURVE SMOOTH",
"136 578 OFFCURVE",
"163 578 QCURVE",
"158 551 OFFCURVE",
"158 536 QCURVE SMOOTH",
"158 523 OFFCURVE",
"159 473 OFFCURVE",
"159 461 QCURVE SMOOTH",
"159 460 OFFCURVE",
"164 238 OFFCURVE",
"164 162 QCURVE SMOOTH",
"164 54 OFFCURVE",
"160 -8 QCURVE SMOOTH",
"158 -30 OFFCURVE",
"156 -46 QCURVE",
"127 -46 OFFCURVE",
"111 -48 QCURVE",
"111 -48 LINE"
);
}
);
userData = {
assembly = "PUSHW[ ]\011/* 1 value pushed */
10 
CALL[ ]\011/* CallFunction */
PUSHW[ ]\011/* 4 values pushed */
39 5 12 14 
CALL[ ]\011/* CallFunction */
NPUSHW[ ]\011/* 7 values pushed */
25 12 41 12 57 12 3 
DELTAP1[ ]\011/* DeltaExceptionP1 */
PUSHW[ ]\011/* 1 value pushed */
12 
SRP0[ ]\011/* SetRefPoint0 */
PUSHW[ ]\011/* 1 value pushed */
2 
MDRP[10000]\011/* MoveDirectRelPt */
PUSHW[ ]\011/* 1 value pushed */
2 
MDAP[1]\011/* MoveDirectAbsPt */
PUSHW[ ]\011/* 1 value pushed */
12 
SRP0[ ]\011/* SetRefPoint0 */
PUSHW[ ]\011/* 1 value pushed */
4 
MDRP[10000]\011/* MoveDirectRelPt */
PUSHW[ ]\011/* 1 value pushed */
4 
MDAP[1]\011/* MoveDirectAbsPt */
PUSHW[ ]\011/* 1 value pushed */
12 
SRP0[ ]\011/* SetRefPoint0 */
PUSHW[ ]\011/* 1 value pushed */
6 
MDRP[10000]\011/* MoveDirectRelPt */
PUSHW[ ]\011/* 1 value pushed */
6 
MDAP[1]\011/* MoveDirectAbsPt */
PUSHW[ ]\011/* 1 value pushed */
12 
SRP0[ ]\011/* SetRefPoint0 */
PUSHW[ ]\011/* 1 value pushed */
9 
MDRP[10000]\011/* MoveDirectRelPt */
PUSHW[ ]\011/* 1 value pushed */
9 
MDAP[1]\011/* MoveDirectAbsPt */
PUSHW[ ]\011/* 1 value pushed */
12 
SRP0[ ]\011/* SetRefPoint0 */
PUSHW[ ]\011/* 1 value pushed */
14 
MDRP[10000]\011/* MoveDirectRelPt */
PUSHW[ ]\011/* 1 value pushed */
14 
MDAP[1]\011/* MoveDirectAbsPt */
PUSHW[ ]\011/* 1 value pushed */
39 
SRP0[ ]\011/* SetRefPoint0 */
PUSHW[ ]\011/* 1 value pushed */
28 
MDRP[10000]\011/* MoveDirectRelPt */
PUSHW[ ]\011/* 1 value pushed */
28 
MDAP[1]\011/* MoveDirectAbsPt */
PUSHW[ ]\011/* 1 value pushed */
39 
SRP0[ ]\011/* SetRefPoint0 */
PUSHW[ ]\011/* 1 value pushed */
33 
MDRP[10000]\011/* MoveDirectRelPt */
PUSHW[ ]\011/* 1 value pushed */
33 
MDAP[1]\011/* MoveDirectAbsPt */
PUSHW[ ]\011/* 1 value pushed */
39 
SRP0[ ]\011/* SetRefPoint0 */
PUSHW[ ]\011/* 1 value pushed */
36 
MDRP[10000]\011/* MoveDirectRelPt */
PUSHW[ ]\011/* 1 value pushed */
36 
MDAP[1]\011/* MoveDirectAbsPt */
PUSHW[ ]\011/* 1 value pushed */
39 
SRP0[ ]\011/* SetRefPoint0 */
PUSHW[ ]\011/* 1 value pushed */
41 
MDRP[10000]\011/* MoveDirectRelPt */
PUSHW[ ]\011/* 1 value pushed */
41 
MDAP[1]\011/* MoveDirectAbsPt */
PUSHW[ ]\011/* 1 value pushed */
39 
SRP0[ ]\011/* SetRefPoint0 */
PUSHW[ ]\011/* 1 value pushed */
59 
MDRP[11100]\011/* MoveDirectRelPt */
IUP[0]\011/* InterpolateUntPts */
IUP[1]\011/* InterpolateUntPts */";
};
width = 348;
}
);
note = bracketright;
unicode = 005D;
},
{
glyphname = asciicircum;
layers = (
{
layerId = "6CA69755-92A4-402C-9A09-056914DDCECE";
paths = (
{
closed = 1;
nodes = (
"48 340 OFFCURVE",
"68 289 OFFCURVE",
"118 268 OFFCURVE",
"169 288 OFFCURVE",
"180 313 QCURVE SMOOTH",
"226 422 OFFCURVE",
"279 522 QCURVE",
"381 309 LINE SMOOTH",
"393 284 OFFCURVE",
"445 266 OFFCURVE",
"494 289 OFFCURVE",
"512 341 OFFCURVE",
"501 365 QCURVE SMOOTH",
"398 582 OFFCURVE",
"339 693 QCURVE SMOOTH",
"326 717 OFFCURVE",
"274 733 OFFCURVE",
"250 720 QCURVE SMOOTH",
"228 709 OFFCURVE",
"219 685 QCURVE",
"215 680 OFFCURVE",
"212 675 QCURVE SMOOTH",
"128 528 OFFCURVE",
"58 365 QCURVE",
"58 365 LINE"
);
}
);
width = 527;
}
);
note = asciicircum;
unicode = 005E;
},
{
glyphname = underscore;
layers = (
{
layerId = "6CA69755-92A4-402C-9A09-056914DDCECE";
paths = (
{
closed = 1;
nodes = (
"3 -36 OFFCURVE",
"-38 -77 OFFCURVE",
"-38 -135 OFFCURVE",
"3 -176 OFFCURVE",
"32 -176 QCURVE SMOOTH",
"520 -176 LINE SMOOTH",
"549 -176 OFFCURVE",
"590 -135 OFFCURVE",
"590 -77 OFFCURVE",
"549 -36 OFFCURVE",
"520 -36 QCURVE SMOOTH",
"32 -36 LINE",
"32 -36 LINE"
);
}
);
userData = {
assembly = "PUSHW[ ]\011/* 1 value pushed */
10 
CALL[ ]\011/* CallFunction */
SVTCA[0]\011/* SetFreedomAndProjectionVectorToAxis */
PUSHW[ ]\011/* 4 values pushed */
1 2 6 14 
CALL[ ]\011/* CallFunction */
IUP[0]\011/* InterpolateUntPts */
IUP[1]\011/* InterpolateUntPts */";
};
width = 587;
}
);
note = underscore;
unicode = 005F;
},
{
glyphname = grave;
layers = (
{
layerId = "6CA69755-92A4-402C-9A09-056914DDCECE";
paths = (
{
closed = 1;
nodes = (
"154 774 OFFCURVE",
"125 776 QCURVE SMOOTH",
"97 777 OFFCURVE",
"53 739 OFFCURVE",
"50 682 OFFCURVE",
"69 660 QCURVE SMOOTH",
"147 574 LINE SMOOTH",
"166 552 OFFCURVE",
"195 550 QCURVE SMOOTH",
"223 549 OFFCURVE",
"267 587 OFFCURVE",
"270 644 OFFCURVE",
"251 666 QCURVE SMOOTH",
"173 752 LINE",
"173 752 LINE"
);
}
);
width = 294;
}
);
note = grave;
unicode = 0060;
},
{
glyphname = a;
layers = (
{
layerId = "6CA69755-92A4-402C-9A09-056914DDCECE";
paths = (
{
closed = 1;
nodes = (
"388 222 OFFCURVE",
"382 216 QCURVE SMOOTH",
"359 192 LINE",
"343 174 LINE SMOOTH",
"337 168 OFFCURVE",
"329 163 QCURVE SMOOTH",
"283 129 OFFCURVE",
"239 145 QCURVE SMOOTH",
"204 157 OFFCURVE",
"184 228 OFFCURVE",
"207 286 QCURVE SMOOTH",
"231 346 OFFCURVE",
"314 400 OFFCURVE",
"355 388 QCURVE",
"364 382 LINE",
"378 371 LINE",
"388 364 LINE",
"393 306 OFFCURVE",
"396 226 QCURVE",
"396 226 LINE"
);
},
{
closed = 1;
nodes = (
"517 469 OFFCURVE",
"472 505 OFFCURVE",
"443 501 QCURVE",
"438 501 LINE",
"416 516 OFFCURVE",
"393 522 QCURVE SMOOTH",
"336 536 OFFCURVE",
"238 519 OFFCURVE",
"155 461 OFFCURVE",
"97 387 OFFCURVE",
"60 303 OFFCURVE",
"50 206 OFFCURVE",
"67 112 OFFCURVE",
"101 72 QCURVE SMOOTH",
"136 33 OFFCURVE",
"193 13 QCURVE SMOOTH",
"302 -26 OFFCURVE",
"406 46 QCURVE",
"414 25 OFFCURVE",
"451 0 OFFCURVE",
"474 1 QCURVE SMOOTH",
"502 2 OFFCURVE",
"542 45 OFFCURVE",
"541 74 QCURVE SMOOTH",
"540 90 OFFCURVE",
"538 143 QCURVE SMOOTH",
"535 221 LINE SMOOTH",
"534 246 OFFCURVE",
"530 336 OFFCURVE",
"524 406 OFFCURVE",
"520 440 QCURVE",
"520 440 LINE"
);
}
);
userData = {
assembly = "PUSHW[ ]\011/* 1 value pushed */
10 
CALL[ ]\011/* CallFunction */
PUSHW[ ]\011/* 4 values pushed */
26 5 0 14 
CALL[ ]\011/* CallFunction */
NPUSHW[ ]\011/* 7 values pushed */
25 0 41 0 57 0 3 
DELTAP1[ ]\011/* DeltaExceptionP1 */
PUSHW[ ]\011/* 1 value pushed */
26 
SRP0[ ]\011/* SetRefPoint0 */
PUSHW[ ]\011/* 1 value pushed */
23 
MDRP[10000]\011/* MoveDirectRelPt */
PUSHW[ ]\011/* 1 value pushed */
23 
MDAP[1]\011/* MoveDirectAbsPt */
PUSHW[ ]\011/* 1 value pushed */
26 
SRP0[ ]\011/* SetRefPoint0 */
PUSHW[ ]\011/* 1 value pushed */
51 
MDRP[11100]\011/* MoveDirectRelPt */
IUP[0]\011/* InterpolateUntPts */
IUP[1]\011/* InterpolateUntPts */";
};
width = 592;
}
);
note = a;
unicode = 0061;
},
{
glyphname = b;
layers = (
{
layerId = "6CA69755-92A4-402C-9A09-056914DDCECE";
paths = (
{
closed = 1;
nodes = (
"195 265 OFFCURVE",
"195 333 QCURVE",
"196 334 LINE",
"202 350 OFFCURVE",
"220 365 QCURVE",
"252 387 OFFCURVE",
"259 390 QCURVE SMOOTH",
"305 408 OFFCURVE",
"342 381 QCURVE SMOOTH",
"383 350 OFFCURVE",
"399 286 QCURVE SMOOTH",
"415 233 OFFCURVE",
"394 188 QCURVE SMOOTH",
"374 147 OFFCURVE",
"321 141 QCURVE SMOOTH",
"277 137 OFFCURVE",
"251 151 QCURVE SMOOTH",
"244 154 OFFCURVE",
"232 169 QCURVE SMOOTH",
"215 191 LINE SMOOTH",
"204 206 OFFCURVE",
"194 217 QCURVE",
"194 217 LINE"
);
},
{
closed = 1;
nodes = (
"185 27 LINE",
"250 -7 OFFCURVE",
"335 3 QCURVE SMOOTH",
"401 10 OFFCURVE",
"495 76 OFFCURVE",
"520 128 QCURVE SMOOTH",
"563 218 OFFCURVE",
"534 321 QCURVE SMOOTH",
"506 432 OFFCURVE",
"426 492 QCURVE SMOOTH",
"380 527 OFFCURVE",
"326 535 QCURVE SMOOTH",
"271 543 OFFCURVE",
"207 520 QCURVE SMOOTH",
"193 514 LINE",
"193 536 OFFCURVE",
"192 634 OFFCURVE",
"192 650 QCURVE SMOOTH",
"191 679 OFFCURVE",
"150 719 OFFCURVE",
"92 718 OFFCURVE",
"52 677 OFFCURVE",
"52 648 QCURVE SMOOTH",
"57 250 OFFCURVE",
"51 73 QCURVE SMOOTH",
"50 45 OFFCURVE",
"90 2 OFFCURVE",
"119 1 QCURVE SMOOTH",
"151 0 OFFCURVE",
"173 35 QCURVE",
"173 35 LINE"
);
}
);
userData = {
assembly = "PUSHW[ ]\011/* 1 value pushed */
10 
CALL[ ]\011/* CallFunction */
PUSHW[ ]\011/* 4 values pushed */
34 5 29 14 
CALL[ ]\011/* CallFunction */
NPUSHW[ ]\011/* 7 values pushed */
22 34 38 34 54 34 3 
DELTAP1[ ]\011/* DeltaExceptionP1 */
PUSHW[ ]\011/* 1 value pushed */
34 
SRP0[ ]\011/* SetRefPoint0 */
PUSHW[ ]\011/* 1 value pushed */
0 
MDRP[10000]\011/* MoveDirectRelPt */
PUSHW[ ]\011/* 1 value pushed */
0 
MDAP[1]\011/* MoveDirectAbsPt */
PUSHW[ ]\011/* 1 value pushed */
34 
SRP0[ ]\011/* SetRefPoint0 */
PUSHW[ ]\011/* 1 value pushed */
20 
MDRP[10000]\011/* MoveDirectRelPt */
PUSHW[ ]\011/* 1 value pushed */
20 
MDAP[1]\011/* MoveDirectAbsPt */
PUSHW[ ]\011/* 1 value pushed */
29 
SRP0[ ]\011/* SetRefPoint0 */
PUSHW[ ]\011/* 1 value pushed */
27 
MDRP[10000]\011/* MoveDirectRelPt */
PUSHW[ ]\011/* 1 value pushed */
27 
MDAP[1]\011/* MoveDirectAbsPt */
PUSHW[ ]\011/* 1 value pushed */
34 
SRP0[ ]\011/* SetRefPoint0 */
PUSHW[ ]\011/* 1 value pushed */
37 
MDRP[10000]\011/* MoveDirectRelPt */
PUSHW[ ]\011/* 1 value pushed */
37 
MDAP[1]\011/* MoveDirectAbsPt */
IUP[0]\011/* InterpolateUntPts */
IUP[1]\011/* InterpolateUntPts */";
};
width = 613;
}
);
note = b;
unicode = 0062;
},
{
glyphname = c;
layers = (
{
layerId = "6CA69755-92A4-402C-9A09-056914DDCECE";
paths = (
{
closed = 1;
nodes = (
"539 187 OFFCURVE",
"522 241 OFFCURVE",
"470 266 OFFCURVE",
"415 249 OFFCURVE",
"402 224 QCURVE SMOOTH",
"401 222 OFFCURVE",
"380 176 QCURVE SMOOTH",
"373 160 OFFCURVE",
"368 155 QCURVE SMOOTH",
"353 140 OFFCURVE",
"304 133 OFFCURVE",
"269 146 QCURVE SMOOTH",
"236 159 OFFCURVE",
"196 209 OFFCURVE",
"194 237 QCURVE SMOOTH",
"191 267 OFFCURVE",
"218 335 OFFCURVE",
"242 360 QCURVE SMOOTH",
"288 409 OFFCURVE",
"342 387 QCURVE SMOOTH",
"348 384 OFFCURVE",
"360 374 QCURVE SMOOTH",
"396 343 OFFCURVE",
"398 342 QCURVE",
"421 324 OFFCURVE",
"478 331 OFFCURVE",
"514 376 OFFCURVE",
"507 431 OFFCURVE",
"484 449 QCURVE SMOOTH",
"466 464 LINE SMOOTH",
"455 474 OFFCURVE",
"453 476 QCURVE SMOOTH",
"423 501 OFFCURVE",
"396 512 QCURVE SMOOTH",
"346 534 OFFCURVE",
"248 524 OFFCURVE",
"171 485 OFFCURVE",
"140 453 QCURVE SMOOTH",
"97 409 OFFCURVE",
"50 286 OFFCURVE",
"54 227 QCURVE SMOOTH",
"60 156 OFFCURVE",
"150 47 OFFCURVE",
"214 21 QCURVE SMOOTH",
"255 5 OFFCURVE",
"343 -3 OFFCURVE",
"389 13 QCURVE SMOOTH",
"436 27 OFFCURVE",
"470 62 QCURVE SMOOTH",
"492 84 OFFCURVE",
"508 122 QCURVE",
"511 127 OFFCURVE",
"517 143 OFFCURVE",
"523 156 OFFCURVE",
"526 162 QCURVE",
"526 162 LINE"
);
}
);
width = 589;
}
);
note = c;
unicode = 0063;
},
{
glyphname = d;
layers = (
{
layerId = "6CA69755-92A4-402C-9A09-056914DDCECE";
paths = (
{
closed = 1;
nodes = (
"399 245 OFFCURVE",
"398 242 QCURVE",
"389 225 OFFCURVE",
"377 196 OFFCURVE",
"371 183 OFFCURVE",
"365 176 QCURVE SMOOTH",
"342 148 OFFCURVE",
"310 134 OFFCURVE",
"279 140 QCURVE SMOOTH",
"228 149 OFFCURVE",
"180 235 OFFCURVE",
"193 294 QCURVE SMOOTH",
"206 350 OFFCURVE",
"244 377 QCURVE SMOOTH",
"285 405 OFFCURVE",
"347 385 QCURVE SMOOTH",
"352 384 OFFCURVE",
"364 376 QCURVE SMOOTH",
"399 351 OFFCURVE",
"400 351 QCURVE",
"400 294 OFFCURVE",
"401 247 QCURVE",
"401 247 LINE"
);
},
{
closed = 1;
nodes = (
"535 678 OFFCURVE",
"494 718 OFFCURVE",
"436 717 OFFCURVE",
"396 676 OFFCURVE",
"396 647 QCURVE SMOOTH",
"397 632 OFFCURVE",
"398 515 QCURVE",
"393 517 OFFCURVE",
"389 519 QCURVE",
"262 558 OFFCURVE",
"165 491 QCURVE SMOOTH",
"81 433 OFFCURVE",
"57 324 QCURVE",
"51 286 OFFCURVE",
"50 206 OFFCURVE",
"79 126 OFFCURVE",
"125 60 OFFCURVE",
"204 11 OFFCURVE",
"255 2 QCURVE SMOOTH",
"326 -10 OFFCURVE",
"380 12 QCURVE SMOOTH",
"401 21 OFFCURVE",
"420 36 QCURVE",
"441 4 OFFCURVE",
"471 4 QCURVE SMOOTH",
"500 4 OFFCURVE",
"541 45 OFFCURVE",
"541 74 QCURVE SMOOTH",
"541 158 OFFCURVE",
"536 649 QCURVE",
"536 649 LINE"
);
}
);
userData = {
assembly = "PUSHW[ ]\011/* 1 value pushed */
10 
CALL[ ]\011/* CallFunction */
PUSHW[ ]\011/* 4 values pushed */
22 5 45 14 
CALL[ ]\011/* CallFunction */
NPUSHW[ ]\011/* 7 values pushed */
25 45 41 45 57 45 3 
DELTAP1[ ]\011/* DeltaExceptionP1 */
PUSHW[ ]\011/* 1 value pushed */
45 
SRP0[ ]\011/* SetRefPoint0 */
PUSHW[ ]\011/* 1 value pushed */
0 
MDRP[10000]\011/* MoveDirectRelPt */
PUSHW[ ]\011/* 1 value pushed */
0 
MDAP[1]\011/* MoveDirectAbsPt */
PUSHW[ ]\011/* 1 value pushed */
45 
SRP0[ ]\011/* SetRefPoint0 */
PUSHW[ ]\011/* 1 value pushed */
2 
MDRP[10000]\011/* MoveDirectRelPt */
PUSHW[ ]\011/* 1 value pushed */
2 
MDAP[1]\011/* MoveDirectAbsPt */
PUSHW[ ]\011/* 1 value pushed */
22 
SRP0[ ]\011/* SetRefPoint0 */
PUSHW[ ]\011/* 1 value pushed */
24 
MDRP[10000]\011/* MoveDirectRelPt */
PUSHW[ ]\011/* 1 value pushed */
24 
MDAP[1]\011/* MoveDirectAbsPt */
PUSHW[ ]\011/* 1 value pushed */
45 
SRP0[ ]\011/* SetRefPoint0 */
PUSHW[ ]\011/* 1 value pushed */
47 
MDRP[10000]\011/* MoveDirectRelPt */
PUSHW[ ]\011/* 1 value pushed */
47 
MDAP[1]\011/* MoveDirectAbsPt */
PUSHW[ ]\011/* 1 value pushed */
22 
SRP0[ ]\011/* SetRefPoint0 */
PUSHW[ ]\011/* 1 value pushed */
53 
MDRP[11100]\011/* MoveDirectRelPt */
IUP[0]\011/* InterpolateUntPts */
IUP[1]\011/* InterpolateUntPts */";
};
width = 591;
}
);
note = d;
unicode = 0064;
},
{
glyphname = e;
layers = (
{
layerId = "6CA69755-92A4-402C-9A09-056914DDCECE";
paths = (
{
closed = 1;
nodes = (
"414 312 OFFCURVE",
"304 311 OFFCURVE",
"228 313 OFFCURVE",
"193 314 QCURVE",
"199 375 OFFCURVE",
"254 401 QCURVE SMOOTH",
"312 428 OFFCURVE",
"361 405 QCURVE SMOOTH",
"403 384 OFFCURVE",
"428 335 OFFCURVE",
"429 319 QCURVE",
"429 319 LINE"
);
},
{
closed = 1;
nodes = (
"535 115 OFFCURVE",
"521 148 OFFCURVE",
"486 173 OFFCURVE",
"434 170 OFFCURVE",
"396 131 QCURVE SMOOTH",
"372 108 OFFCURVE",
"310 112 QCURVE",
"204 127 OFFCURVE",
"194 219 QCURVE",
"338 209 OFFCURVE",
"441 212 OFFCURVE",
"467 215 QCURVE SMOOTH",
"522 219 OFFCURVE",
"544 253 QCURVE SMOOTH",
"562 280 OFFCURVE",
"551 323 QCURVE SMOOTH",
"503 529 OFFCURVE",
"312 530 QCURVE SMOOTH",
"104 526 OFFCURVE",
"60 314 QCURVE SMOOTH",
"50 274 OFFCURVE",
"58 227 QCURVE",
"77 146 OFFCURVE",
"140 61 OFFCURVE",
"223 11 OFFCURVE",
"328 -4 OFFCURVE",
"398 5 QCURVE",
"444 15 OFFCURVE",
"486 41 OFFCURVE",
"506 60 QCURVE",
"525 83 OFFCURVE",
"529 98 QCURVE",
"529 98 LINE"
);
}
);
userData = {
assembly = "PUSHW[ ]\011/* 1 value pushed */
10 
CALL[ ]\011/* CallFunction */
SVTCA[0]\011/* SetFreedomAndProjectionVectorToAxis */
PUSHW[ ]\011/* 1 value pushed */
25 
MDAP[1]\011/* MoveDirectAbsPt */
PUSHW[ ]\011/* 4 values pushed */
7 4 34 14 
CALL[ ]\011/* CallFunction */
PUSHW[ ]\011/* 1 value pushed */
34 
SRP0[ ]\011/* SetRefPoint0 */
PUSHW[ ]\011/* 1 value pushed */
31 
MDRP[10000]\011/* MoveDirectRelPt */
PUSHW[ ]\011/* 1 value pushed */
31 
MDAP[1]\011/* MoveDirectAbsPt */
IUP[0]\011/* InterpolateUntPts */
IUP[1]\011/* InterpolateUntPts */";
};
width = 612;
}
);
note = e;
unicode = 0065;
},
{
glyphname = f;
layers = (
{
layerId = "6CA69755-92A4-402C-9A09-056914DDCECE";
paths = (
{
closed = 1;
nodes = (
"361 561 OFFCURVE",
"406 597 OFFCURVE",
"412 654 OFFCURVE",
"376 699 OFFCURVE",
"347 702 QCURVE SMOOTH",
"342 703 OFFCURVE",
"309 709 QCURVE SMOOTH",
"274 715 OFFCURVE",
"251 715 QCURVE SMOOTH",
"156 714 OFFCURVE",
"115 631 QCURVE SMOOTH",
"102 606 OFFCURVE",
"101 565 QCURVE SMOOTH",
"100 552 OFFCURVE",
"101 520 QCURVE",
"80 514 OFFCURVE",
"52 478 OFFCURVE",
"51 455 QCURVE SMOOTH",
"50 428 OFFCURVE",
"85 388 OFFCURVE",
"111 384 QCURVE",
"115 227 OFFCURVE",
"106 75 QCURVE SMOOTH",
"104 46 OFFCURVE",
"143 2 OFFCURVE",
"200 -2 OFFCURVE",
"244 37 OFFCURVE",
"246 65 QCURVE SMOOTH",
"255 221 OFFCURVE",
"250 379 QCURVE",
"287 378 LINE SMOOTH",
"316 377 OFFCURVE",
"358 417 OFFCURVE",
"360 475 OFFCURVE",
"320 517 OFFCURVE",
"291 518 QCURVE SMOOTH",
"241 519 LINE",
"241 521 LINE SMOOTH",
"239 551 OFFCURVE",
"240 559 QCURVE SMOOTH",
"240 566 OFFCURVE",
"241 572 QCURVE",
"243 575 OFFCURVE",
"252 575 QCURVE SMOOTH",
"262 575 OFFCURVE",
"284 571 QCURVE SMOOTH",
"322 565 OFFCURVE",
"333 564 QCURVE",
"333 564 LINE"
);
}
);
userData = {
assembly = "PUSHW[ ]\011/* 1 value pushed */
10 
CALL[ ]\011/* CallFunction */
PUSHW[ ]\011/* 4 values pushed */
18 5 27 14 
CALL[ ]\011/* CallFunction */
PUSHW[ ]\011/* 1 value pushed */
18 
SRP0[ ]\011/* SetRefPoint0 */
PUSHW[ ]\011/* 1 value pushed */
20 
MDRP[10000]\011/* MoveDirectRelPt */
PUSHW[ ]\011/* 1 value pushed */
20 
MDAP[1]\011/* MoveDirectAbsPt */
PUSHW[ ]\011/* 1 value pushed */
27 
SRP0[ ]\011/* SetRefPoint0 */
PUSHW[ ]\011/* 1 value pushed */
25 
MDRP[10000]\011/* MoveDirectRelPt */
PUSHW[ ]\011/* 1 value pushed */
25 
MDAP[1]\011/* MoveDirectAbsPt */
SVTCA[0]\011/* SetFreedomAndProjectionVectorToAxis */
PUSHW[ ]\011/* 1 value pushed */
39 
MDAP[1]\011/* MoveDirectAbsPt */
PUSHW[ ]\011/* 1 value pushed */
41 
MDAP[1]\011/* MoveDirectAbsPt */
PUSHW[ ]\011/* 4 values pushed */
12 2 17 14 
CALL[ ]\011/* CallFunction */
IUP[0]\011/* InterpolateUntPts */
IUP[1]\011/* InterpolateUntPts */";
};
width = 462;
}
);
note = f;
unicode = 0066;
},
{
glyphname = g;
layers = (
{
layerId = "6CA69755-92A4-402C-9A09-056914DDCECE";
paths = (
{
closed = 1;
nodes = (
"404 305 OFFCURVE",
"403 218 QCURVE",
"401 215 OFFCURVE",
"389 200 OFFCURVE",
"385 196 OFFCURVE",
"375 183 OFFCURVE",
"371 179 OFFCURVE",
"362 169 OFFCURVE",
"357 165 OFFCURVE",
"350 158 OFFCURVE",
"347 156 QCURVE SMOOTH",
"340 151 LINE SMOOTH",
"337 149 OFFCURVE",
"333 147 QCURVE SMOOTH",
"275 116 OFFCURVE",
"240 143 QCURVE SMOOTH",
"203 172 OFFCURVE",
"195 240 QCURVE SMOOTH",
"187 312 OFFCURVE",
"220 358 QCURVE SMOOTH",
"252 404 OFFCURVE",
"319 397 QCURVE SMOOTH",
"329 396 OFFCURVE",
"368 380 QCURVE SMOOTH",
"402 365 LINE",
"402 365 LINE"
);
},
{
closed = 1;
nodes = (
"528 494 OFFCURVE",
"487 530 OFFCURVE",
"460 529 QCURVE SMOOTH",
"431 526 OFFCURVE",
"413 504 QCURVE",
"360 526 OFFCURVE",
"331 529 QCURVE SMOOTH",
"260 536 OFFCURVE",
"148 485 OFFCURVE",
"112 435 QCURVE SMOOTH",
"50 347 OFFCURVE",
"64 225 QCURVE SMOOTH",
"70 170 OFFCURVE",
"118 70 OFFCURVE",
"160 38 QCURVE SMOOTH",
"209 1 OFFCURVE",
"329 -4 OFFCURVE",
"395 31 QCURVE SMOOTH",
"400 33 LINE",
"384 -17 OFFCURVE",
"348 -54 QCURVE SMOOTH",
"313 -90 OFFCURVE",
"264 -76 QCURVE SMOOTH",
"259 -74 OFFCURVE",
"230 -54 OFFCURVE",
"210 -27 QCURVE SMOOTH",
"197 -8 OFFCURVE",
"134 4 OFFCURVE",
"89 -46 OFFCURVE",
"98 -112 OFFCURVE",
"125 -132 QCURVE",
"175 -180 OFFCURVE",
"230 -200 QCURVE",
"280 -211 OFFCURVE",
"357 -204 OFFCURVE",
"416 -173 OFFCURVE",
"443 -146 QCURVE SMOOTH",
"509 -77 OFFCURVE",
"532 17 QCURVE SMOOTH",
"536 39 OFFCURVE",
"537 97 OFFCURVE",
"537 357 OFFCURVE",
"530 466 QCURVE",
"530 466 LINE"
);
}
);
width = 587;
}
);
note = g;
unicode = 0067;
},
{
glyphname = h;
layers = (
{
layerId = "6CA69755-92A4-402C-9A09-056914DDCECE";
paths = (
{
closed = 1;
nodes = (
"236 380 OFFCURVE",
"249 386 QCURVE SMOOTH",
"288 403 OFFCURVE",
"322 396 QCURVE SMOOTH",
"347 391 OFFCURVE",
"354 368 QCURVE SMOOTH",
"357 360 OFFCURVE",
"359 325 QCURVE SMOOTH",
"360 290 OFFCURVE",
"359 230 QCURVE SMOOTH",
"359 228 OFFCURVE",
"353 67 QCURVE SMOOTH",
"352 40 OFFCURVE",
"389 -1 OFFCURVE",
"443 -3 OFFCURVE",
"484 34 OFFCURVE",
"485 61 QCURVE SMOOTH",
"490 195 OFFCURVE",
"491 228 QCURVE SMOOTH",
"492 291 OFFCURVE",
"490 330 QCURVE SMOOTH",
"488 384 OFFCURVE",
"480 410 QCURVE SMOOTH",
"464 459 OFFCURVE",
"393 517 OFFCURVE",
"348 526 QCURVE SMOOTH",
"273 541 OFFCURVE",
"195 506 QCURVE SMOOTH",
"191 504 LINE",
"190 564 OFFCURVE",
"190 649 QCURVE SMOOTH",
"190 678 OFFCURVE",
"149 719 OFFCURVE",
"91 719 OFFCURVE",
"50 678 OFFCURVE",
"50 649 QCURVE SMOOTH",
"50 532 OFFCURVE",
"58 158 OFFCURVE",
"58 65 QCURVE SMOOTH",
"58 36 OFFCURVE",
"99 -5 OFFCURVE",
"157 -5 OFFCURVE",
"198 36 OFFCURVE",
"198 65 QCURVE SMOOTH",
"198 158 OFFCURVE",
"194 351 QCURVE",
"194 351 LINE"
);
}
);
userData = {
assembly = "PUSHW[ ]\011/* 1 value pushed */
10 
CALL[ ]\011/* CallFunction */
PUSHW[ ]\011/* 4 values pushed */
25 5 34 14 
CALL[ ]\011/* CallFunction */
PUSHW[ ]\011/* 1 value pushed */
25 
SRP0[ ]\011/* SetRefPoint0 */
PUSHW[ ]\011/* 1 value pushed */
27 
MDRP[10000]\011/* MoveDirectRelPt */
PUSHW[ ]\011/* 1 value pushed */
27 
MDAP[1]\011/* MoveDirectAbsPt */
PUSHW[ ]\011/* 1 value pushed */
25 
SRP0[ ]\011/* SetRefPoint0 */
PUSHW[ ]\011/* 1 value pushed */
29 
MDRP[10000]\011/* MoveDirectRelPt */
PUSHW[ ]\011/* 1 value pushed */
29 
MDAP[1]\011/* MoveDirectAbsPt */
NPUSHW[ ]\011/* 7 values pushed */
25 34 41 34 57 34 3 
DELTAP1[ ]\011/* DeltaExceptionP1 */
PUSHW[ ]\011/* 1 value pushed */
34 
SRP0[ ]\011/* SetRefPoint0 */
PUSHW[ ]\011/* 1 value pushed */
36 
MDRP[10000]\011/* MoveDirectRelPt */
PUSHW[ ]\011/* 1 value pushed */
36 
MDAP[1]\011/* MoveDirectAbsPt */
PUSHW[ ]\011/* 1 value pushed */
34 
SRP0[ ]\011/* SetRefPoint0 */
PUSHW[ ]\011/* 1 value pushed */
38 
MDRP[10000]\011/* MoveDirectRelPt */
PUSHW[ ]\011/* 1 value pushed */
38 
MDAP[1]\011/* MoveDirectAbsPt */
PUSHW[ ]\011/* 1 value pushed */
25 
SRP0[ ]\011/* SetRefPoint0 */
PUSHW[ ]\011/* 1 value pushed */
47 
MDRP[11100]\011/* MoveDirectRelPt */
IUP[0]\011/* InterpolateUntPts */
IUP[1]\011/* InterpolateUntPts */";
};
width = 542;
}
);
note = h;
unicode = 0068;
},
{
glyphname = i;
layers = (
{
layerId = "6CA69755-92A4-402C-9A09-056914DDCECE";
paths = (
{
closed = 1;
nodes = (
"197 488 OFFCURVE",
"158 531 OFFCURVE",
"100 533 OFFCURVE",
"57 494 OFFCURVE",
"56 465 QCURVE SMOOTH",
"50 280 OFFCURVE",
"53 68 QCURVE SMOOTH",
"54 39 OFFCURVE",
"95 -1 OFFCURVE",
"153 0 OFFCURVE",
"193 41 OFFCURVE",
"193 70 QCURVE SMOOTH",
"190 272 OFFCURVE",
"196 459 QCURVE",
"196 459 LINE"
);
},
{
closed = 1;
nodes = (
"150 720 OFFCURVE",
"92 720 OFFCURVE",
"51 679 OFFCURVE",
"51 621 OFFCURVE",
"92 580 OFFCURVE",
"150 580 OFFCURVE",
"191 621 OFFCURVE",
"191 679 OFFCURVE",
"170 699 QCURVE",
"170 699 LINE"
);
}
);
userData = {
assembly = "PUSHW[ ]\011/* 1 value pushed */
10 
CALL[ ]\011/* CallFunction */
PUSHW[ ]\011/* 4 values pushed */
2 5 9 14 
CALL[ ]\011/* CallFunction */
PUSHW[ ]\011/* 1 value pushed */
2 
SRP0[ ]\011/* SetRefPoint0 */
PUSHW[ ]\011/* 1 value pushed */
0 
MDRP[10000]\011/* MoveDirectRelPt */
PUSHW[ ]\011/* 1 value pushed */
0 
MDAP[1]\011/* MoveDirectAbsPt */
NPUSHW[ ]\011/* 7 values pushed */
25 9 41 9 57 9 3 
DELTAP1[ ]\011/* DeltaExceptionP1 */
PUSHW[ ]\011/* 1 value pushed */
9 
SRP0[ ]\011/* SetRefPoint0 */
PUSHW[ ]\011/* 1 value pushed */
7 
MDRP[10000]\011/* MoveDirectRelPt */
PUSHW[ ]\011/* 1 value pushed */
7 
MDAP[1]\011/* MoveDirectAbsPt */
PUSHW[ ]\011/* 1 value pushed */
2 
SRP0[ ]\011/* SetRefPoint0 */
PUSHW[ ]\011/* 1 value pushed */
24 
MDRP[11100]\011/* MoveDirectRelPt */
IUP[0]\011/* InterpolateUntPts */
IUP[1]\011/* InterpolateUntPts */";
};
width = 247;
}
);
note = i;
unicode = 0069;
},
{
glyphname = j;
layers = (
{
layerId = "6CA69755-92A4-402C-9A09-056914DDCECE";
paths = (
{
closed = 1;
nodes = (
"307 493 OFFCURVE",
"264 533 OFFCURVE",
"207 531 OFFCURVE",
"167 488 OFFCURVE",
"168 460 QCURVE SMOOTH",
"169 453 OFFCURVE",
"174 334 OFFCURVE",
"178 192 OFFCURVE",
"179 137 QCURVE SMOOTH",
"179 34 OFFCURVE",
"173 -26 QCURVE SMOOTH",
"171 -49 OFFCURVE",
"168 -65 QCURVE",
"132 -64 OFFCURVE",
"115 -66 QCURVE SMOOTH",
"86 -69 OFFCURVE",
"50 -114 OFFCURVE",
"57 -172 OFFCURVE",
"102 -208 OFFCURVE",
"131 -204 QCURVE",
"131 -203 OFFCURVE",
"160 -204 OFFCURVE",
"172 -204 QCURVE SMOOTH",
"222 -204 OFFCURVE",
"255 -182 QCURVE SMOOTH",
"286 -161 OFFCURVE",
"300 -112 QCURVE SMOOTH",
"308 -84 OFFCURVE",
"312 -40 QCURVE SMOOTH",
"318 17 OFFCURVE",
"318 138 QCURVE SMOOTH",
"318 193 OFFCURVE",
"313 337 OFFCURVE",
"308 458 OFFCURVE",
"308 464 QCURVE",
"308 464 LINE"
);
},
{
closed = 1;
nodes = (
"255 721 OFFCURVE",
"197 721 OFFCURVE",
"156 680 OFFCURVE",
"156 622 OFFCURVE",
"197 581 OFFCURVE",
"255 581 OFFCURVE",
"296 622 OFFCURVE",
"296 680 OFFCURVE",
"275 700 QCURVE",
"275 700 LINE"
);
}
);
userData = {
assembly = "PUSHW[ ]\011/* 1 value pushed */
10 
CALL[ ]\011/* CallFunction */
PUSHW[ ]\011/* 4 values pushed */
4 5 12 14 
CALL[ ]\011/* CallFunction */
PUSHW[ ]\011/* 1 value pushed */
4 
SRP0[ ]\011/* SetRefPoint0 */
PUSHW[ ]\011/* 1 value pushed */
6 
MDRP[10000]\011/* MoveDirectRelPt */
PUSHW[ ]\011/* 1 value pushed */
6 
MDAP[1]\011/* MoveDirectAbsPt */
NPUSHW[ ]\011/* 7 values pushed */
25 12 41 12 57 12 3 
DELTAP1[ ]\011/* DeltaExceptionP1 */
PUSHW[ ]\011/* 1 value pushed */
12 
SRP0[ ]\011/* SetRefPoint0 */
PUSHW[ ]\011/* 1 value pushed */
24 
MDRP[10000]\011/* MoveDirectRelPt */
PUSHW[ ]\011/* 1 value pushed */
24 
MDAP[1]\011/* MoveDirectAbsPt */
PUSHW[ ]\011/* 1 value pushed */
12 
SRP0[ ]\011/* SetRefPoint0 */
PUSHW[ ]\011/* 1 value pushed */
26 
MDRP[10000]\011/* MoveDirectRelPt */
PUSHW[ ]\011/* 1 value pushed */
26 
MDAP[1]\011/* MoveDirectAbsPt */
PUSHW[ ]\011/* 1 value pushed */
12 
SRP0[ ]\011/* SetRefPoint0 */
PUSHW[ ]\011/* 1 value pushed */
30 
MDRP[10000]\011/* MoveDirectRelPt */
PUSHW[ ]\011/* 1 value pushed */
30 
MDAP[1]\011/* MoveDirectAbsPt */
PUSHW[ ]\011/* 1 value pushed */
4 
SRP0[ ]\011/* SetRefPoint0 */
PUSHW[ ]\011/* 1 value pushed */
45 
MDRP[11100]\011/* MoveDirectRelPt */
IUP[0]\011/* InterpolateUntPts */
IUP[1]\011/* InterpolateUntPts */";
};
width = 368;
}
);
note = j;
unicode = 006A;
},
{
glyphname = k;
layers = (
{
layerId = "6CA69755-92A4-402C-9A09-056914DDCECE";
paths = (
{
closed = 1;
nodes = (
"304 105 OFFCURVE",
"387 20 QCURVE SMOOTH",
"407 -1 OFFCURVE",
"465 -2 OFFCURVE",
"506 38 OFFCURVE",
"507 96 OFFCURVE",
"487 116 QCURVE SMOOTH",
"405 200 OFFCURVE",
"349 289 QCURVE",
"468 411 LINE SMOOTH",
"488 433 OFFCURVE",
"486 490 OFFCURVE",
"443 530 OFFCURVE",
"386 528 OFFCURVE",
"366 507 QCURVE SMOOTH",
"280 415 OFFCURVE",
"202 339 QCURVE",
"199 476 OFFCURVE",
"193 651 QCURVE SMOOTH",
"191 680 OFFCURVE",
"149 719 OFFCURVE",
"91 716 OFFCURVE",
"52 674 OFFCURVE",
"53 645 QCURVE SMOOTH",
"66 249 OFFCURVE",
"63 69 QCURVE SMOOTH",
"63 40 OFFCURVE",
"103 -1 OFFCURVE",
"161 -2 OFFCURVE",
"202 38 OFFCURVE",
"203 67 QCURVE SMOOTH",
"203 148 LINE",
"205 150 OFFCURVE",
"207 151 QCURVE",
"247 189 LINE",
"247 189 LINE"
);
}
);
userData = {
assembly = "PUSHW[ ]\011/* 1 value pushed */
10 
CALL[ ]\011/* CallFunction */
PUSHW[ ]\011/* 4 values pushed */
16 5 11 14 
CALL[ ]\011/* CallFunction */
NPUSHW[ ]\011/* 7 values pushed */
22 16 38 16 54 16 3 
DELTAP1[ ]\011/* DeltaExceptionP1 */
IUP[0]\011/* InterpolateUntPts */
IUP[1]\011/* InterpolateUntPts */";
};
width = 532;
}
);
note = k;
unicode = 006B;
},
{
glyphname = l;
layers = (
{
layerId = "6CA69755-92A4-402C-9A09-056914DDCECE";
paths = (
{
closed = 1;
nodes = (
"190 675 OFFCURVE",
"149 716 OFFCURVE",
"91 716 OFFCURVE",
"50 675 OFFCURVE",
"50 646 QCURVE SMOOTH",
"51 350 LINE SMOOTH",
"52 69 OFFCURVE",
"50 69 QCURVE",
"50 40 OFFCURVE",
"90 -1 OFFCURVE",
"148 -2 OFFCURVE",
"189 38 OFFCURVE",
"190 67 QCURVE SMOOTH",
"191 152 OFFCURVE",
"191 338 OFFCURVE",
"190 566 OFFCURVE",
"190 646 QCURVE",
"190 646 LINE"
);
}
);
userData = {
assembly = "PUSHW[ ]\011/* 1 value pushed */
10 
CALL[ ]\011/* CallFunction */
PUSHW[ ]\011/* 4 values pushed */
4 5 9 14 
CALL[ ]\011/* CallFunction */
NPUSHW[ ]\011/* 7 values pushed */
22 4 38 4 54 4 3 
DELTAP1[ ]\011/* DeltaExceptionP1 */
PUSHW[ ]\011/* 1 value pushed */
4 
SRP0[ ]\011/* SetRefPoint0 */
PUSHW[ ]\011/* 1 value pushed */
0 
MDRP[10000]\011/* MoveDirectRelPt */
PUSHW[ ]\011/* 1 value pushed */
9 
SRP0[ ]\011/* SetRefPoint0 */
PUSHW[ ]\011/* 1 value pushed */
11 
MDRP[10000]\011/* MoveDirectRelPt */
PUSHW[ ]\011/* 1 value pushed */
11 
MDAP[1]\011/* MoveDirectAbsPt */
PUSHW[ ]\011/* 1 value pushed */
4 
SRP0[ ]\011/* SetRefPoint0 */
PUSHW[ ]\011/* 1 value pushed */
18 
MDRP[11100]\011/* MoveDirectRelPt */
IUP[0]\011/* InterpolateUntPts */
IUP[1]\011/* InterpolateUntPts */";
};
width = 241;
}
);
note = l;
unicode = 006C;
},
{
glyphname = m;
layers = (
{
layerId = "6CA69755-92A4-402C-9A09-056914DDCECE";
paths = (
{
closed = 1;
nodes = (
"205 383 OFFCURVE",
"252 402 OFFCURVE",
"280 399 QCURVE SMOOTH",
"307 397 OFFCURVE",
"343 372 OFFCURVE",
"349 353 QCURVE SMOOTH",
"354 337 OFFCURVE",
"357 316 QCURVE SMOOTH",
"357 312 OFFCURVE",
"358 308 QCURVE SMOOTH",
"361 284 OFFCURVE",
"363 209 OFFCURVE",
"362 184 QCURVE SMOOTH",
"360 126 LINE SMOOTH",
"358 84 OFFCURVE",
"357 67 QCURVE SMOOTH",
"356 40 OFFCURVE",
"394 0 OFFCURVE",
"448 -2 OFFCURVE",
"488 36 OFFCURVE",
"489 63 QCURVE SMOOTH",
"489 73 OFFCURVE",
"493 144 OFFCURVE",
"495 198 OFFCURVE",
"493 286 OFFCURVE",
"490 317 QCURVE",
"491 324 OFFCURVE",
"492 333 QCURVE SMOOTH",
"492 336 OFFCURVE",
"492 339 QCURVE",
"494 347 LINE",
"494 350 OFFCURVE",
"494 353 QCURVE",
"496 361 OFFCURVE",
"497 364 QCURVE",
"508 381 OFFCURVE",
"555 400 OFFCURVE",
"583 397 QCURVE SMOOTH",
"610 395 OFFCURVE",
"646 370 OFFCURVE",
"652 351 QCURVE SMOOTH",
"660 327 OFFCURVE",
"666 239 OFFCURVE",
"665 187 OFFCURVE",
"660 80 OFFCURVE",
"660 68 QCURVE SMOOTH",
"659 41 OFFCURVE",
"697 1 OFFCURVE",
"751 -1 OFFCURVE",
"791 37 OFFCURVE",
"792 64 QCURVE SMOOTH",
"792 65 OFFCURVE",
"797 181 OFFCURVE",
"798 244 OFFCURVE",
"789 357 OFFCURVE",
"778 391 QCURVE SMOOTH",
"758 453 OFFCURVE",
"656 523 OFFCURVE",
"594 529 QCURVE SMOOTH",
"549 533 OFFCURVE",
"457 507 OFFCURVE",
"421 476 QCURVE",
"368 524 OFFCURVE",
"291 531 QCURVE SMOOTH",
"226 537 OFFCURVE",
"168 510 QCURVE",
"147 529 OFFCURVE",
"119 529 QCURVE SMOOTH",
"90 528 OFFCURVE",
"50 487 OFFCURVE",
"50 458 QCURVE SMOOTH",
"53 165 OFFCURVE",
"53 70 QCURVE SMOOTH",
"53 41 OFFCURVE",
"94 0 OFFCURVE",
"152 0 OFFCURVE",
"193 41 OFFCURVE",
"193 70 QCURVE SMOOTH",
"193 169 OFFCURVE",
"191 351 QCURVE SMOOTH",
"191 355 LINE",
"193 363 OFFCURVE",
"194 366 QCURVE",
"194 366 LINE"
);
}
);
userData = {
assembly = "PUSHW[ ]\011/* 1 value pushed */
10 
CALL[ ]\011/* CallFunction */
PUSHW[ ]\011/* 4 values pushed */
2 5 12 14 
CALL[ ]\011/* CallFunction */
PUSHW[ ]\011/* 4 values pushed */
62 6 69 14 
CALL[ ]\011/* CallFunction */
PUSHW[ ]\011/* 4 values pushed */
32 5 37 14 
CALL[ ]\011/* CallFunction */
NPUSHW[ ]\011/* 7 values pushed */
22 2 38 2 54 2 3 
DELTAP1[ ]\011/* DeltaExceptionP1 */
PUSHW[ ]\011/* 1 value pushed */
2 
SRP0[ ]\011/* SetRefPoint0 */
PUSHW[ ]\011/* 1 value pushed */
5 
MDRP[10000]\011/* MoveDirectRelPt */
PUSHW[ ]\011/* 1 value pushed */
5 
MDAP[1]\011/* MoveDirectAbsPt */
PUSHW[ ]\011/* 1 value pushed */
12 
SRP0[ ]\011/* SetRefPoint0 */
PUSHW[ ]\011/* 1 value pushed */
10 
MDRP[10000]\011/* MoveDirectRelPt */
PUSHW[ ]\011/* 1 value pushed */
10 
MDAP[1]\011/* MoveDirectAbsPt */
NPUSHW[ ]\011/* 7 values pushed */
25 37 41 37 57 37 3 
DELTAP1[ ]\011/* DeltaExceptionP1 */
PUSHW[ ]\011/* 1 value pushed */
62 
SRP0[ ]\011/* SetRefPoint0 */
PUSHW[ ]\011/* 1 value pushed */
55 
MDRP[10000]\011/* MoveDirectRelPt */
PUSHW[ ]\011/* 1 value pushed */
55 
MDAP[1]\011/* MoveDirectAbsPt */
PUSHW[ ]\011/* 1 value pushed */
62 
SRP0[ ]\011/* SetRefPoint0 */
PUSHW[ ]\011/* 1 value pushed */
57 
MDRP[10000]\011/* MoveDirectRelPt */
PUSHW[ ]\011/* 1 value pushed */
57 
MDAP[1]\011/* MoveDirectAbsPt */
PUSHW[ ]\011/* 1 value pushed */
69 
SRP0[ ]\011/* SetRefPoint0 */
PUSHW[ ]\011/* 1 value pushed */
67 
MDRP[10000]\011/* MoveDirectRelPt */
PUSHW[ ]\011/* 1 value pushed */
67 
MDAP[1]\011/* MoveDirectAbsPt */
PUSHW[ ]\011/* 1 value pushed */
69 
SRP0[ ]\011/* SetRefPoint0 */
PUSHW[ ]\011/* 1 value pushed */
73 
MDRP[10000]\011/* MoveDirectRelPt */
PUSHW[ ]\011/* 1 value pushed */
73 
MDAP[1]\011/* MoveDirectAbsPt */
PUSHW[ ]\011/* 1 value pushed */
69 
SRP0[ ]\011/* SetRefPoint0 */
PUSHW[ ]\011/* 1 value pushed */
75 
MDRP[10000]\011/* MoveDirectRelPt */
PUSHW[ ]\011/* 1 value pushed */
75 
MDAP[1]\011/* MoveDirectAbsPt */
PUSHW[ ]\011/* 1 value pushed */
32 
SRP0[ ]\011/* SetRefPoint0 */
PUSHW[ ]\011/* 1 value pushed */
84 
MDRP[11100]\011/* MoveDirectRelPt */
IUP[0]\011/* InterpolateUntPts */
IUP[1]\011/* InterpolateUntPts */";
};
width = 848;
}
);
note = m;
unicode = 006D;
},
{
glyphname = n;
layers = (
{
layerId = "6CA69755-92A4-402C-9A09-056914DDCECE";
paths = (
{
closed = 1;
nodes = (
"215 381 OFFCURVE",
"262 400 OFFCURVE",
"290 397 QCURVE SMOOTH",
"317 395 OFFCURVE",
"353 370 OFFCURVE",
"359 351 QCURVE SMOOTH",
"367 327 OFFCURVE",
"373 248 OFFCURVE",
"372 188 OFFCURVE",
"367 78 OFFCURVE",
"367 67 QCURVE SMOOTH",
"366 40 OFFCURVE",
"404 0 OFFCURVE",
"458 -2 OFFCURVE",
"498 36 OFFCURVE",
"499 63 QCURVE SMOOTH",
"499 64 OFFCURVE",
"504 182 OFFCURVE",
"505 253 OFFCURVE",
"496 357 OFFCURVE",
"485 391 QCURVE SMOOTH",
"465 453 OFFCURVE",
"363 523 OFFCURVE",
"301 529 QCURVE SMOOTH",
"226 536 OFFCURVE",
"167 499 QCURVE",
"156 518 OFFCURVE",
"104 518 QCURVE",
"74 515 OFFCURVE",
"50 486 OFFCURVE",
"51 456 QCURVE SMOOTH",
"58 372 OFFCURVE",
"61 112 OFFCURVE",
"61 70 QCURVE SMOOTH",
"61 41 OFFCURVE",
"102 0 OFFCURVE",
"160 0 OFFCURVE",
"201 41 OFFCURVE",
"201 70 QCURVE SMOOTH",
"201 117 OFFCURVE",
"199 299 OFFCURVE",
"199 330 QCURVE SMOOTH",
"199 333 LINE SMOOTH",
"199 336 OFFCURVE",
"200 339 QCURVE",
"200 347 LINE",
"201 350 OFFCURVE",
"201 353 QCURVE",
"203 361 OFFCURVE",
"204 364 QCURVE",
"204 364 LINE"
);
}
);
userData = {
assembly = "PUSHW[ ]\011/* 1 value pushed */
10 
CALL[ ]\011/* CallFunction */
PUSHW[ ]\011/* 4 values pushed */
11 5 16 14 
CALL[ ]\011/* CallFunction */
NPUSHW[ ]\011/* 7 values pushed */
22 11 38 11 54 11 3 
DELTAP1[ ]\011/* DeltaExceptionP1 */
PUSHW[ ]\011/* 1 value pushed */
11 
SRP0[ ]\011/* SetRefPoint0 */
PUSHW[ ]\011/* 1 value pushed */
4 
MDRP[10000]\011/* MoveDirectRelPt */
PUSHW[ ]\011/* 1 value pushed */
4 
MDAP[1]\011/* MoveDirectAbsPt */
PUSHW[ ]\011/* 1 value pushed */
11 
SRP0[ ]\011/* SetRefPoint0 */
PUSHW[ ]\011/* 1 value pushed */
8 
MDRP[10000]\011/* MoveDirectRelPt */
PUSHW[ ]\011/* 1 value pushed */
8 
MDAP[1]\011/* MoveDirectAbsPt */
IUP[0]\011/* InterpolateUntPts */
IUP[1]\011/* InterpolateUntPts */";
};
width = 555;
}
);
note = n;
unicode = 006E;
},
{
glyphname = o;
layers = (
{
layerId = "6CA69755-92A4-402C-9A09-056914DDCECE";
paths = (
{
closed = 1;
nodes = (
"279 392 OFFCURVE",
"319 387 OFFCURVE",
"341 382 OFFCURVE",
"354 376 QCURVE SMOOTH",
"371 369 OFFCURVE",
"394 305 OFFCURVE",
"383 208 OFFCURVE",
"345 145 OFFCURVE",
"326 138 QCURVE SMOOTH",
"304 130 OFFCURVE",
"262 138 QCURVE SMOOTH",
"227 145 OFFCURVE",
"184 197 OFFCURVE",
"180 239 QCURVE SMOOTH",
"174 283 OFFCURVE",
"203 365 OFFCURVE",
"231 388 QCURVE",
"241 392 LINE",
"242 392 OFFCURVE",
"259 397 QCURVE",
"259 397 LINE"
);
},
{
closed = 1;
nodes = (
"261 542 OFFCURVE",
"233 531 QCURVE SMOOTH",
"229 529 OFFCURVE",
"221 527 QCURVE SMOOTH",
"201 521 OFFCURVE",
"200 521 QCURVE",
"165 510 OFFCURVE",
"141 492 QCURVE SMOOTH",
"83 443 OFFCURVE",
"32 297 OFFCURVE",
"41 224 QCURVE SMOOTH",
"51 145 OFFCURVE",
"100 84 QCURVE SMOOTH",
"149 23 OFFCURVE",
"236 6 QCURVE SMOOTH",
"315 -10 OFFCURVE",
"372 10 QCURVE SMOOTH",
"419 26 OFFCURVE",
"488 106 OFFCURVE",
"522 194 OFFCURVE",
"527 242 QCURVE",
"533 273 OFFCURVE",
"523 350 OFFCURVE",
"502 420 OFFCURVE",
"451 482 OFFCURVE",
"414 500 QCURVE SMOOTH",
"382 514 OFFCURVE",
"288 529 QCURVE",
"288 529 LINE"
);
}
);
width = 567;
}
);
note = o;
unicode = 006F;
},
{
glyphname = p;
layers = (
{
layerId = "6CA69755-92A4-402C-9A09-056914DDCECE";
paths = (
{
closed = 1;
nodes = (
"193 319 LINE",
"229 374 OFFCURVE",
"295 400 OFFCURVE",
"330 384 QCURVE SMOOTH",
"364 368 OFFCURVE",
"386 319 QCURVE",
"404 264 OFFCURVE",
"378 172 OFFCURVE",
"339 152 QCURVE SMOOTH",
"302 134 OFFCURVE",
"287 139 QCURVE",
"263 139 OFFCURVE",
"213 172 OFFCURVE",
"193 209 QCURVE",
"193 209 LINE"
);
},
{
closed = 1;
nodes = (
"161 528 OFFCURVE",
"123 528 QCURVE SMOOTH",
"94 528 OFFCURVE",
"53 487 OFFCURVE",
"53 458 QCURVE SMOOTH",
"53 43 OFFCURVE",
"50 -130 QCURVE SMOOTH",
"50 -159 OFFCURVE",
"90 -200 OFFCURVE",
"148 -201 OFFCURVE",
"189 -161 OFFCURVE",
"190 -132 QCURVE SMOOTH",
"191 -46 OFFCURVE",
"192 31 QCURVE",
"219 13 OFFCURVE",
"247 5 QCURVE SMOOTH",
"315 -15 OFFCURVE",
"401 28 QCURVE SMOOTH",
"452 53 OFFCURVE",
"516 139 OFFCURVE",
"537 236 OFFCURVE",
"530 327 OFFCURVE",
"514 369 QCURVE SMOOTH",
"474 471 OFFCURVE",
"388 511 QCURVE SMOOTH",
"290 555 OFFCURVE",
"182 495 QCURVE",
"182 495 LINE"
);
}
);
userData = {
assembly = "PUSHW[ ]\011/* 1 value pushed */
10 
CALL[ ]\011/* CallFunction */
PUSHW[ ]\011/* 4 values pushed */
27 5 36 14 
CALL[ ]\011/* CallFunction */
NPUSHW[ ]\011/* 7 values pushed */
22 27 38 27 54 27 3 
DELTAP1[ ]\011/* DeltaExceptionP1 */
PUSHW[ ]\011/* 1 value pushed */
27 
SRP0[ ]\011/* SetRefPoint0 */
PUSHW[ ]\011/* 1 value pushed */
0 
MDRP[10000]\011/* MoveDirectRelPt */
PUSHW[ ]\011/* 1 value pushed */
0 
MDAP[1]\011/* MoveDirectAbsPt */
PUSHW[ ]\011/* 1 value pushed */
27 
SRP0[ ]\011/* SetRefPoint0 */
PUSHW[ ]\011/* 1 value pushed */
29 
MDRP[10000]\011/* MoveDirectRelPt */
PUSHW[ ]\011/* 1 value pushed */
29 
MDAP[1]\011/* MoveDirectAbsPt */
PUSHW[ ]\011/* 1 value pushed */
36 
SRP0[ ]\011/* SetRefPoint0 */
PUSHW[ ]\011/* 1 value pushed */
34 
MDRP[10000]\011/* MoveDirectRelPt */
PUSHW[ ]\011/* 1 value pushed */
34 
MDAP[1]\011/* MoveDirectAbsPt */
IUP[0]\011/* InterpolateUntPts */
IUP[1]\011/* InterpolateUntPts */";
};
width = 587;
}
);
note = p;
unicode = 0070;
},
{
glyphname = q;
layers = (
{
layerId = "6CA69755-92A4-402C-9A09-056914DDCECE";
paths = (
{
closed = 1;
nodes = (
"535 490 OFFCURVE",
"494 530 OFFCURVE",
"465 530 QCURVE SMOOTH",
"445 529 OFFCURVE",
"411 507 OFFCURVE",
"403 489 QCURVE",
"326 534 OFFCURVE",
"184 531 OFFCURVE",
"132 481 QCURVE SMOOTH",
"89 441 OFFCURVE",
"52 318 OFFCURVE",
"55 257 QCURVE SMOOTH",
"57 194 OFFCURVE",
"103 76 OFFCURVE",
"148 39 QCURVE SMOOTH",
"202 -3 OFFCURVE",
"329 2 OFFCURVE",
"395 44 QCURVE",
"394 -30 OFFCURVE",
"392 -130 QCURVE SMOOTH",
"392 -159 OFFCURVE",
"431 -201 OFFCURVE",
"489 -202 OFFCURVE",
"531 -163 OFFCURVE",
"532 -134 QCURVE SMOOTH",
"539 201 OFFCURVE",
"536 461 QCURVE",
"536 461 LINE"
);
},
{
closed = 1;
nodes = (
"357 379 OFFCURVE",
"380 360 OFFCURVE",
"387 352 QCURVE SMOOTH",
"395 342 OFFCURVE",
"399 333 QCURVE",
"398 232 LINE",
"374 164 OFFCURVE",
"302 130 OFFCURVE",
"248 147 QCURVE",
"197 184 OFFCURVE",
"183 297 OFFCURVE",
"212 365 OFFCURVE",
"226 375 QCURVE SMOOTH",
"272 411 OFFCURVE",
"340 387 QCURVE",
"340 387 LINE"
);
}
);
userData = {
assembly = "PUSHW[ ]\011/* 1 value pushed */
10 
CALL[ ]\011/* CallFunction */
PUSHW[ ]\011/* 4 values pushed */
2 5 7 14 
CALL[ ]\011/* CallFunction */
PUSHW[ ]\011/* 1 value pushed */
2 
SRP0[ ]\011/* SetRefPoint0 */
PUSHW[ ]\011/* 1 value pushed */
0 
MDRP[10000]\011/* MoveDirectRelPt */
PUSHW[ ]\011/* 1 value pushed */
0 
MDAP[1]\011/* MoveDirectAbsPt */
NPUSHW[ ]\011/* 7 values pushed */
25 7 41 7 57 7 3 
DELTAP1[ ]\011/* DeltaExceptionP1 */
PUSHW[ ]\011/* 1 value pushed */
7 
SRP0[ ]\011/* SetRefPoint0 */
PUSHW[ ]\011/* 1 value pushed */
9 
MDRP[10000]\011/* MoveDirectRelPt */
PUSHW[ ]\011/* 1 value pushed */
9 
MDAP[1]\011/* MoveDirectAbsPt */
PUSHW[ ]\011/* 1 value pushed */
7 
SRP0[ ]\011/* SetRefPoint0 */
PUSHW[ ]\011/* 1 value pushed */
36 
MDRP[10000]\011/* MoveDirectRelPt */
PUSHW[ ]\011/* 1 value pushed */
36 
MDAP[1]\011/* MoveDirectAbsPt */
PUSHW[ ]\011/* 1 value pushed */
2 
SRP0[ ]\011/* SetRefPoint0 */
PUSHW[ ]\011/* 1 value pushed */
43 
MDRP[11100]\011/* MoveDirectRelPt */
IUP[0]\011/* InterpolateUntPts */
IUP[1]\011/* InterpolateUntPts */";
};
width = 585;
}
);
note = q;
unicode = 0071;
},
{
glyphname = r;
layers = (
{
layerId = "6CA69755-92A4-402C-9A09-056914DDCECE";
paths = (
{
closed = 1;
nodes = (
"177 506 OFFCURVE",
"142 529 OFFCURVE",
"121 529 QCURVE SMOOTH",
"92 529 OFFCURVE",
"51 488 OFFCURVE",
"51 449 QCURVE SMOOTH",
"51 359 OFFCURVE",
"52 248 QCURVE",
"50 237 OFFCURVE",
"52 225 QCURVE",
"52 168 OFFCURVE",
"53 69 QCURVE SMOOTH",
"53 41 OFFCURVE",
"74 21 QCURVE SMOOTH",
"95 0 OFFCURVE",
"152 0 OFFCURVE",
"193 42 OFFCURVE",
"193 71 QCURVE SMOOTH",
"192 186 OFFCURVE",
"191 249 QCURVE SMOOTH",
"188 308 OFFCURVE",
"192 340 QCURVE",
"257 371 OFFCURVE",
"349 403 QCURVE SMOOTH",
"375 412 OFFCURVE",
"398 461 OFFCURVE",
"380 513 OFFCURVE",
"331 536 OFFCURVE",
"305 527 QCURVE SMOOTH",
"225 499 OFFCURVE",
"185 477 QCURVE",
"185 477 LINE"
);
}
);
userData = {
assembly = "PUSHW[ ]\011/* 1 value pushed */
10 
CALL[ ]\011/* CallFunction */
PUSHW[ ]\011/* 4 values pushed */
13 5 25 14 
CALL[ ]\011/* CallFunction */
NPUSHW[ ]\011/* 7 values pushed */
22 13 38 13 54 13 3 
DELTAP1[ ]\011/* DeltaExceptionP1 */
PUSHW[ ]\011/* 1 value pushed */
13 
SRP0[ ]\011/* SetRefPoint0 */
PUSHW[ ]\011/* 1 value pushed */
9 
MDRP[10000]\011/* MoveDirectRelPt */
PUSHW[ ]\011/* 1 value pushed */
9 
MDAP[1]\011/* MoveDirectAbsPt */
PUSHW[ ]\011/* 1 value pushed */
13 
SRP0[ ]\011/* SetRefPoint0 */
PUSHW[ ]\011/* 1 value pushed */
11 
MDRP[10000]\011/* MoveDirectRelPt */
PUSHW[ ]\011/* 1 value pushed */
11 
MDAP[1]\011/* MoveDirectAbsPt */
PUSHW[ ]\011/* 1 value pushed */
25 
SRP0[ ]\011/* SetRefPoint0 */
PUSHW[ ]\011/* 1 value pushed */
19 
MDRP[10000]\011/* MoveDirectRelPt */
PUSHW[ ]\011/* 1 value pushed */
19 
MDAP[1]\011/* MoveDirectAbsPt */
PUSHW[ ]\011/* 1 value pushed */
25 
SRP0[ ]\011/* SetRefPoint0 */
PUSHW[ ]\011/* 1 value pushed */
21 
MDRP[10000]\011/* MoveDirectRelPt */
PUSHW[ ]\011/* 1 value pushed */
21 
MDAP[1]\011/* MoveDirectAbsPt */
PUSHW[ ]\011/* 1 value pushed */
25 
SRP0[ ]\011/* SetRefPoint0 */
PUSHW[ ]\011/* 1 value pushed */
23 
MDRP[10000]\011/* MoveDirectRelPt */
PUSHW[ ]\011/* 1 value pushed */
23 
MDAP[1]\011/* MoveDirectAbsPt */
IUP[0]\011/* InterpolateUntPts */
IUP[1]\011/* InterpolateUntPts */";
};
width = 448;
}
);
note = r;
unicode = 0072;
},
{
glyphname = s;
layers = (
{
layerId = "6CA69755-92A4-402C-9A09-056914DDCECE";
paths = (
{
closed = 1;
nodes = (
"386 337 OFFCURVE",
"441 341 OFFCURVE",
"477 380 OFFCURVE",
"473 433 OFFCURVE",
"452 450 QCURVE SMOOTH",
"448 454 OFFCURVE",
"435 465 QCURVE SMOOTH",
"411 485 LINE SMOOTH",
"401 494 OFFCURVE",
"393 500 QCURVE",
"356 521 OFFCURVE",
"296 529 QCURVE SMOOTH",
"263 534 OFFCURVE",
"223 526 QCURVE SMOOTH",
"182 519 OFFCURVE",
"147 501 QCURVE SMOOTH",
"101 477 OFFCURVE",
"84 435 QCURVE SMOOTH",
"62 385 OFFCURVE",
"89 331 QCURVE SMOOTH",
"112 285 OFFCURVE",
"184 253 QCURVE SMOOTH",
"200 245 OFFCURVE",
"274 218 OFFCURVE",
"281 215 QCURVE SMOOTH",
"328 196 OFFCURVE",
"354 171 OFFCURVE",
"352 157 QCURVE SMOOTH",
"350 135 OFFCURVE",
"297 127 QCURVE SMOOTH",
"267 122 OFFCURVE",
"211 132 OFFCURVE",
"199 140 QCURVE",
"198 143 OFFCURVE",
"195 147 QCURVE SMOOTH",
"188 160 LINE SMOOTH",
"182 171 OFFCURVE",
"176 180 QCURVE SMOOTH",
"161 202 OFFCURVE",
"106 213 OFFCURVE",
"60 184 OFFCURVE",
"49 133 OFFCURVE",
"64 111 QCURVE SMOOTH",
"66 108 OFFCURVE",
"69 102 QCURVE SMOOTH",
"77 86 LINE SMOOTH",
"94 57 OFFCURVE",
"115 41 QCURVE SMOOTH",
"152 14 OFFCURVE",
"264 -5 OFFCURVE",
"316 2 QCURVE SMOOTH",
"343 6 OFFCURVE",
"396 24 OFFCURVE",
"446 55 OFFCURVE",
"481 108 OFFCURVE",
"486 142 QCURVE SMOOTH",
"490 175 OFFCURVE",
"471 234 OFFCURVE",
"441 272 OFFCURVE",
"391 306 OFFCURVE",
"354 323 OFFCURVE",
"331 333 QCURVE SMOOTH",
"322 336 OFFCURVE",
"256 360 OFFCURVE",
"240 367 QCURVE SMOOTH",
"228 372 OFFCURVE",
"213 382 OFFCURVE",
"212 383 QCURVE SMOOTH",
"211 384 LINE",
"209 388 LINE",
"215 392 LINE SMOOTH",
"228 400 OFFCURVE",
"266 406 OFFCURVE",
"278 405 QCURVE SMOOTH",
"307 400 OFFCURVE",
"318 394 QCURVE",
"322 390 OFFCURVE",
"331 383 OFFCURVE",
"351 366 OFFCURVE",
"364 355 QCURVE",
"364 355 LINE"
);
}
);
width = 537;
}
);
note = s;
unicode = 0073;
},
{
glyphname = t;
layers = (
{
layerId = "6CA69755-92A4-402C-9A09-056914DDCECE";
paths = (
{
closed = 1;
nodes = (
"79 544 OFFCURVE",
"50 507 OFFCURVE",
"50 461 OFFCURVE",
"77 424 OFFCURVE",
"125 417 QCURVE",
"124 384 OFFCURVE",
"124 354 QCURVE SMOOTH",
"123 263 OFFCURVE",
"125 206 QCURVE SMOOTH",
"126 169 OFFCURVE",
"128 150 QCURVE SMOOTH",
"130 136 OFFCURVE",
"132 126 QCURVE SMOOTH",
"136 104 OFFCURVE",
"147 90 QCURVE SMOOTH",
"170 60 OFFCURVE",
"214 36 QCURVE SMOOTH",
"242 21 LINE SMOOTH",
"254 15 OFFCURVE",
"261 11 QCURVE SMOOTH",
"285 -5 OFFCURVE",
"341 7 OFFCURVE",
"373 55 OFFCURVE",
"361 111 OFFCURVE",
"337 127 QCURVE SMOOTH",
"325 136 OFFCURVE",
"306 145 QCURVE SMOOTH",
"303 147 OFFCURVE",
"298 149 QCURVE SMOOTH",
"289 154 LINE",
"281 158 LINE SMOOTH",
"274 162 OFFCURVE",
"267 167 OFFCURVE",
"266 169 QCURVE",
"267 169 LINE",
"266 169 LINE",
"262 260 OFFCURVE",
"263 353 QCURVE SMOOTH",
"264 381 OFFCURVE",
"264 412 QCURVE",
"307 414 OFFCURVE",
"346 454 OFFCURVE",
"346 481 QCURVE SMOOTH",
"346 509 OFFCURVE",
"309 549 OFFCURVE",
"267 551 QCURVE",
"268 564 OFFCURVE",
"269 599 OFFCURVE",
"269 603 QCURVE SMOOTH",
"269 632 OFFCURVE",
"230 674 OFFCURVE",
"172 675 OFFCURVE",
"130 636 OFFCURVE",
"129 607 QCURVE SMOOTH",
"129 602 OFFCURVE",
"128 565 OFFCURVE",
"128 550 QCURVE",
"128 550 LINE"
);
}
);
userData = {
assembly = "PUSHW[ ]\011/* 1 value pushed */
10 
CALL[ ]\011/* CallFunction */
PUSHW[ ]\011/* 4 values pushed */
19 5 50 14 
CALL[ ]\011/* CallFunction */
PUSHW[ ]\011/* 1 value pushed */
50 
SRP0[ ]\011/* SetRefPoint0 */
PUSHW[ ]\011/* 1 value pushed */
0 
MDRP[10000]\011/* MoveDirectRelPt */
PUSHW[ ]\011/* 1 value pushed */
0 
MDAP[1]\011/* MoveDirectAbsPt */
PUSHW[ ]\011/* 1 value pushed */
50 
SRP0[ ]\011/* SetRefPoint0 */
PUSHW[ ]\011/* 1 value pushed */
3 
MDRP[10000]\011/* MoveDirectRelPt */
PUSHW[ ]\011/* 1 value pushed */
3 
MDAP[1]\011/* MoveDirectAbsPt */
NPUSHW[ ]\011/* 7 values pushed */
22 19 38 19 54 19 3 
DELTAP1[ ]\011/* DeltaExceptionP1 */
PUSHW[ ]\011/* 1 value pushed */
19 
SRP0[ ]\011/* SetRefPoint0 */
PUSHW[ ]\011/* 1 value pushed */
8 
MDRP[10000]\011/* MoveDirectRelPt */
PUSHW[ ]\011/* 1 value pushed */
8 
MDAP[1]\011/* MoveDirectAbsPt */
PUSHW[ ]\011/* 1 value pushed */
19 
SRP0[ ]\011/* SetRefPoint0 */
PUSHW[ ]\011/* 1 value pushed */
11 
MDRP[10000]\011/* MoveDirectRelPt */
PUSHW[ ]\011/* 1 value pushed */
11 
MDAP[1]\011/* MoveDirectAbsPt */
PUSHW[ ]\011/* 1 value pushed */
50 
SRP0[ ]\011/* SetRefPoint0 */
PUSHW[ ]\011/* 2 values pushed */
14 5 
MIRP[10100]\011/* MoveIndirectRelPt */
PUSHW[ ]\011/* 1 value pushed */
19 
SRP0[ ]\011/* SetRefPoint0 */
PUSHW[ ]\011/* 1 value pushed */
17 
MDRP[10000]\011/* MoveDirectRelPt */
PUSHW[ ]\011/* 1 value pushed */
17 
MDAP[1]\011/* MoveDirectAbsPt */
PUSHW[ ]\011/* 1 value pushed */
19 
SRP0[ ]\011/* SetRefPoint0 */
PUSHW[ ]\011/* 1 value pushed */
21 
MDRP[10000]\011/* MoveDirectRelPt */
PUSHW[ ]\011/* 1 value pushed */
21 
MDAP[1]\011/* MoveDirectAbsPt */
PUSHW[ ]\011/* 1 value pushed */
50 
SRP0[ ]\011/* SetRefPoint0 */
PUSHW[ ]\011/* 1 value pushed */
46 
MDRP[10000]\011/* MoveDirectRelPt */
PUSHW[ ]\011/* 1 value pushed */
46 
MDAP[1]\011/* MoveDirectAbsPt */
PUSHW[ ]\011/* 1 value pushed */
50 
SRP0[ ]\011/* SetRefPoint0 */
PUSHW[ ]\011/* 1 value pushed */
48 
MDRP[10000]\011/* MoveDirectRelPt */
PUSHW[ ]\011/* 1 value pushed */
48 
MDAP[1]\011/* MoveDirectAbsPt */
PUSHW[ ]\011/* 1 value pushed */
50 
SRP0[ ]\011/* SetRefPoint0 */
PUSHW[ ]\011/* 1 value pushed */
52 
MDRP[10000]\011/* MoveDirectRelPt */
PUSHW[ ]\011/* 1 value pushed */
52 
MDAP[1]\011/* MoveDirectAbsPt */
SVTCA[0]\011/* SetFreedomAndProjectionVectorToAxis */
PUSHW[ ]\011/* 4 values pushed */
11 2 17 14 
CALL[ ]\011/* CallFunction */
PUSHW[ ]\011/* 1 value pushed */
11 
SRP0[ ]\011/* SetRefPoint0 */
PUSHW[ ]\011/* 1 value pushed */
0 
MDRP[10000]\011/* MoveDirectRelPt */
PUSHW[ ]\011/* 1 value pushed */
0 
MDAP[1]\011/* MoveDirectAbsPt */
PUSHW[ ]\011/* 1 value pushed */
17 
SRP0[ ]\011/* SetRefPoint0 */
PUSHW[ ]\011/* 1 value pushed */
52 
MDRP[10000]\011/* MoveDirectRelPt */
PUSHW[ ]\011/* 1 value pushed */
52 
MDAP[1]\011/* MoveDirectAbsPt */
IUP[0]\011/* InterpolateUntPts */
IUP[1]\011/* InterpolateUntPts */";
};
width = 423;
}
);
note = t;
unicode = 0074;
},
{
glyphname = u;
lastChange = "2019-10-23 16:36:21 +0000";
layers = (
{
layerId = "6CA69755-92A4-402C-9A09-056914DDCECE";
paths = (
{
closed = 1;
nodes = (
"98 542 OFFCURVE",
"56 521 OFFCURVE",
"30 486 OFFCURVE",
"30 464 QCURVE SMOOTH",
"30 449 OFFCURVE",
"26 346 OFFCURVE",
"28 291 QCURVE SMOOTH",
"35 100 OFFCURVE",
"114 34 QCURVE SMOOTH",
"146 7 OFFCURVE",
"234 -17 OFFCURVE",
"277 -5 QCURVE SMOOTH",
"349 15 OFFCURVE",
"399 86 QCURVE",
"403 61 OFFCURVE",
"409 36 QCURVE SMOOTH",
"416 7 OFFCURVE",
"463 -24 OFFCURVE",
"520 -12 OFFCURVE",
"551 36 OFFCURVE",
"545 64 QCURVE SMOOTH",
"513 225 OFFCURVE",
"496 473 QCURVE SMOOTH",
"494 502 OFFCURVE",
"452 541 OFFCURVE",
"394 538 OFFCURVE",
"354 496 OFFCURVE",
"356 467 QCURVE SMOOTH",
"359 413 LINE",
"356 347 OFFCURVE",
"340 266 QCURVE SMOOTH",
"315 138 OFFCURVE",
"239 129 QCURVE SMOOTH",
"234 128 OFFCURVE",
"212 133 OFFCURVE",
"204 140 QCURVE SMOOTH",
"191 151 OFFCURVE",
"165 211 OFFCURVE",
"166 355 OFFCURVE",
"170 447 OFFCURVE",
"170 462 QCURVE SMOOTH",
"170 487 OFFCURVE",
"151 524 OFFCURVE",
"126 533 QCURVE SMOOTH"
);
}
);
userData = {
assembly = "PUSHW[ ]\011/* 1 value pushed */
10 
CALL[ ]\011/* CallFunction */
PUSHW[ ]\011/* 1 value pushed */
45 
MDAP[1]\011/* MoveDirectAbsPt */
PUSHW[ ]\011/* 1 value pushed */
15 
MDAP[1]\011/* MoveDirectAbsPt */
PUSHW[ ]\011/* 1 value pushed */
45 
SRP0[ ]\011/* SetRefPoint0 */
PUSHW[ ]\011/* 1 value pushed */
35 
MDRP[10000]\011/* MoveDirectRelPt */
PUSHW[ ]\011/* 1 value pushed */
35 
MDAP[1]\011/* MoveDirectAbsPt */
PUSHW[ ]\011/* 2 values pushed */
5 5 
MIRP[10100]\011/* MoveIndirectRelPt */
NPUSHW[ ]\011/* 7 values pushed */
22 5 38 5 54 5 3 
DELTAP1[ ]\011/* DeltaExceptionP1 */
NPUSHW[ ]\011/* 7 values pushed */
25 15 41 15 57 15 3 
DELTAP1[ ]\011/* DeltaExceptionP1 */
PUSHW[ ]\011/* 1 value pushed */
15 
SRP0[ ]\011/* SetRefPoint0 */
PUSHW[ ]\011/* 1 value pushed */
13 
MDRP[10000]\011/* MoveDirectRelPt */
PUSHW[ ]\011/* 1 value pushed */
13 
MDAP[1]\011/* MoveDirectAbsPt */
PUSHW[ ]\011/* 1 value pushed */
15 
SRP0[ ]\011/* SetRefPoint0 */
PUSHW[ ]\011/* 2 values pushed */
20 5 
MIRP[10100]\011/* MoveIndirectRelPt */
PUSHW[ ]\011/* 1 value pushed */
22 
MDRP[10000]\011/* MoveDirectRelPt */
PUSHW[ ]\011/* 1 value pushed */
20 
SRP0[ ]\011/* SetRefPoint0 */
PUSHW[ ]\011/* 1 value pushed */
46 
MDRP[11100]\011/* MoveDirectRelPt */
IUP[0]\011/* InterpolateUntPts */
IUP[1]\011/* InterpolateUntPts */";
};
width = 557;
}
);
note = u;
unicode = 0075;
},
{
glyphname = v;
layers = (
{
layerId = "6CA69755-92A4-402C-9A09-056914DDCECE";
paths = (
{
closed = 1;
nodes = (
"520 452 OFFCURVE",
"507 504 OFFCURVE",
"461 533 OFFCURVE",
"408 521 OFFCURVE",
"394 498 QCURVE SMOOTH",
"337 392 OFFCURVE",
"279 257 QCURVE",
"233 381 OFFCURVE",
"178 495 QCURVE SMOOTH",
"165 520 OFFCURVE",
"113 535 OFFCURVE",
"65 508 OFFCURVE",
"50 455 OFFCURVE",
"63 431 QCURVE SMOOTH",
"142 268 OFFCURVE",
"206 57 QCURVE SMOOTH",
"207 55 OFFCURVE",
"207 52 QCURVE",
"215 18 OFFCURVE",
"246 4 QCURVE SMOOTH",
"272 -6 OFFCURVE",
"321 15 OFFCURVE",
"332 40 QCURVE SMOOTH",
"348 79 LINE SMOOTH",
"361 112 OFFCURVE",
"368 131 OFFCURVE",
"380 159 QCURVE SMOOTH",
"397 199 LINE",
"413 234 LINE",
"484 382 LINE",
"505 427 LINE",
"505 427 LINE"
);
}
);
width = 570;
}
);
note = v;
unicode = 0076;
},
{
glyphname = w;
layers = (
{
layerId = "6CA69755-92A4-402C-9A09-056914DDCECE";
paths = (
{
closed = 1;
nodes = (
"171 21 OFFCURVE",
"219 -7 OFFCURVE",
"246 -1 QCURVE",
"268 0 OFFCURVE",
"304 27 OFFCURVE",
"311 49 QCURVE SMOOTH",
"370 237 LINE",
"435 47 LINE SMOOTH",
"442 26 OFFCURVE",
"476 0 OFFCURVE",
"496 -2 QCURVE SMOOTH",
"523 -6 OFFCURVE",
"568 23 OFFCURVE",
"576 48 QCURVE SMOOTH",
"590 97 OFFCURVE",
"677 436 QCURVE SMOOTH",
"685 465 OFFCURVE",
"656 516 OFFCURVE",
"600 532 OFFCURVE",
"550 502 OFFCURVE",
"543 473 QCURVE SMOOTH",
"498 296 LINE",
"439 470 LINE SMOOTH",
"432 489 OFFCURVE",
"401 514 OFFCURVE",
"381 516 QCURVE",
"356 522 OFFCURVE",
"311 497 OFFCURVE",
"302 471 QCURVE SMOOTH",
"270 375 OFFCURVE",
"238 285 QCURVE",
"215 355 OFFCURVE",
"189 472 QCURVE SMOOTH",
"182 501 OFFCURVE",
"132 532 OFFCURVE",
"76 517 OFFCURVE",
"46 466 OFFCURVE",
"53 437 QCURVE SMOOTH",
"94 270 OFFCURVE",
"163 47 QCURVE",
"163 47 LINE"
);
}
);
width = 754;
}
);
note = w;
unicode = 0077;
},
{
glyphname = x;
layers = (
{
layerId = "6CA69755-92A4-402C-9A09-056914DDCECE";
paths = (
{
closed = 1;
nodes = (
"452 411 LINE SMOOTH",
"470 435 OFFCURVE",
"462 495 OFFCURVE",
"416 531 OFFCURVE",
"358 523 OFFCURVE",
"341 500 QCURVE SMOOTH",
"264 388 LINE",
"175 501 LINE SMOOTH",
"156 524 OFFCURVE",
"98 530 OFFCURVE",
"53 493 OFFCURVE",
"47 433 OFFCURVE",
"65 410 QCURVE SMOOTH",
"178 266 LINE",
"124 183 OFFCURVE",
"79 107 QCURVE SMOOTH",
"64 82 OFFCURVE",
"79 23 OFFCURVE",
"129 -7 OFFCURVE",
"186 8 OFFCURVE",
"201 33 QCURVE SMOOTH",
"232 87 OFFCURVE",
"270 142 QCURVE",
"351 28 LINE SMOOTH",
"367 4 OFFCURVE",
"425 -6 OFFCURVE",
"473 27 OFFCURVE",
"483 87 OFFCURVE",
"466 111 QCURVE SMOOTH",
"354 269 LINE",
"354 269 LINE"
);
}
);
width = 528;
}
);
note = x;
unicode = 0078;
},
{
glyphname = y;
layers = (
{
layerId = "6CA69755-92A4-402C-9A09-056914DDCECE";
paths = (
{
closed = 1;
nodes = (
"61 -104 OFFCURVE",
"59 -159 OFFCURVE",
"97 -198 OFFCURVE",
"152 -200 OFFCURVE",
"172 -181 QCURVE",
"177 -175 OFFCURVE",
"197 -157 QCURVE SMOOTH",
"237 -121 LINE SMOOTH",
"256 -104 OFFCURVE",
"269 -87 QCURVE SMOOTH",
"288 -63 OFFCURVE",
"324 -10 OFFCURVE",
"340 21 QCURVE SMOOTH",
"368 75 LINE SMOOTH",
"380 99 OFFCURVE",
"394 135 QCURVE SMOOTH",
"416 193 LINE SMOOTH",
"424 213 OFFCURVE",
"449 295 OFFCURVE",
"459 325 OFFCURVE",
"484 434 OFFCURVE",
"487 443 QCURVE SMOOTH",
"495 470 OFFCURVE",
"469 518 OFFCURVE",
"416 533 OFFCURVE",
"368 507 OFFCURVE",
"361 481 QCURVE SMOOTH",
"306 276 OFFCURVE",
"283 215 QCURVE",
"186 486 LINE SMOOTH",
"176 513 OFFCURVE",
"123 536 OFFCURVE",
"69 516 OFFCURVE",
"46 463 OFFCURVE",
"56 436 QCURVE SMOOTH",
"197 54 LINE",
"198 49 OFFCURVE",
"201 45 QCURVE",
"184 18 OFFCURVE",
"165 -5 QCURVE SMOOTH",
"155 -18 OFFCURVE",
"132 -40 OFFCURVE",
"95 -71 OFFCURVE",
"80 -85 QCURVE",
"80 -85 LINE"
);
}
);
width = 544;
}
);
note = y;
unicode = 0079;
},
{
glyphname = z;
layers = (
{
layerId = "6CA69755-92A4-402C-9A09-056914DDCECE";
paths = (
{
closed = 1;
nodes = (
"51 84 OFFCURVE",
"61 30 OFFCURVE",
"83 14 QCURVE SMOOTH",
"102 0 OFFCURVE",
"126 2 QCURVE SMOOTH",
"130 2 LINE SMOOTH",
"307 -3 OFFCURVE",
"450 5 QCURVE SMOOTH",
"478 7 OFFCURVE",
"514 48 OFFCURVE",
"510 103 OFFCURVE",
"469 139 OFFCURVE",
"442 137 QCURVE SMOOTH",
"343 132 OFFCURVE",
"254 132 QCURVE",
"319 208 LINE",
"476 405 LINE SMOOTH",
"496 429 OFFCURVE",
"491 459 QCURVE",
"491 486 OFFCURVE",
"454 525 OFFCURVE",
"427 526 QCURVE SMOOTH",
"268 531 OFFCURVE",
"114 531 QCURVE",
"86 529 OFFCURVE",
"50 488 OFFCURVE",
"54 433 OFFCURVE",
"95 397 OFFCURVE",
"122 399 QCURVE",
"210 394 OFFCURVE",
"291 395 QCURVE",
"125 188 OFFCURVE",
"67 106 QCURVE",
"67 106 LINE"
);
}
);
userData = {
assembly = "PUSHW[ ]\011/* 1 value pushed */
10 
CALL[ ]\011/* CallFunction */
SVTCA[0]\011/* SetFreedomAndProjectionVectorToAxis */
PUSHW[ ]\011/* 1 value pushed */
9 
MDAP[1]\011/* MoveDirectAbsPt */
PUSHW[ ]\011/* 1 value pushed */
11 
MDAP[1]\011/* MoveDirectAbsPt */
PUSHW[ ]\011/* 1 value pushed */
1 
RCVT[ ]\011/* ReadCVT */
IF[ ]\011/* If */
PUSHW[ ]\011/* 1 value pushed */
25 
MDAP[1]\011/* MoveDirectAbsPt */
ELSE[ ]\011/* Else */
PUSHW[ ]\011/* 2 values pushed */
25 7 
MIAP[0]\011/* MoveIndirectAbsPt */
EIF[ ]\011/* EndIf */
PUSHW[ ]\011/* 1 value pushed */
1 
RCVT[ ]\011/* ReadCVT */
IF[ ]\011/* If */
PUSHW[ ]\011/* 1 value pushed */
27 
MDAP[1]\011/* MoveDirectAbsPt */
ELSE[ ]\011/* Else */
PUSHW[ ]\011/* 2 values pushed */
27 7 
MIAP[0]\011/* MoveIndirectAbsPt */
EIF[ ]\011/* EndIf */
PUSHW[ ]\011/* 1 value pushed */
11 
SRP0[ ]\011/* SetRefPoint0 */
PUSHW[ ]\011/* 2 values pushed */
4 4 
MIRP[10100]\011/* MoveIndirectRelPt */
PUSHW[ ]\011/* 1 value pushed */
2 
MDRP[10000]\011/* MoveDirectRelPt */
PUSHW[ ]\011/* 1 value pushed */
2 
MDAP[1]\011/* MoveDirectAbsPt */
PUSHW[ ]\011/* 1 value pushed */
27 
SRP0[ ]\011/* SetRefPoint0 */
PUSHW[ ]\011/* 2 values pushed */
18 2 
MIRP[10100]\011/* MoveIndirectRelPt */
PUSHW[ ]\011/* 1 value pushed */
20 
MDRP[10000]\011/* MoveDirectRelPt */
IUP[0]\011/* InterpolateUntPts */
IUP[1]\011/* InterpolateUntPts */";
};
width = 564;
}
);
note = z;
unicode = 007A;
},
{
glyphname = braceleft;
layers = (
{
layerId = "6CA69755-92A4-402C-9A09-056914DDCECE";
paths = (
{
closed = 1;
nodes = (
"416 558 OFFCURVE",
"464 583 OFFCURVE",
"481 635 OFFCURVE",
"456 683 OFFCURVE",
"430 692 QCURVE SMOOTH",
"428 693 OFFCURVE",
"422 695 QCURVE SMOOTH",
"405 703 OFFCURVE",
"404 703 QCURVE",
"369 719 OFFCURVE",
"339 716 QCURVE SMOOTH",
"202 703 OFFCURVE",
"175 523 QCURVE SMOOTH",
"172 505 OFFCURVE",
"165 435 OFFCURVE",
"162 419 QCURVE SMOOTH",
"156 378 OFFCURVE",
"148 367 QCURVE SMOOTH",
"145 363 OFFCURVE",
"135 356 QCURVE SMOOTH",
"99 332 OFFCURVE",
"97 331 QCURVE SMOOTH",
"93 328 OFFCURVE",
"90 324 QCURVE",
"68 312 OFFCURVE",
"59 289 QCURVE SMOOTH",
"50 263 OFFCURVE",
"73 213 OFFCURVE",
"98 204 QCURVE SMOOTH",
"111 199 OFFCURVE",
"136 194 QCURVE",
"137 187 LINE SMOOTH",
"138 171 OFFCURVE",
"138 168 QCURVE SMOOTH",
"140 151 OFFCURVE",
"136 108 QCURVE SMOOTH",
"132 53 OFFCURVE",
"136 22 QCURVE SMOOTH",
"151 -98 OFFCURVE",
"236 -153 QCURVE SMOOTH",
"296 -191 OFFCURVE",
"409 -202 QCURVE SMOOTH",
"436 -204 OFFCURVE",
"478 -169 OFFCURVE",
"483 -115 OFFCURVE",
"448 -73 OFFCURVE",
"421 -70 QCURVE SMOOTH",
"340 -63 OFFCURVE",
"308 -42 QCURVE SMOOTH",
"274 -20 OFFCURVE",
"266 38 QCURVE SMOOTH",
"264 55 OFFCURVE",
"268 97 QCURVE SMOOTH",
"273 152 OFFCURVE",
"270 182 QCURVE",
"269 184 OFFCURVE",
"267 212 OFFCURVE",
"265 222 QCURVE SMOOTH",
"260 254 OFFCURVE",
"244 276 QCURVE",
"249 282 OFFCURVE",
"254 289 QCURVE SMOOTH",
"282 327 OFFCURVE",
"293 400 QCURVE SMOOTH",
"299 450 LINE",
"305 503 LINE SMOOTH",
"312 549 OFFCURVE",
"332 582 OFFCURVE",
"348 584 QCURVE",
"352 582 LINE SMOOTH",
"355 581 OFFCURVE",
"365 576 OFFCURVE",
"366 576 QCURVE",
"379 570 OFFCURVE",
"390 566 QCURVE",
"390 566 LINE"
);
}
);
width = 533;
}
);
note = braceleft;
unicode = 007B;
},
{
glyphname = bar;
layers = (
{
layerId = "6CA69755-92A4-402C-9A09-056914DDCECE";
paths = (
{
closed = 1;
nodes = (
"197 687 OFFCURVE",
"156 728 OFFCURVE",
"98 728 OFFCURVE",
"57 687 OFFCURVE",
"57 658 QCURVE SMOOTH",
"57 639 OFFCURVE",
"58 381 OFFCURVE",
"57 298 OFFCURVE",
"54 133 OFFCURVE",
"51 67 QCURVE SMOOTH",
"50 38 OFFCURVE",
"89 -4 OFFCURVE",
"147 -7 OFFCURVE",
"189 32 OFFCURVE",
"191 61 QCURVE SMOOTH",
"193 115 OFFCURVE",
"196 226 OFFCURVE",
"197 356 OFFCURVE",
"197 398 QCURVE SMOOTH",
"197 518 LINE",
"197 658 LINE",
"197 658 LINE"
);
}
);
userData = {
assembly = "PUSHW[ ]\011/* 1 value pushed */
10 
CALL[ ]\011/* CallFunction */
PUSHW[ ]\011/* 4 values pushed */
0 5 16 14 
CALL[ ]\011/* CallFunction */
PUSHW[ ]\011/* 1 value pushed */
0 
SRP0[ ]\011/* SetRefPoint0 */
PUSHW[ ]\011/* 1 value pushed */
2 
MDRP[10000]\011/* MoveDirectRelPt */
PUSHW[ ]\011/* 1 value pushed */
0 
SRP0[ ]\011/* SetRefPoint0 */
PUSHW[ ]\011/* 1 value pushed */
6 
MDRP[10000]\011/* MoveDirectRelPt */
PUSHW[ ]\011/* 1 value pushed */
6 
MDAP[1]\011/* MoveDirectAbsPt */
PUSHW[ ]\011/* 1 value pushed */
16 
SRP0[ ]\011/* SetRefPoint0 */
PUSHW[ ]\011/* 1 value pushed */
11 
MDRP[10000]\011/* MoveDirectRelPt */
PUSHW[ ]\011/* 1 value pushed */
11 
MDAP[1]\011/* MoveDirectAbsPt */
IUP[0]\011/* InterpolateUntPts */
IUP[1]\011/* InterpolateUntPts */";
};
width = 247;
}
);
note = bar;
unicode = 007C;
},
